<svg width="63" height="63" viewBox="0 0 63 63" fill="none" xmlns="http://www.w3.org/2000/svg">
<path fill-rule="evenodd" clip-rule="evenodd" d="M5.27002 9.71372C5.27002 8.65373 6.12932 7.79443 7.18931 7.79443H21.2641C27.9774 7.79443 33.4196 13.2366 33.4196 19.9499V54.4972C33.4196 55.5572 32.5603 56.4165 31.5003 56.4165C30.4403 56.4165 29.581 55.5572 29.581 54.4972C29.581 51.3172 27.0031 48.7393 23.8232 48.7393H7.18931C6.12932 48.7393 5.27002 47.88 5.27002 46.82V9.71372ZM29.581 46.8193V19.9499C29.581 15.3566 25.8575 11.633 21.2641 11.633H9.1086V44.9007H23.8232C25.9835 44.9007 27.9772 45.6146 29.581 46.8193Z" fill="white"/>
<path fill-rule="evenodd" clip-rule="evenodd" d="M29.5806 19.9499C29.5806 13.2366 35.0227 7.79443 41.7361 7.79443H55.8109C56.8709 7.79443 57.7302 8.65373 57.7302 9.71372V46.82C57.7302 47.88 56.8709 48.7393 55.8109 48.7393H39.177C35.997 48.7393 33.4191 51.3172 33.4191 54.4972C33.4191 55.5572 32.5599 56.4165 31.4999 56.4165C30.4399 56.4165 29.5806 55.5572 29.5806 54.4972V19.9499ZM33.4191 46.8193C35.023 45.6146 37.0167 44.9007 39.177 44.9007H53.8916V11.633H41.7361C37.1427 11.633 33.4191 15.3566 33.4191 19.9499V46.8193Z" fill="white"/>
</svg>
