<svg width="63" height="63" viewBox="0 0 63 63" fill="none" xmlns="http://www.w3.org/2000/svg">
<path fill-rule="evenodd" clip-rule="evenodd" d="M7.82861 8.43416C7.82861 5.96083 9.83364 3.95581 12.307 3.95581H37.8975C38.9575 3.95581 39.8168 4.81511 39.8168 5.8751C39.8168 6.9351 38.9575 7.79439 37.8975 7.79439H12.307C11.9536 7.79439 11.6672 8.08082 11.6672 8.43416V54.4972C11.6672 54.8505 11.9536 55.1369 12.307 55.1369H48.1337C48.4871 55.1369 48.7735 54.8505 48.7735 54.4972V26.3534C48.7735 25.2934 49.6328 24.4341 50.6928 24.4341C51.7528 24.4341 52.6121 25.2934 52.6121 26.3534V54.4972C52.6121 56.9705 50.6071 58.9755 48.1337 58.9755H12.307C9.83366 58.9755 7.82861 56.9705 7.82861 54.4972V8.43416Z" fill="white"/>
<path fill-rule="evenodd" clip-rule="evenodd" d="M15.5063 23.7884C15.5063 22.7284 16.3656 21.8691 17.4256 21.8691H27.6619C28.7219 21.8691 29.5812 22.7284 29.5812 23.7884C29.5812 24.8484 28.7219 25.7077 27.6619 25.7077H17.4256C16.3656 25.7077 15.5063 24.8484 15.5063 23.7884Z" fill="white"/>
<path fill-rule="evenodd" clip-rule="evenodd" d="M15.5063 36.5838C15.5063 35.5238 16.3656 34.6646 17.4256 34.6646H32.78C33.84 34.6646 34.6993 35.5238 34.6993 36.5838C34.6993 37.6438 33.84 38.5031 32.78 38.5031H17.4256C16.3656 38.5031 15.5063 37.6438 15.5063 36.5838Z" fill="white"/>
<path fill-rule="evenodd" clip-rule="evenodd" d="M54.6079 7.07825C55.3574 7.82778 55.3574 9.04301 54.6079 9.79254L39.2603 25.1402C38.5108 25.8898 37.2956 25.8898 36.546 25.1402C35.7965 24.3907 35.7965 23.1755 36.546 22.426L51.8936 7.07827C52.6431 6.32873 53.8583 6.32873 54.6079 7.07825Z" fill="white"/>
</svg>
