<svg width="50" height="50" viewBox="0 0 50 50" fill="none" xmlns="http://www.w3.org/2000/svg">
<path fill-rule="evenodd" clip-rule="evenodd" d="M2.60547 9.37508C2.60547 7.36154 4.23776 5.72925 6.2513 5.72925H43.7513C45.7649 5.72925 47.3971 7.36156 47.3971 9.37508V38.5417C47.3971 40.5553 45.7649 42.1876 43.7513 42.1876H6.2513C4.23778 42.1876 2.60547 40.5553 2.60547 38.5417V9.37508ZM6.2513 8.85425C5.96365 8.85425 5.73047 9.08743 5.73047 9.37508V38.5417C5.73047 38.8294 5.96364 39.0626 6.2513 39.0626H43.7513C44.039 39.0626 44.2721 38.8294 44.2721 38.5417V9.37508C44.2721 9.08742 44.039 8.85425 43.7513 8.85425H6.2513Z" fill="white"/>
<path fill-rule="evenodd" clip-rule="evenodd" d="M10.9375 19.7917C10.9375 18.9288 11.6371 18.2292 12.5 18.2292H14.5833C15.4463 18.2292 16.1458 18.9288 16.1458 19.7917C16.1458 20.6547 15.4463 21.3542 14.5833 21.3542H12.5C11.6371 21.3542 10.9375 20.6547 10.9375 19.7917Z" fill="white"/>
<path fill-rule="evenodd" clip-rule="evenodd" d="M20.3125 19.7917C20.3125 18.9288 21.0121 18.2292 21.875 18.2292H23.9583C24.8213 18.2292 25.5208 18.9288 25.5208 19.7917C25.5208 20.6547 24.8213 21.3542 23.9583 21.3542H21.875C21.0121 21.3542 20.3125 20.6547 20.3125 19.7917Z" fill="white"/>
<path fill-rule="evenodd" clip-rule="evenodd" d="M28.6445 19.7917C28.6445 18.9288 29.3441 18.2292 30.207 18.2292H37.4987C38.3616 18.2292 39.0612 18.9288 39.0612 19.7917C39.0612 20.6547 38.3616 21.3542 37.4987 21.3542H30.207C29.3441 21.3542 28.6445 20.6547 28.6445 19.7917Z" fill="white"/>
<path fill-rule="evenodd" clip-rule="evenodd" d="M10.9375 29.1667C10.9375 28.3038 11.6371 27.6042 12.5 27.6042H37.5C38.3629 27.6042 39.0625 28.3038 39.0625 29.1667C39.0625 30.0297 38.3629 30.7292 37.5 30.7292H12.5C11.6371 30.7292 10.9375 30.0297 10.9375 29.1667Z" fill="white"/>
</svg>
