<svg width="50" height="50" viewBox="0 0 50 50" fill="none" xmlns="http://www.w3.org/2000/svg">
<g id="Hardware/game-three">
<path id="Vector (Stroke)" fill-rule="evenodd" clip-rule="evenodd" d="M5.20703 18.229C6.06998 18.229 6.76953 18.9286 6.76953 19.7915V34.3748C6.76953 37.539 9.33457 40.104 12.4987 40.104C15.6628 40.104 18.2279 37.539 18.2279 34.3748V31.2498C18.2279 30.3869 18.9274 29.6873 19.7904 29.6873C20.6533 29.6873 21.3529 30.3869 21.3529 31.2498V34.3748C21.3529 39.2649 17.3887 43.229 12.4987 43.229C7.60868 43.229 3.64453 39.2649 3.64453 34.3748V19.7915C3.64453 18.9286 4.34409 18.229 5.20703 18.229Z" fill="white"/>
<path id="Vector (Stroke)_2" fill-rule="evenodd" clip-rule="evenodd" d="M44.7904 18.229C45.6533 18.229 46.3529 18.9286 46.3529 19.7915V34.3748C46.3529 39.2649 42.3887 43.229 37.4987 43.229C32.6087 43.229 28.6445 39.2649 28.6445 34.3748V31.2498C28.6445 30.3869 29.3441 29.6873 30.207 29.6873C31.07 29.6873 31.7695 30.3869 31.7695 31.2498V34.3748C31.7695 37.539 34.3346 40.104 37.4987 40.104C40.6628 40.104 43.2279 37.539 43.2279 34.3748V19.7915C43.2279 18.9286 43.9274 18.229 44.7904 18.229Z" fill="white"/>
<path id="Vector (Stroke)_3" fill-rule="evenodd" clip-rule="evenodd" d="M16.6654 9.896C11.2 9.896 6.76953 14.3265 6.76953 19.7918C6.76953 25.2571 11.2 29.6877 16.6654 29.6877H33.332C38.7974 29.6877 43.2279 25.2571 43.2279 19.7918C43.2279 14.3265 38.7974 9.896 33.332 9.896H16.6654ZM3.64453 19.7918C3.64453 12.6006 9.47416 6.771 16.6654 6.771H33.332C40.5232 6.771 46.3529 12.6006 46.3529 19.7918C46.3529 26.983 40.5232 32.8127 33.332 32.8127H16.6654C9.47416 32.8127 3.64453 26.983 3.64453 19.7918Z" fill="white"/>
<path id="Vector (Stroke)_4" fill-rule="evenodd" clip-rule="evenodd" d="M11.9805 19.7915C11.9805 18.9286 12.68 18.229 13.543 18.229H21.8763C22.7392 18.229 23.4388 18.9286 23.4388 19.7915C23.4388 20.6544 22.7392 21.354 21.8763 21.354H13.543C12.68 21.354 11.9805 20.6544 11.9805 19.7915Z" fill="white"/>
<path id="Vector (Stroke)_5" fill-rule="evenodd" clip-rule="evenodd" d="M17.707 14.0625C18.57 14.0625 19.2695 14.7621 19.2695 15.625V23.9583C19.2695 24.8213 18.57 25.5208 17.707 25.5208C16.8441 25.5208 16.1445 24.8213 16.1445 23.9583V15.625C16.1445 14.7621 16.8441 14.0625 17.707 14.0625Z" fill="white"/>
<path id="Vector" d="M37.4987 17.7083C37.4987 16.5577 36.566 15.625 35.4154 15.625C34.2648 15.625 33.332 16.5577 33.332 17.7083C33.332 18.8589 34.2648 19.7917 35.4154 19.7917C36.566 19.7917 37.4987 18.8589 37.4987 17.7083Z" fill="white"/>
<path id="Vector_2" d="M33.3346 22.9168C33.3346 21.7662 32.4019 20.8335 31.2513 20.8335C30.1007 20.8335 29.168 21.7662 29.168 22.9168C29.168 24.0674 30.1007 25.0002 31.2513 25.0002C32.4019 25.0002 33.3346 24.0674 33.3346 22.9168Z" fill="white"/>
</g>
</svg>
