<svg width="50" height="50" viewBox="0 0 50 50" fill="none" xmlns="http://www.w3.org/2000/svg">
<g id="Build/home-two">
<path id="Vector (Stroke)" fill-rule="evenodd" clip-rule="evenodd" d="M24.0252 2.9464C24.5959 2.48987 25.4067 2.48987 25.9774 2.9464L46.8107 19.6131C47.1814 19.9096 47.3971 20.3585 47.3971 20.8332V45.8332C47.3971 46.6961 46.6976 47.3957 45.8346 47.3957H33.3346C32.4717 47.3957 31.7721 46.6961 31.7721 45.8332V28.6457H18.2305V45.8332C18.2305 46.6961 17.5309 47.3957 16.668 47.3957H4.16797C3.30502 47.3957 2.60547 46.6961 2.60547 45.8332V20.8332C2.60547 20.3585 2.82123 19.9096 3.19188 19.6131L24.0252 2.9464ZM5.73047 21.5841V44.2707H15.1055V27.0832C15.1055 26.2202 15.805 25.5207 16.668 25.5207H33.3346C34.1976 25.5207 34.8971 26.2202 34.8971 27.0832V44.2707H44.2721V21.5841L25.0013 6.16748L5.73047 21.5841Z" fill="white"/>
</g>
</svg>
