<svg width="24" height="24" viewBox="0 0 24 24" fill="none" xmlns="http://www.w3.org/2000/svg">
<g id="logos:google-icon" clip-path="url(#clip0_596_23485)">
<path id="Vector" d="M23.9885 12.2242C23.9885 11.2409 23.9069 10.5234 23.7301 9.7793H12.239V14.2173H18.984C18.8481 15.3202 18.1138 16.9811 16.4819 18.0972L16.459 18.2458L20.0923 20.996L20.344 21.0205C22.6558 18.9344 23.9885 15.8649 23.9885 12.2242Z" fill="#4285F4"/>
<path id="Vector_2" d="M12.239 23.9178C15.5435 23.9178 18.3177 22.8548 20.344 21.0211L16.4819 18.0978C15.4484 18.8021 14.0612 19.2937 12.239 19.2937C9.00248 19.2937 6.25551 17.2076 5.27629 14.3242L5.13276 14.3361L1.35483 17.193L1.30542 17.3271C3.31804 21.2337 7.45214 23.9178 12.239 23.9178Z" fill="#34A853"/>
<path id="Vector_3" d="M5.27634 14.3238C5.01797 13.5797 4.86844 12.7824 4.86844 11.9586C4.86844 11.1347 5.01797 10.3375 5.26275 9.59342L5.25591 9.43494L1.43062 6.53223L1.30547 6.59039C0.475969 8.21149 0 10.0319 0 11.9586C0 13.8853 0.475969 15.7056 1.30547 17.3267L5.27634 14.3238Z" fill="#FBBC05"/>
<path id="Vector_4" d="M12.239 4.62403C14.5372 4.62403 16.0875 5.59402 16.9714 6.40461L20.4255 3.10928C18.3042 1.1826 15.5435 0 12.239 0C7.45214 0 3.31804 2.68406 1.30542 6.59056L5.2627 9.59359C6.25551 6.7102 9.00248 4.62403 12.239 4.62403Z" fill="#EB4335"/>
</g>
<defs>
<clipPath id="clip0_596_23485">
<rect width="24" height="24" fill="white"/>
</clipPath>
</defs>
</svg>
