<svg width="50" height="50" viewBox="0 0 50 50" fill="none" xmlns="http://www.w3.org/2000/svg">
<g id="palette-outline">
<path id="Vector" d="M25.0013 45.8332C22.1541 45.8332 19.4631 45.2859 16.9284 44.1915C14.3937 43.0971 12.1798 41.604 10.2867 39.7123C8.39505 37.8207 6.902 35.6075 5.80755 33.0728C4.71311 30.538 4.16658 27.8471 4.16797 24.9998C4.16797 22.1179 4.73255 19.4096 5.86172 16.8748C6.99089 14.3401 8.51867 12.1353 10.4451 10.2603C12.3714 8.38525 14.6194 6.90123 17.1888 5.80817C19.7582 4.71512 22.5013 4.16789 25.418 4.1665C28.1957 4.1665 30.8173 4.64428 33.2826 5.59984C35.7478 6.55539 37.9096 7.87484 39.768 9.55817C41.6249 11.2415 43.1006 13.238 44.1951 15.5478C45.2895 17.8575 45.836 20.3484 45.8346 23.0207C45.8346 27.0137 44.6194 30.0783 42.1888 32.2144C39.7582 34.3505 36.8069 35.4179 33.3346 35.4165H29.4805C29.168 35.4165 28.9506 35.5033 28.8284 35.6769C28.7062 35.8505 28.6457 36.0415 28.6471 36.2498C28.6471 36.6665 28.9076 37.2658 29.4284 38.0478C29.9492 38.8297 30.2096 39.7234 30.2096 40.729C30.2096 42.4651 29.7319 43.7498 28.7763 44.5832C27.8207 45.4165 26.5624 45.8332 25.0013 45.8332ZM13.543 27.0832C14.4457 27.0832 15.1923 26.788 15.7826 26.1978C16.3728 25.6075 16.668 24.8609 16.668 23.9582C16.668 23.0554 16.3728 22.3089 15.7826 21.7186C15.1923 21.1283 14.4457 20.8332 13.543 20.8332C12.6402 20.8332 11.8937 21.1283 11.3034 21.7186C10.7131 22.3089 10.418 23.0554 10.418 23.9582C10.418 24.8609 10.7131 25.6075 11.3034 26.1978C11.8937 26.788 12.6402 27.0832 13.543 27.0832ZM19.793 18.7498C20.6957 18.7498 21.4423 18.4547 22.0326 17.8644C22.6228 17.2741 22.918 16.5276 22.918 15.6248C22.918 14.7221 22.6228 13.9755 22.0326 13.3853C21.4423 12.795 20.6957 12.4998 19.793 12.4998C18.8902 12.4998 18.1437 12.795 17.5534 13.3853C16.9631 13.9755 16.668 14.7221 16.668 15.6248C16.668 16.5276 16.9631 17.2741 17.5534 17.8644C18.1437 18.4547 18.8902 18.7498 19.793 18.7498ZM30.2096 18.7498C31.1124 18.7498 31.8589 18.4547 32.4492 17.8644C33.0395 17.2741 33.3346 16.5276 33.3346 15.6248C33.3346 14.7221 33.0395 13.9755 32.4492 13.3853C31.8589 12.795 31.1124 12.4998 30.2096 12.4998C29.3069 12.4998 28.5603 12.795 27.9701 13.3853C27.3798 13.9755 27.0846 14.7221 27.0846 15.6248C27.0846 16.5276 27.3798 17.2741 27.9701 17.8644C28.5603 18.4547 29.3069 18.7498 30.2096 18.7498ZM36.4596 27.0832C37.3624 27.0832 38.1089 26.788 38.6992 26.1978C39.2895 25.6075 39.5846 24.8609 39.5846 23.9582C39.5846 23.0554 39.2895 22.3089 38.6992 21.7186C38.1089 21.1283 37.3624 20.8332 36.4596 20.8332C35.5569 20.8332 34.8103 21.1283 34.2201 21.7186C33.6298 22.3089 33.3346 23.0554 33.3346 23.9582C33.3346 24.8609 33.6298 25.6075 34.2201 26.1978C34.8103 26.788 35.5569 27.0832 36.4596 27.0832ZM25.0013 41.6665C25.3138 41.6665 25.5659 41.5797 25.7576 41.4061C25.9492 41.2325 26.0444 41.0068 26.043 40.729C26.043 40.2429 25.7826 39.67 25.2617 39.0103C24.7409 38.3505 24.4805 37.3609 24.4805 36.0415C24.4805 34.5832 24.9839 33.42 25.9909 32.5519C26.9978 31.6839 28.2305 31.2498 29.6888 31.2498H33.3346C35.6263 31.2498 37.5881 30.5811 39.2201 29.2436C40.852 27.9061 41.668 25.8318 41.668 23.0207C41.668 18.8193 40.0617 15.3207 36.8492 12.5248C33.6367 9.729 29.8263 8.33178 25.418 8.33317C20.6957 8.33317 16.668 9.94775 13.3346 13.1769C10.0013 16.4061 8.33464 20.3471 8.33464 24.9998C8.33464 29.6179 9.95755 33.5505 13.2034 36.7978C16.4492 40.045 20.3819 41.6679 25.0013 41.6665Z" fill="white"/>
</g>
</svg>
