<svg width="20" height="19" viewBox="0 0 20 19" fill="none" xmlns="http://www.w3.org/2000/svg">
<path fill-rule="evenodd" clip-rule="evenodd" d="M18.1259 5.12166C18.3578 5.35353 18.3578 5.72947 18.1259 5.96135L10.2092 13.878C9.97736 14.1099 9.60142 14.1099 9.36954 13.878L8.87475 13.3832C8.64288 13.1514 8.64288 12.7754 8.87475 12.5435C9.10663 12.3117 9.48257 12.3117 9.71444 12.5435L9.78939 12.6185L17.2862 5.12166C17.5181 4.88979 17.894 4.88979 18.1259 5.12166ZM5.41121 9.07999C5.64308 8.84812 6.01903 8.84812 6.2509 9.07999L6.74569 9.57478C6.97756 9.80666 6.97756 10.1826 6.74569 10.4145C6.51382 10.6463 6.13788 10.6463 5.906 10.4145L5.41121 9.91968C5.17934 9.68781 5.17934 9.31187 5.41121 9.07999Z" fill="#1D5BFB"/>
<path fill-rule="evenodd" clip-rule="evenodd" d="M14.1669 5.12166C14.3988 5.35353 14.3988 5.72947 14.1669 5.96135L6.25025 13.878C6.01837 14.1099 5.64243 14.1099 5.41056 13.878L1.45223 9.91968C1.22035 9.68781 1.22035 9.31187 1.45223 9.07999C1.6841 8.84812 2.06004 8.84812 2.29191 9.07999L5.8304 12.6185L13.3272 5.12166C13.5591 4.88979 13.935 4.88979 14.1669 5.12166Z" fill="#1D5BFB"/>
</svg>
