<svg width="17" height="16" viewBox="0 0 17 16" fill="none" xmlns="http://www.w3.org/2000/svg">
<g clip-path="url(#clip0_812_16192)">
<path fill-rule="evenodd" clip-rule="evenodd" d="M11.8294 10.3185L16.1332 14.6223C16.2845 14.7737 16.3695 14.979 16.3694 15.193C16.3693 15.407 16.2842 15.6122 16.1328 15.7635C15.9815 15.9147 15.7762 15.9997 15.5622 15.9996C15.3482 15.9995 15.143 15.9144 14.9917 15.7631L10.6879 11.4593C9.40133 12.4558 7.78346 12.9247 6.16341 12.7707C4.54337 12.6167 3.04284 11.8513 1.96709 10.6302C0.891342 9.40911 0.321175 7.82408 0.372582 6.19754C0.423988 4.57101 1.09311 3.02514 2.24382 1.87443C3.39453 0.723722 4.94039 0.0546036 6.56693 0.00319691C8.19347 -0.0482098 9.7785 0.521957 10.9996 1.59771C12.2207 2.67346 12.9861 4.17398 13.1401 5.79403C13.2941 7.41407 12.8251 9.03194 11.8286 10.3185H11.8294ZM6.76968 11.1993C8.04266 11.1993 9.2635 10.6936 10.1636 9.79345C11.0638 8.89332 11.5695 7.67248 11.5695 6.3995C11.5695 5.12652 11.0638 3.90568 10.1636 3.00554C9.2635 2.10541 8.04266 1.59972 6.76968 1.59972C5.4967 1.59972 4.27586 2.10541 3.37573 3.00554C2.4756 3.90568 1.96991 5.12652 1.96991 6.3995C1.96991 7.67248 2.4756 8.89332 3.37573 9.79345C4.27586 10.6936 5.4967 11.1993 6.76968 11.1993Z" fill="black"/>
</g>
<defs>
<clipPath id="clip0_812_16192">
<rect width="16" height="16" fill="white" transform="translate(0.369385)"/>
</clipPath>
</defs>
</svg>
