<svg width="20" height="19" viewBox="0 0 20 19" fill="none" xmlns="http://www.w3.org/2000/svg">
<path fill-rule="evenodd" clip-rule="evenodd" d="M18.1249 5.12215C18.3568 5.35402 18.3568 5.72996 18.1249 5.96184L10.2083 13.8785C9.97638 14.1104 9.60044 14.1104 9.36857 13.8785L8.87378 13.3837C8.6419 13.1518 8.6419 12.7759 8.87378 12.544C9.10565 12.3121 9.48159 12.3121 9.71346 12.544L9.78841 12.619L17.2852 5.12215C17.5171 4.89027 17.893 4.89027 18.1249 5.12215ZM5.41023 9.08048C5.64211 8.84861 6.01805 8.84861 6.24992 9.08048L6.74471 9.57527C6.97659 9.80715 6.97659 10.1831 6.74471 10.415C6.51284 10.6468 6.1369 10.6468 5.90503 10.415L5.41023 9.92017C5.17836 9.6883 5.17836 9.31235 5.41023 9.08048Z" fill="#1D5BFB"/>
<path fill-rule="evenodd" clip-rule="evenodd" d="M14.1679 5.12215C14.3998 5.35402 14.3998 5.72996 14.1679 5.96184L6.25123 13.8785C6.01935 14.1104 5.64341 14.1104 5.41154 13.8785L1.4532 9.92017C1.22133 9.6883 1.22133 9.31235 1.4532 9.08048C1.68508 8.84861 2.06102 8.84861 2.29289 9.08048L5.83138 12.619L13.3282 5.12215C13.5601 4.89027 13.936 4.89027 14.1679 5.12215Z" fill="#1D5BFB"/>
</svg>
