<svg width="63" height="63" viewBox="0 0 63 63" fill="none" xmlns="http://www.w3.org/2000/svg">
<path fill-rule="evenodd" clip-rule="evenodd" d="M26.0916 5.8751C26.0916 4.81511 26.9509 3.95581 28.0109 3.95581H34.9902C36.0502 3.95581 36.9095 4.81511 36.9095 5.8751V10.452C38.9107 10.9658 40.8 11.7575 42.5335 12.7833L45.7712 9.5457C46.5207 8.79619 47.736 8.7962 48.4855 9.54572L53.4205 14.4807C54.17 15.2303 54.17 16.4455 53.4205 17.195L50.1829 20.4327C51.2087 22.1662 52.0005 24.0555 52.5142 26.0567H57.0911C58.1511 26.0567 59.0104 26.916 59.0104 27.976V34.9553C59.0104 36.0153 58.1511 36.8746 57.0911 36.8746H52.5142C52.0005 38.8758 51.2087 40.7651 50.1829 42.4986L53.4205 45.7363C54.17 46.4858 54.17 47.701 53.4205 48.4506L48.4855 53.3856C47.736 54.1351 46.5207 54.1351 45.7712 53.3856L42.5335 50.148C40.8 51.1738 38.9107 51.9656 36.9095 52.4793V57.0562C36.9095 58.1162 36.0502 58.9755 34.9902 58.9755H28.0109C26.9509 58.9755 26.0916 58.1162 26.0916 57.0562V52.4793C24.0904 51.9656 22.2011 51.1738 20.4676 50.148L17.2299 53.3856C16.4804 54.1351 15.2652 54.1351 14.5157 53.3856L9.58064 48.4506C8.83111 47.701 8.8311 46.4858 9.58061 45.7363L12.8182 42.4986C11.7925 40.7651 11.0007 38.8758 10.4869 36.8746H5.91001C4.85002 36.8746 3.99072 36.0153 3.99072 34.9553V27.976C3.99072 26.916 4.85002 26.0567 5.91001 26.0567H10.4869C11.0007 24.0555 11.7925 22.1662 12.8182 20.4327L9.58062 17.195C8.8311 16.4455 8.83111 15.2303 9.58063 14.4807L14.5157 9.54572C15.2652 8.7962 16.4804 8.79619 17.2299 9.5457L20.4676 12.7833C22.2011 11.7575 24.0904 10.9658 26.0916 10.452V5.8751ZM29.9302 7.79439V11.9981C29.9302 12.9283 29.2632 13.7246 28.3473 13.8876C25.7646 14.3475 23.3736 15.3631 21.3014 16.8079C20.5385 17.3398 19.5041 17.2483 18.8465 16.5907L15.8728 13.6171L13.652 15.8379L16.6256 18.8116C17.2832 19.4692 17.3747 20.5036 16.8428 21.2665C15.398 23.3387 14.3824 25.7297 13.9225 28.3124C13.7595 29.2282 12.9632 29.8953 12.033 29.8953H7.82931V33.036H12.033C12.9632 33.036 13.7595 33.7031 13.9225 34.6189C14.3824 37.2016 15.398 39.5926 16.8428 41.6649C17.3747 42.4277 17.2832 43.4621 16.6256 44.1197L13.652 47.0934L15.8728 49.3142L18.8465 46.3406C19.5041 45.683 20.5385 45.5915 21.3014 46.1234C23.3736 47.5683 25.7647 48.5838 28.3474 49.0437C29.2632 49.2068 29.9302 50.0031 29.9302 50.9333V55.1369H33.0709V50.9333C33.0709 50.0031 33.738 49.2068 34.6538 49.0437C37.2365 48.5838 39.6275 47.5683 41.6998 46.1234C42.4626 45.5915 43.497 45.683 44.1546 46.3406L47.1283 49.3142L49.3491 47.0934L46.3755 44.1197C45.7179 43.4621 45.6264 42.4277 46.1583 41.6649C47.6032 39.5926 48.6188 37.2016 49.0786 34.6189C49.2417 33.7031 50.038 33.036 50.9682 33.036H55.1718V29.8953H50.9682C50.038 29.8953 49.2417 29.2282 49.0786 28.3124C48.6188 25.7297 47.6032 23.3387 46.1583 21.2665C45.6264 20.5036 45.7179 19.4692 46.3755 18.8116L49.3491 15.8379L47.1283 13.6171L44.1546 16.5907C43.497 17.2483 42.4626 17.3398 41.6998 16.8079C39.6275 15.3631 37.2365 14.3475 34.6538 13.8876C33.738 13.7246 33.0709 12.9283 33.0709 11.9981V7.79439H29.9302Z" fill="white"/>
<path fill-rule="evenodd" clip-rule="evenodd" d="M23.1831 31.4659C23.1831 26.8726 26.9068 23.1489 31.5 23.1489C36.0933 23.1489 39.817 26.8726 39.817 31.4659C39.817 36.0591 36.0933 39.7828 31.5 39.7828C26.9068 39.7828 23.1831 36.0591 23.1831 31.4659ZM31.5 26.9875C29.0267 26.9875 27.0217 28.9926 27.0217 31.4659C27.0217 33.9391 29.0267 35.9442 31.5 35.9442C33.9733 35.9442 35.9784 33.9391 35.9784 31.4659C35.9784 28.9926 33.9733 26.9875 31.5 26.9875Z" fill="white"/>
</svg>
