<svg width="26" height="27" viewBox="0 0 26 27" fill="none" xmlns="http://www.w3.org/2000/svg">
<g clip-path="url(#clip0_839_3889)">
<path fill-rule="evenodd" clip-rule="evenodd" d="M7.33594 6.16667C7.33594 3.03706 9.87299 0.5 13.0026 0.5C16.1322 0.5 18.6693 3.03706 18.6693 6.16667C18.6693 9.29628 16.1322 11.8333 13.0026 11.8333C9.87299 11.8333 7.33594 9.29628 7.33594 6.16667ZM13.0026 2.5C10.9776 2.5 9.33594 4.14162 9.33594 6.16667C9.33594 8.19171 10.9776 9.83333 13.0026 9.83333C15.0277 9.83333 16.6693 8.19171 16.6693 6.16667C16.6693 4.14162 15.0277 2.5 13.0026 2.5Z" fill="white"/>
<path fill-rule="evenodd" clip-rule="evenodd" d="M9.48934 15.167H16.5107C17.9669 15.167 19.1208 15.167 20.051 15.243C21.0022 15.3207 21.807 15.4828 22.5419 15.8572C23.7336 16.4644 24.7025 17.4334 25.3097 18.6251C25.6842 19.36 25.8463 20.1648 25.924 21.116C26 22.0461 26 23.2001 26 24.6563V25.5003C26 26.0526 25.5523 26.5003 25 26.5003H1C0.447716 26.5003 3.11349e-07 26.0526 3.11349e-07 25.5003L1.52403e-07 24.6563C-7.47699e-06 23.2001 -1.35154e-05 22.0461 0.075984 21.116C0.153699 20.1648 0.315844 19.36 0.690294 18.6251C1.29748 17.4334 2.26636 16.4645 3.45808 15.8573C4.19297 15.4828 4.99782 15.3207 5.949 15.243C6.87916 15.167 8.03315 15.167 9.48934 15.167ZM4.36604 17.6393C3.55067 18.0547 2.88776 18.7177 2.47231 19.533C2.26546 19.939 2.13695 20.4513 2.06934 21.2788C2.00384 22.0805 2.00021 23.0949 2.00001 24.5003H24C23.9998 23.0949 23.9962 22.0805 23.9307 21.2788C23.8631 20.4514 23.7346 19.939 23.5277 19.5331C23.1123 18.7177 22.4493 18.0547 21.634 17.6393M4.36604 17.6393C4.772 17.4324 5.28436 17.3039 6.11185 17.2363C6.95103 17.1678 8.02337 17.167 9.53333 17.167H16.4667C17.9766 17.167 19.049 17.1678 19.8881 17.2363C20.7156 17.3039 21.228 17.4324 21.634 17.6393" fill="white"/>
</g>
<defs>
<clipPath id="clip0_839_3889">
<rect width="26" height="26" fill="white" transform="translate(0 0.5)"/>
</clipPath>
</defs>
</svg>
