<svg width="24" height="24" viewBox="0 0 24 24" fill="none" xmlns="http://www.w3.org/2000/svg">
<path d="M12 3H12.75C12.75 2.58579 12.4142 2.25 12 2.25V3ZM12 21V21.75C12.4142 21.75 12.75 21.4142 12.75 21H12ZM5.89925 16.4195L6.55145 16.0492C6.4182 15.8145 6.16913 15.6695 5.89925 15.6695V16.4195ZM5.89925 7.5054V8.2554C6.16722 8.2554 6.41483 8.11243 6.5488 7.88035L5.89925 7.5054ZM16.4995 6.94058C16.1906 6.66469 15.7165 6.69149 15.4406 7.00045C15.1647 7.30941 15.1915 7.78353 15.5005 8.05942L16.4995 6.94058ZM16.8421 8.4294L17.4477 7.98705L17.4477 7.98704L16.8421 8.4294ZM16.8609 15.5447L17.4689 15.9838L17.4689 15.9837L16.8609 15.5447ZM15.5005 15.9406C15.1915 16.2165 15.1647 16.6906 15.4406 16.9995C15.7165 17.3085 16.1906 17.3353 16.4995 17.0594L15.5005 15.9406ZM16.7335 19.9488C16.3778 20.1611 16.2616 20.6216 16.4739 20.9772C16.6862 21.3329 17.1466 21.4491 17.5023 21.2369L16.7335 19.9488ZM17.6481 2.85171C17.2958 2.6338 16.8336 2.7427 16.6157 3.09496C16.3978 3.44722 16.5067 3.90943 16.8589 4.12735L17.6481 2.85171ZM11.25 3V21H12.75V3H11.25ZM12 20.25C10.5697 20.25 9.23176 19.2996 8.18091 18.1933C7.67013 17.6555 7.25943 17.1147 6.97613 16.7072C6.83497 16.5041 6.72667 16.3359 6.65459 16.2201C6.61857 16.1622 6.59169 16.1176 6.57434 16.0883C6.56567 16.0737 6.55939 16.063 6.55556 16.0563C6.55364 16.053 6.55234 16.0508 6.55165 16.0496C6.55131 16.049 6.55112 16.0486 6.55108 16.0486C6.55107 16.0486 6.55109 16.0486 6.55115 16.0487C6.55118 16.0488 6.55126 16.0489 6.55127 16.0489C6.55136 16.0491 6.55145 16.0492 5.89925 16.4195C5.24705 16.7899 5.24716 16.7901 5.24729 16.7903C5.24734 16.7904 5.24748 16.7906 5.24759 16.7908C5.24781 16.7912 5.24807 16.7917 5.24837 16.7922C5.24897 16.7932 5.24973 16.7946 5.25065 16.7962C5.25249 16.7994 5.25497 16.8037 5.25808 16.809C5.2643 16.8198 5.27305 16.8347 5.28428 16.8537C5.30674 16.8915 5.33915 16.9453 5.38109 17.0127C5.46491 17.1473 5.58714 17.337 5.74448 17.5633C6.0582 18.0146 6.51643 18.6189 7.09334 19.2263C8.21786 20.4102 9.93033 21.75 12 21.75V20.25ZM5.89925 15.6695H3V17.1695H5.89925V15.6695ZM3 15.6695C2.86192 15.6695 2.75 15.5576 2.75 15.4195H1.25C1.25 16.3861 2.03351 17.1695 3 17.1695V15.6695ZM2.75 15.4195V8.5054H1.25V15.4195H2.75ZM2.75 8.5054C2.75 8.36732 2.86192 8.2554 3 8.2554V6.7554C2.03351 6.7554 1.25 7.53888 1.25 8.5054H2.75ZM3 8.2554H5.89925V6.7554H3V8.2554ZM5.89925 7.5054C6.5488 7.88035 6.5487 7.88052 6.54861 7.88067C6.5486 7.8807 6.54852 7.88083 6.54849 7.88089C6.54842 7.881 6.5484 7.88104 6.54841 7.88102C6.54844 7.88097 6.54862 7.88066 6.54896 7.88008C6.54963 7.87892 6.55093 7.87671 6.55283 7.87348C6.55664 7.86702 6.56289 7.85649 6.57154 7.84216C6.58883 7.81349 6.61567 7.76965 6.65162 7.71283C6.72359 7.59909 6.83176 7.43384 6.97279 7.23429C7.2558 6.83383 7.66619 6.30228 8.17663 5.77369C9.2257 4.68734 10.5648 3.75 12 3.75V2.25C9.93524 2.25 8.22393 3.56536 7.09762 4.73171C6.52037 5.32947 6.06182 5.92427 5.74782 6.36857C5.59034 6.59141 5.46799 6.77813 5.38405 6.91079C5.34206 6.97716 5.3096 7.03012 5.28709 7.06745C5.27583 7.08611 5.26705 7.10088 5.2608 7.11147C5.25768 7.11676 5.25519 7.12102 5.25334 7.12419C5.25241 7.12578 5.25165 7.1271 5.25104 7.12814C5.25074 7.12866 5.25047 7.12912 5.25025 7.1295C5.25014 7.12969 5.25 7.12993 5.24995 7.13003C5.24982 7.13025 5.2497 7.13045 5.89925 7.5054ZM15.5005 8.05942C15.7725 8.30239 16.0194 8.57472 16.2364 8.87176L17.4477 7.98704C17.1687 7.60498 16.8507 7.25411 16.4995 6.94058L15.5005 8.05942ZM16.2364 8.87175C16.8723 9.74238 17.25 10.8241 17.25 12H18.75C18.75 10.4982 18.2664 9.10802 17.4477 7.98705L16.2364 8.87175ZM17.25 12C17.25 13.1657 16.8788 14.2388 16.2529 15.1056L17.4689 15.9837C18.2747 14.8679 18.75 13.4888 18.75 12H17.25ZM16.2529 15.1055C16.032 15.4114 15.7795 15.6914 15.5005 15.9406L16.4995 17.0594C16.8596 16.7379 17.1848 16.3771 17.4689 15.9838L16.2529 15.1055ZM17.5023 21.2369C20.6435 19.3619 22.75 15.9273 22.75 12H21.25C21.25 15.3777 19.44 18.3334 16.7335 19.9488L17.5023 21.2369ZM22.75 12C22.75 8.13372 20.7084 4.74489 17.6481 2.85171L16.8589 4.12735C19.4958 5.75861 21.25 8.67478 21.25 12H22.75Z" fill="white"/>
</svg>
