<svg width="20" height="20" viewBox="0 0 20 20" fill="none" xmlns="http://www.w3.org/2000/svg">
<path d="M17.9577 7.74481C17.9074 7.5967 17.8149 7.46656 17.6915 7.37045C17.5681 7.27435 17.4192 7.21648 17.2633 7.20401L12.7025 6.8416L10.7289 2.47278C10.666 2.33207 10.5638 2.21255 10.4345 2.12866C10.3052 2.04477 10.1544 2.00008 10.0003 2C9.84622 1.99992 9.69537 2.04443 9.56601 2.12818C9.43664 2.21193 9.33427 2.33134 9.27126 2.47198L7.29765 6.8416L2.73683 7.20401C2.58359 7.21615 2.43709 7.27217 2.31487 7.36539C2.19264 7.45861 2.09986 7.58506 2.04762 7.72963C1.99538 7.8742 1.98589 8.03076 2.0203 8.18057C2.0547 8.33039 2.13154 8.46712 2.24162 8.57441L5.61204 11.86L4.42004 17.0217C4.38384 17.1779 4.39544 17.3414 4.45333 17.491C4.51122 17.6405 4.61273 17.7693 4.74468 17.8604C4.87663 17.9516 5.03293 18.001 5.19331 18.0022C5.35368 18.0034 5.51072 17.9564 5.64404 17.8673L10.0001 14.9633L14.3561 17.8673C14.4924 17.9577 14.6531 18.0043 14.8166 18.0007C14.9801 17.9972 15.1386 17.9436 15.2708 17.8472C15.403 17.7508 15.5025 17.6163 15.5559 17.4617C15.6093 17.3071 15.6142 17.1399 15.5697 16.9825L14.1065 11.8624L17.7353 8.59681C17.9729 8.38241 18.0601 8.04801 17.9577 7.74481Z" fill="white"/>
</svg>
