<svg width="20" height="20" viewBox="0 0 20 20" fill="none" xmlns="http://www.w3.org/2000/svg">
<g clip-path="url(#clip0_863_14567)">
<path d="M16.1666 15.0556C15.5555 15 14.9444 15.2222 14.4444 15.6667C13.8333 16.2778 12.8333 16.2778 12.1666 15.6667C11.6111 15.2778 11 15.0556 10.3333 15.0556C9.66664 15 8.99997 15.2222 8.49997 15.6667C8.16664 15.9444 7.77775 16.1111 7.33331 16.1111C6.88886 16.1111 6.49997 15.9444 6.16664 15.6667C5.61108 15.2222 4.94442 15 4.27775 15C3.61108 15 2.94442 15.2222 2.38886 15.6667C2.05553 15.9444 1.55553 16.1111 1.11108 16.1111V17.2222C1.83331 17.2778 2.55553 17.0556 3.11108 16.5556C3.44442 16.2778 3.94442 16.1111 4.38886 16.1111C4.77775 16.1111 5.2222 16.2778 5.55553 16.5556C6.55553 17.4444 8.11108 17.4444 9.16664 16.5556C9.49997 16.2778 9.88886 16.1111 10.3333 16.1111C10.7222 16.1111 11.1111 16.2778 11.4444 16.5556C12.5 17.4444 14 17.4444 15.0555 16.5556C15.3333 16.2778 15.7778 16.1111 16.1666 16.1111C16.5555 16.1111 16.9444 16.2778 17.2222 16.5556C17.7222 16.9444 18.2778 17.1667 18.8889 17.2222V16.1111C18.3333 16.1111 18.2222 15.8889 17.9444 15.6667C17.4444 15.2778 16.8333 15.0556 16.1666 15.0556Z" fill="white"/>
<path d="M3.33339 12.7778C3.33339 12.4444 3.61117 12.2222 3.9445 12.2222H17.7778L15.8334 13.9444H15.9445C16.3889 13.9444 16.8334 14.0555 17.1667 14.2222L18.5556 13L18.6667 12.8889C19.0556 12.4444 19.0001 11.7222 18.5556 11.3333C18.3334 11.2222 18.1112 11.1111 17.8334 11.1111H3.9445C3.00005 11.1111 2.27783 11.8333 2.27783 12.7778V14.5555C2.55561 14.2778 2.9445 14.1111 3.33339 13.9444V12.7778Z" fill="white"/>
<path d="M4.94435 10.5556H8.33324V6.22223C8.33324 5.88889 8.16657 5.55556 7.88879 5.33334C7.38879 4.94445 6.66657 5.05556 6.33324 5.55556L4.05546 8.83334C3.83324 9.16667 3.83324 9.61112 3.99991 10C4.16657 10.3333 4.55546 10.5556 4.94435 10.5556ZM7.27768 6.22223L7.22213 9.44445H4.94435L7.27768 6.22223Z" fill="white"/>
<path d="M14.4445 9.99999C14.6667 9.66665 14.6667 9.22221 14.4445 8.88888L10.9445 3.1111C10.7222 2.77776 10.3889 2.55554 10 2.55554C9.38892 2.55554 8.88892 3.05554 8.88892 3.66665V10.5555H13.5C13.8889 10.5555 14.2778 10.3333 14.4445 9.99999ZM9.94447 3.66665L13.5 9.49999H9.94447V3.66665Z" fill="white"/>
</g>
<defs>
<clipPath id="clip0_863_14567">
<rect width="20" height="20" fill="white"/>
</clipPath>
</defs>
</svg>
