<svg width="20" height="20" viewBox="0 0 20 20" fill="none" xmlns="http://www.w3.org/2000/svg">
<path d="M17.8216 2.12215C17.9051 2.19352 17.9633 2.29002 17.9875 2.39725C18.0117 2.50447 18.0006 2.61666 17.9559 2.71705C16.3994 6.2111 13.1309 11.0396 10.7383 13.5557C10.0676 14.2596 9.24052 14.795 8.32424 15.1184C8.30593 15.3496 8.26321 15.6664 8.16148 16.0026C7.957 16.6739 7.48295 17.5092 6.42396 17.7751C5.39837 18.0196 4.3355 18.0653 3.29277 17.9095C3.09887 17.8789 2.9077 17.8329 2.72105 17.772C2.54837 17.7194 2.38742 17.634 2.247 17.5204C2.1544 17.4415 2.08304 17.3407 2.03947 17.227C1.98547 17.0812 1.98692 16.9206 2.04354 16.7758C2.14018 16.5262 2.365 16.3887 2.51251 16.3153C2.91332 16.1146 3.14831 15.8539 3.39449 15.4739C3.49114 15.3272 3.58167 15.1713 3.68645 14.9931L3.80548 14.7914C3.95908 14.5316 4.13711 14.2413 4.36091 13.9275C4.89804 13.1747 5.58267 12.9853 6.13709 13.0148C6.26526 13.0219 6.38429 13.0403 6.4911 13.0637C6.55417 12.8885 6.63555 12.6766 6.73321 12.4444C6.99872 11.8138 7.40259 10.9989 7.94073 10.3367C10.1543 7.61687 14.2275 4.01484 17.2153 2.0814C17.3073 2.02195 17.416 1.9938 17.5252 2.00114C17.6344 2.00848 17.7384 2.05092 17.8216 2.12215ZM6.50941 14.1343C6.37442 14.0755 6.23013 14.041 6.08317 14.0325C5.83292 14.0192 5.50027 14.0834 5.18898 14.5204C4.98857 14.8005 4.82784 15.0623 4.68034 15.3119L4.57352 15.4922C4.46569 15.6766 4.35684 15.861 4.24799 16.0301C4.04197 16.3643 3.78051 16.661 3.47486 16.9072C4.17678 17.0213 5.24086 17.0202 6.17778 16.7849C6.74644 16.6433 7.03535 16.2053 7.18794 15.7051C7.2616 15.4566 7.30464 15.2001 7.31612 14.9411L6.50941 14.1343ZM7.9743 14.1608C8.09637 14.1201 8.25609 14.059 8.44021 13.9744C9.02623 13.7022 9.55594 13.322 10.0017 12.8539C11.9346 10.8206 14.49 7.17986 16.1583 4.0617C13.5236 6.02468 10.4961 8.80871 8.73014 10.9805C8.2805 11.5337 7.9214 12.2467 7.67013 12.8406C7.54704 13.134 7.45243 13.3907 7.39038 13.5741L7.9743 14.1608ZM2.91535 17.2576L2.92247 17.2525C2.92029 17.2542 2.91789 17.2565 2.91535 17.2576Z" fill="white"/>
</svg>
