<svg width="20" height="20" viewBox="0 0 20 20" fill="none" xmlns="http://www.w3.org/2000/svg">
<path d="M10.0001 18.3333C8.86119 18.3333 7.7848 18.1144 6.77092 17.6766C5.75703 17.2388 4.87147 16.6416 4.11425 15.885C3.35758 15.1283 2.76036 14.243 2.32258 13.2291C1.8848 12.2152 1.66619 11.1388 1.66675 9.99996C1.66675 8.84718 1.89258 7.76385 2.34425 6.74996C2.79592 5.73607 3.40703 4.85413 4.17758 4.10413C4.94814 3.35413 5.8473 2.76051 6.87508 2.32329C7.90286 1.88607 9.00008 1.66718 10.1667 1.66663C11.2779 1.66663 12.3265 1.85774 13.3126 2.23996C14.2987 2.62218 15.1634 3.14996 15.9067 3.82329C16.6495 4.49663 17.2398 5.29524 17.6776 6.21913C18.1154 7.14301 18.334 8.1394 18.3334 9.20829C18.3334 10.8055 17.8473 12.0313 16.8751 12.8858C15.9029 13.7402 14.7223 14.1672 13.3334 14.1666H11.7917C11.6667 14.1666 11.5798 14.2013 11.5309 14.2708C11.482 14.3402 11.4579 14.4166 11.4584 14.5C11.4584 14.6666 11.5626 14.9063 11.7709 15.2191C11.9792 15.5319 12.0834 15.8894 12.0834 16.2916C12.0834 16.9861 11.8923 17.5 11.5101 17.8333C11.1279 18.1666 10.6245 18.3333 10.0001 18.3333ZM5.41675 10.8333C5.77786 10.8333 6.07647 10.7152 6.31258 10.4791C6.54869 10.243 6.66675 9.9444 6.66675 9.58329C6.66675 9.22218 6.54869 8.92357 6.31258 8.68746C6.07647 8.45135 5.77786 8.33329 5.41675 8.33329C5.05564 8.33329 4.75703 8.45135 4.52092 8.68746C4.2848 8.92357 4.16675 9.22218 4.16675 9.58329C4.16675 9.9444 4.2848 10.243 4.52092 10.4791C4.75703 10.7152 5.05564 10.8333 5.41675 10.8333ZM7.91675 7.49996C8.27786 7.49996 8.57647 7.3819 8.81258 7.14579C9.04869 6.90968 9.16675 6.61107 9.16675 6.24996C9.16675 5.88885 9.04869 5.59024 8.81258 5.35413C8.57647 5.11802 8.27786 4.99996 7.91675 4.99996C7.55564 4.99996 7.25703 5.11802 7.02092 5.35413C6.7848 5.59024 6.66675 5.88885 6.66675 6.24996C6.66675 6.61107 6.7848 6.90968 7.02092 7.14579C7.25703 7.3819 7.55564 7.49996 7.91675 7.49996ZM12.0834 7.49996C12.4445 7.49996 12.7431 7.3819 12.9792 7.14579C13.2154 6.90968 13.3334 6.61107 13.3334 6.24996C13.3334 5.88885 13.2154 5.59024 12.9792 5.35413C12.7431 5.11802 12.4445 4.99996 12.0834 4.99996C11.7223 4.99996 11.4237 5.11802 11.1876 5.35413C10.9515 5.59024 10.8334 5.88885 10.8334 6.24996C10.8334 6.61107 10.9515 6.90968 11.1876 7.14579C11.4237 7.3819 11.7223 7.49996 12.0834 7.49996ZM14.5834 10.8333C14.9445 10.8333 15.2431 10.7152 15.4792 10.4791C15.7154 10.243 15.8334 9.9444 15.8334 9.58329C15.8334 9.22218 15.7154 8.92357 15.4792 8.68746C15.2431 8.45135 14.9445 8.33329 14.5834 8.33329C14.2223 8.33329 13.9237 8.45135 13.6876 8.68746C13.4515 8.92357 13.3334 9.22218 13.3334 9.58329C13.3334 9.9444 13.4515 10.243 13.6876 10.4791C13.9237 10.7152 14.2223 10.8333 14.5834 10.8333ZM10.0001 16.6666C10.1251 16.6666 10.2259 16.6319 10.3026 16.5625C10.3792 16.493 10.4173 16.4027 10.4167 16.2916C10.4167 16.0972 10.3126 15.868 10.1042 15.6041C9.89592 15.3402 9.79175 14.9444 9.79175 14.4166C9.79175 13.8333 9.99314 13.368 10.3959 13.0208C10.7987 12.6736 11.2917 12.5 11.8751 12.5H13.3334C14.2501 12.5 15.0348 12.2325 15.6876 11.6975C16.3404 11.1625 16.6667 10.3327 16.6667 9.20829C16.6667 7.52774 16.0242 6.12829 14.7392 5.00996C13.4542 3.89163 11.9301 3.33274 10.1667 3.33329C8.27786 3.33329 6.66675 3.97913 5.33342 5.27079C4.00008 6.56246 3.33342 8.13885 3.33342 9.99996C3.33342 11.8472 3.98258 13.4202 5.28092 14.7191C6.57925 16.018 8.1523 16.6672 10.0001 16.6666Z" fill="white"/>
</svg>
