<svg width="50" height="50" viewBox="0 0 50 50" fill="none" xmlns="http://www.w3.org/2000/svg">
<g id="brush">
<path id="Vector" d="M44.554 5.30536C44.7627 5.48379 44.9082 5.72506 44.9687 5.99312C45.0292 6.26118 45.0015 6.54165 44.8897 6.79263C40.9986 15.5277 32.8273 27.599 26.8456 33.8893C25.1691 35.649 23.1013 36.9875 20.8106 37.7959C20.7648 38.374 20.658 39.166 20.4037 40.0064C19.8925 41.6847 18.7074 43.773 16.0599 44.4377C13.4959 45.049 10.8387 45.1632 8.23191 44.7738C7.74718 44.6972 7.26926 44.5822 6.80263 44.43C6.37092 44.2985 5.96855 44.0849 5.6175 43.801C5.38599 43.6038 5.2076 43.3517 5.09868 43.0676C4.96369 42.703 4.96731 42.3014 5.10886 41.9394C5.35046 41.3154 5.91251 40.9716 6.28127 40.7883C7.2833 40.2866 7.87078 39.6346 8.48623 38.6847C8.72784 38.318 8.95418 37.9284 9.21613 37.4827L9.51369 36.9784C9.89771 36.329 10.3428 35.6032 10.9023 34.8189C12.2451 32.9369 13.9567 32.4632 15.3427 32.537C15.6632 32.5549 15.9607 32.6007 16.2277 32.6593C16.3854 32.2212 16.5889 31.6915 16.833 31.1109C17.4968 29.5345 18.5065 27.4971 19.8518 25.8418C25.3858 19.0422 35.5688 10.0371 43.0382 5.2035C43.2682 5.05487 43.5399 4.98451 43.813 5.00286C44.086 5.02121 44.3459 5.1273 44.554 5.30536ZM16.2735 35.3358C15.9361 35.1888 15.5753 35.1026 15.2079 35.0812C14.5823 35.0481 13.7507 35.2085 12.9724 36.301C12.4714 37.0014 12.0696 37.6559 11.7008 38.2798L11.4338 38.7306C11.1642 39.1915 10.8921 39.6525 10.62 40.0752C10.1049 40.9109 9.45127 41.6524 8.68715 42.2679C10.442 42.5531 13.1022 42.5506 15.4444 41.9623C16.8661 41.6083 17.5884 40.5132 17.9698 39.2628C18.154 38.6416 18.2616 38.0002 18.2903 37.3528L16.2735 35.3358ZM19.9357 35.402C20.2409 35.3002 20.6402 35.1474 21.1005 34.936C22.5656 34.2554 23.8898 33.3051 25.0044 32.1347C29.8364 27.0515 36.225 17.9496 40.3958 10.1542C33.8089 15.0617 26.2404 22.0218 21.8253 27.4513C20.7012 28.8342 19.8035 30.6168 19.1753 32.1015C18.8676 32.835 18.6311 33.4768 18.4759 33.9352L19.9357 35.402ZM7.28838 43.144L7.30619 43.1312C7.30072 43.1354 7.29474 43.1414 7.28838 43.144Z" fill="white"/>
</g>
</svg>
