<svg width="24" height="25" viewBox="0 0 24 25" fill="none" xmlns="http://www.w3.org/2000/svg">
<path d="M22.71 6.73141C22.617 6.63768 22.5064 6.56328 22.3846 6.51252C22.2627 6.46175 22.132 6.43561 22 6.43561C21.868 6.43561 21.7373 6.46175 21.6154 6.51252C21.4936 6.56328 21.383 6.63768 21.29 6.73141L20 8.03141V2.44141C20 2.17619 19.8946 1.92184 19.7071 1.7343C19.5196 1.54676 19.2652 1.44141 19 1.44141C18.7348 1.44141 18.4804 1.54676 18.2929 1.7343C18.1054 1.92184 18 2.17619 18 2.44141V8.03141L16.71 6.73141C16.5217 6.5431 16.2663 6.43731 16 6.43731C15.7337 6.43731 15.4783 6.5431 15.29 6.73141C15.1017 6.91971 14.9959 7.1751 14.9959 7.44141C14.9959 7.70771 15.1017 7.9631 15.29 8.15141L18.29 11.1514C18.3851 11.2424 18.4972 11.3138 18.62 11.3614C18.7397 11.4143 18.8691 11.4416 19 11.4416C19.1309 11.4416 19.2603 11.4143 19.38 11.3614C19.5028 11.3138 19.6149 11.2424 19.71 11.1514L22.71 8.15141C22.8037 8.05844 22.8781 7.94784 22.9289 7.82598C22.9797 7.70412 23.0058 7.57342 23.0058 7.44141C23.0058 7.30939 22.9797 7.17869 22.9289 7.05683C22.8781 6.93497 22.8037 6.82437 22.71 6.73141ZM19 13.4414C18.7348 13.4414 18.4804 13.5468 18.2929 13.7343C18.1054 13.9218 18 14.1762 18 14.4414V14.8214L16.52 13.3414C15.9974 12.823 15.2911 12.532 14.555 12.532C13.8189 12.532 13.1126 12.823 12.59 13.3414L11.89 14.0414L9.41 11.5614C8.88012 11.057 8.17657 10.7757 7.445 10.7757C6.71343 10.7757 6.00988 11.057 5.48 11.5614L4 13.0414V7.44141C4 7.17619 4.10536 6.92184 4.29289 6.7343C4.48043 6.54676 4.73478 6.44141 5 6.44141H13C13.2652 6.44141 13.5196 6.33605 13.7071 6.14851C13.8946 5.96098 14 5.70662 14 5.44141C14 5.17619 13.8946 4.92184 13.7071 4.7343C13.5196 4.54676 13.2652 4.44141 13 4.44141H5C4.20435 4.44141 3.44129 4.75748 2.87868 5.32009C2.31607 5.8827 2 6.64576 2 7.44141V19.4414C2 20.2371 2.31607 21.0001 2.87868 21.5627C3.44129 22.1253 4.20435 22.4414 5 22.4414H17C17.7956 22.4414 18.5587 22.1253 19.1213 21.5627C19.6839 21.0001 20 20.2371 20 19.4414V14.4414C20 14.1762 19.8946 13.9218 19.7071 13.7343C19.5196 13.5468 19.2652 13.4414 19 13.4414ZM5 20.4414C4.73478 20.4414 4.48043 20.3361 4.29289 20.1485C4.10536 19.961 4 19.7066 4 19.4414V15.8714L6.9 12.9714C7.04691 12.8314 7.24206 12.7533 7.445 12.7533C7.64794 12.7533 7.84309 12.8314 7.99 12.9714L11.16 16.1414L15.46 20.4414H5ZM18 19.4414C17.9986 19.6328 17.9354 19.8187 17.82 19.9714L13.31 15.4414L14.01 14.7414C14.0817 14.6682 14.1673 14.6101 14.2617 14.5704C14.3561 14.5307 14.4576 14.5103 14.56 14.5103C14.6624 14.5103 14.7639 14.5307 14.8583 14.5704C14.9527 14.6101 15.0383 14.6682 15.11 14.7414L18 17.6514V19.4414Z" fill="white"/>
</svg>
