<svg width="63" height="63" viewBox="0 0 63 63" fill="none" xmlns="http://www.w3.org/2000/svg">
<path fill-rule="evenodd" clip-rule="evenodd" d="M7.82861 54.4972C7.82861 53.4372 8.68791 52.5779 9.7479 52.5779H55.8109C56.8709 52.5779 57.7302 53.4372 57.7302 54.4972C57.7302 55.5572 56.8709 56.4165 55.8109 56.4165H9.7479C8.68791 56.4165 7.82861 55.5572 7.82861 54.4972Z" fill="white"/>
<path fill-rule="evenodd" clip-rule="evenodd" d="M41.3457 6.51489C41.855 6.5148 42.3434 6.71713 42.7035 7.07734L52.0503 16.4283C52.7994 17.1777 52.7994 18.3925 52.0503 19.1419L25.5861 45.6178C25.2261 45.9779 24.7378 46.1802 24.2286 46.1802H14.8661C13.8061 46.1802 12.9468 45.3209 12.9468 44.261V34.9459C12.9468 34.4372 13.1487 33.9494 13.5081 33.5895L39.9881 7.07785C40.348 6.71751 40.8364 6.51499 41.3457 6.51489ZM41.3465 11.1496L16.7854 35.7402V42.3417H23.4334L47.9791 17.7851L41.3465 11.1496Z" fill="white"/>
</svg>
