<svg width="50" height="50" viewBox="0 0 50 50" fill="none" xmlns="http://www.w3.org/2000/svg">
<g id="Edit/edit-two">
<path id="Vector (Stroke)" fill-rule="evenodd" clip-rule="evenodd" d="M8.33333 7.8125C8.04568 7.8125 7.8125 8.04568 7.8125 8.33333V41.6667C7.8125 41.9543 8.04567 42.1875 8.33333 42.1875H41.6667C41.9543 42.1875 42.1875 41.9543 42.1875 41.6667V27.0833C42.1875 26.2204 42.8871 25.5208 43.75 25.5208C44.6129 25.5208 45.3125 26.2204 45.3125 27.0833V41.6667C45.3125 43.6802 43.6802 45.3125 41.6667 45.3125H8.33333C6.31981 45.3125 4.6875 43.6802 4.6875 41.6667V8.33333C4.6875 6.31979 6.31979 4.6875 8.33333 4.6875H22.9167C23.7796 4.6875 24.4792 5.38706 24.4792 6.25C24.4792 7.11294 23.7796 7.8125 22.9167 7.8125H8.33333Z" fill="white"/>
<path id="Vector (Stroke)_2" fill-rule="evenodd" clip-rule="evenodd" d="M36.1391 4.6875C36.5538 4.68742 36.9514 4.85214 37.2445 5.14539L44.8538 12.758C45.4637 13.3681 45.4637 14.3571 44.8538 14.9672L23.3092 36.5213C23.0162 36.8145 22.6186 36.9792 22.2041 36.9792H14.582C13.7191 36.9792 13.0195 36.2796 13.0195 35.4167V27.8332C13.0195 27.4192 13.1839 27.022 13.4765 26.729L35.0339 5.14581C35.3269 4.85245 35.7245 4.68758 36.1391 4.6875ZM36.1398 8.46061L16.1445 28.4799V33.8542H21.5567L41.5395 13.8626L36.1398 8.46061Z" fill="white"/>
</g>
</svg>
