<svg width="22" height="22" viewBox="0 0 22 22" fill="none" xmlns="http://www.w3.org/2000/svg">
<path fill-rule="evenodd" clip-rule="evenodd" d="M5.04175 6.64575C5.42144 6.64575 5.72925 6.95356 5.72925 7.33325V19.2499C5.72925 19.6296 5.42144 19.9374 5.04175 19.9374C4.66205 19.9374 4.35425 19.6296 4.35425 19.2499V7.33325C4.35425 6.95356 4.66205 6.64575 5.04175 6.64575Z" fill="#E5580A"/>
<path fill-rule="evenodd" clip-rule="evenodd" d="M11 12.6042C11.3797 12.6042 11.6875 12.9121 11.6875 13.2917V19.2501C11.6875 19.6298 11.3797 19.9376 11 19.9376C10.6203 19.9376 10.3125 19.6298 10.3125 19.2501V13.2917C10.3125 12.9121 10.6203 12.6042 11 12.6042Z" fill="#E5580A"/>
<path fill-rule="evenodd" clip-rule="evenodd" d="M11 2.0625C11.3797 2.0625 11.6875 2.3703 11.6875 2.75V8.70833C11.6875 9.08803 11.3797 9.39583 11 9.39583C10.6203 9.39583 10.3125 9.08803 10.3125 8.70833V2.75C10.3125 2.3703 10.6203 2.0625 11 2.0625Z" fill="#E5580A"/>
<path fill-rule="evenodd" clip-rule="evenodd" d="M16.9583 2.0625C17.3379 2.0625 17.6458 2.3703 17.6458 2.75V14.6667C17.6458 15.0464 17.3379 15.3542 16.9583 15.3542C16.5786 15.3542 16.2708 15.0464 16.2708 14.6667V2.75C16.2708 2.3703 16.5786 2.0625 16.9583 2.0625Z" fill="#E5580A"/>
<path fill-rule="evenodd" clip-rule="evenodd" d="M2.0625 5.04167C2.0625 3.39632 3.39632 2.0625 5.04167 2.0625C6.687 2.0625 8.02083 3.39632 8.02083 5.04167C8.02083 6.687 6.687 8.02083 5.04167 8.02083C3.39632 8.02083 2.0625 6.687 2.0625 5.04167ZM5.04167 3.4375C4.15571 3.4375 3.4375 4.15571 3.4375 5.04167C3.4375 5.92761 4.15571 6.64583 5.04167 6.64583C5.92761 6.64583 6.64583 5.92761 6.64583 5.04167C6.64583 4.15571 5.92761 3.4375 5.04167 3.4375Z" fill="#E5580A"/>
<path fill-rule="evenodd" clip-rule="evenodd" d="M8.02075 10.9999C8.02075 9.35458 9.35458 8.02075 10.9999 8.02075C12.6453 8.02075 13.9791 9.35458 13.9791 10.9999C13.9791 12.6453 12.6453 13.9791 10.9999 13.9791C9.35458 13.9791 8.02075 12.6453 8.02075 10.9999ZM10.9999 9.39575C10.114 9.39575 9.39575 10.114 9.39575 10.9999C9.39575 11.8859 10.114 12.6041 10.9999 12.6041C11.8859 12.6041 12.6041 11.8859 12.6041 10.9999C12.6041 10.114 11.8859 9.39575 10.9999 9.39575Z" fill="#E5580A"/>
<path fill-rule="evenodd" clip-rule="evenodd" d="M13.9792 16.9584C13.9792 15.3131 15.3131 13.9792 16.9584 13.9792C18.6038 13.9792 19.9376 15.3131 19.9376 16.9584C19.9376 18.6038 18.6038 19.9376 16.9584 19.9376C15.3131 19.9376 13.9792 18.6038 13.9792 16.9584ZM16.9584 15.3542C16.0725 15.3542 15.3542 16.0725 15.3542 16.9584C15.3542 17.8444 16.0725 18.5626 16.9584 18.5626C17.8444 18.5626 18.5626 17.8444 18.5626 16.9584C18.5626 16.0725 17.8444 15.3542 16.9584 15.3542Z" fill="#E5580A"/>
</svg>
