<svg width="50" height="50" viewBox="0 0 50 50" fill="none" xmlns="http://www.w3.org/2000/svg">
<g id="Music/headset">
<path id="Vector (Stroke)" fill-rule="evenodd" clip-rule="evenodd" d="M4.6875 25.4807C4.6875 14.0345 13.7447 4.6875 25 4.6875C36.2553 4.6875 45.3125 14.0345 45.3125 25.4807V31.25C45.3125 32.1129 44.6129 32.8125 43.75 32.8125C42.8871 32.8125 42.1875 32.1129 42.1875 31.25V25.4807C42.1875 15.6853 34.4553 7.8125 25 7.8125C15.5447 7.8125 7.8125 15.6853 7.8125 25.4807V31.25C7.8125 32.1129 7.11294 32.8125 6.25 32.8125C5.38706 32.8125 4.6875 32.1129 4.6875 31.25V25.4807Z" fill="white"/>
<path id="Vector (Stroke)_2" fill-rule="evenodd" clip-rule="evenodd" d="M39.5846 30.729C38.1464 30.729 36.9805 31.895 36.9805 33.3332V39.5832C36.9805 41.0214 38.1464 42.1873 39.5846 42.1873H42.1888V30.729H39.5846ZM33.8555 33.3332C33.8555 30.1691 36.4205 27.604 39.5846 27.604H43.7513C44.6142 27.604 45.3138 28.3036 45.3138 29.1665V43.7498C45.3138 44.6128 44.6142 45.3123 43.7513 45.3123H39.5846C36.4205 45.3123 33.8555 42.7473 33.8555 39.5832V33.3332Z" fill="white"/>
<path id="Vector" d="M43.75 33.3335H45.8333C46.984 33.3335 47.9167 34.2662 47.9167 35.4168V37.5002C47.9167 38.6508 46.984 39.5835 45.8333 39.5835H43.75V33.3335Z" fill="white"/>
<path id="Vector_2" d="M6.2487 33.3335H4.16536C3.01477 33.3335 2.08203 34.2662 2.08203 35.4168V37.5002C2.08203 38.6508 3.01477 39.5835 4.16536 39.5835H6.2487V33.3335Z" fill="white"/>
<path id="Vector (Stroke)_3" fill-rule="evenodd" clip-rule="evenodd" d="M4.6875 29.1665C4.6875 28.3036 5.38706 27.604 6.25 27.604H10.4167C13.5808 27.604 16.1458 30.1691 16.1458 33.3332V39.5832C16.1458 42.7473 13.5808 45.3123 10.4167 45.3123H6.25C5.38706 45.3123 4.6875 44.6128 4.6875 43.7498V29.1665ZM7.8125 30.729V42.1873H10.4167C11.8549 42.1873 13.0208 41.0214 13.0208 39.5832V33.3332C13.0208 31.895 11.8549 30.729 10.4167 30.729H7.8125Z" fill="white"/>
</g>
</svg>
