<svg width="29" height="29" viewBox="0 0 29 29" fill="none" xmlns="http://www.w3.org/2000/svg">
<g id="Base/key">
<path id="Vector (Stroke)" d="M13.1873 15.3345C13.1967 15.3436 13.2063 15.3524 13.2161 15.361C14.4941 16.6396 14.9941 18.4964 14.5289 20.2389L14.5289 20.2389C14.0595 21.9974 12.6778 23.3739 10.9048 23.8422C9.13317 24.3102 7.24636 23.7984 5.9597 22.5037C4.03013 20.5126 4.05879 17.3525 6.02526 15.3963C7.99543 13.4365 11.183 13.4089 13.1873 15.3345ZM14.4016 13.988C11.6848 11.42 7.40212 11.4702 4.74702 14.1113L4.74701 14.1113C2.07588 16.7684 2.03825 21.0667 4.66269 23.7697L4.66266 23.7698L4.66948 23.7767C6.41378 25.5352 8.96993 26.228 11.3677 25.5946L11.3678 25.5946C13.7659 24.9611 15.6419 23.097 16.2801 20.7064C16.9184 18.3154 16.2193 15.7687 14.451 14.0331C14.435 14.0173 14.4185 14.0023 14.4016 13.988ZM15.4045 20.4726L16.2801 20.7064L15.4045 20.4726Z" fill="#FD8949"/>
<path id="Vector (Stroke)_2" d="M24.8081 3.58868C25.162 3.94259 25.162 4.51639 24.8081 4.87031L14.5373 15.1411C14.1834 15.4951 13.6096 15.4951 13.2557 15.1411C12.9018 14.7872 12.9018 14.2134 13.2557 13.8595L23.5265 3.58868C23.8804 3.23476 24.4542 3.23476 24.8081 3.58868Z" fill="#FD8949"/>
<path id="Vector (Stroke)_3" d="M21.4958 5.76179C21.8494 5.41013 22.4206 5.41013 22.7741 5.76179L26.0539 9.02429C26.2249 9.19438 26.321 9.42562 26.321 9.6668C26.321 9.90798 26.2249 10.1392 26.0539 10.3093L22.2274 14.1156C21.8739 14.4672 21.3027 14.4672 20.9492 14.1155L17.6695 10.853C17.4985 10.683 17.4023 10.4517 17.4023 10.2105C17.4023 9.96937 17.4985 9.73813 17.6695 9.56804L21.4958 5.76179ZM22.135 7.68256L19.5936 10.2105L21.5883 12.1948L24.1297 9.6668L22.135 7.68256Z" fill="#FD8949"/>
</g>
</svg>
