<svg width="50" height="50" viewBox="0 0 50 50" fill="none" xmlns="http://www.w3.org/2000/svg">
<g id="Others/leaf">
<path id="Vector (Stroke)" fill-rule="evenodd" clip-rule="evenodd" d="M25.645 2.74418L24.9987 4.16675L24.475 2.69464C24.8567 2.55884 25.2762 2.57661 25.645 2.74418ZM24.9987 45.8334C24.475 47.3055 24.4742 47.3052 24.4733 47.3049L24.4713 47.3042L24.4664 47.3025L24.4529 47.2976L24.4114 47.2822C24.3774 47.2694 24.3307 47.2516 24.2723 47.2285C24.1556 47.1824 23.9916 47.1152 23.7873 47.0252C23.3787 46.8453 22.8071 46.574 22.1268 46.1978C20.7686 45.4469 18.962 44.27 17.1534 42.5571C13.5123 39.1085 9.89453 33.5083 9.89453 25.0001C9.89453 16.4918 13.5123 10.8917 17.1534 7.44311C18.962 5.73019 20.7686 4.55329 22.1268 3.80234C22.8071 3.42619 23.3787 3.15484 23.7873 2.97499C23.9916 2.88501 24.1556 2.81777 24.2723 2.77162C24.3307 2.74854 24.3774 2.73073 24.4114 2.71797L24.4529 2.70259L24.4664 2.6977L24.4713 2.69594L24.4733 2.69523C24.4742 2.69492 24.475 2.69464 24.9987 4.16675C25.645 2.74418 25.6457 2.74449 25.6464 2.74482L25.6481 2.74561L25.6525 2.7476L25.6649 2.75333L25.7043 2.77173C25.7368 2.7871 25.782 2.80869 25.8388 2.83657C25.9525 2.89233 26.1132 2.97334 26.3142 3.08021C26.7159 3.29383 27.2799 3.61153 27.9522 4.03842C29.2942 4.89059 31.0817 6.18697 32.8724 7.9712C36.4594 11.5453 40.1029 17.1295 40.1029 25.0001C40.1029 32.8707 36.4594 38.4549 32.8724 42.029C31.0817 43.8132 29.2942 45.1096 27.9522 45.9618C27.2799 46.3886 26.7159 46.7063 26.3142 46.92C26.1132 47.0268 25.9525 47.1078 25.8388 47.1636C25.782 47.1915 25.7368 47.2131 25.7043 47.2284L25.6649 47.2468L25.6525 47.2526L25.6481 47.2546L25.6464 47.2553C25.6457 47.2557 25.645 47.256 24.9987 45.8334ZM24.9987 45.8334L24.475 47.3055C24.8567 47.4413 25.2762 47.4236 25.645 47.256L24.9987 45.8334ZM24.9332 44.1146C25.2673 43.9345 25.7286 43.672 26.277 43.3237C27.4741 42.5635 29.0719 41.4043 30.6667 39.8153C33.8505 36.643 36.9779 31.8105 36.9779 25.0001C36.9779 18.1897 33.8505 13.3572 30.6667 10.1849C29.0719 8.59591 27.4741 7.43664 26.277 6.67647C25.7286 6.32821 25.2673 6.06564 24.9332 5.88554C24.6078 6.03223 24.1642 6.24669 23.6388 6.53718C22.458 7.19004 20.8792 8.21854 19.3023 9.712C16.1726 12.6762 13.0195 17.4927 13.0195 25.0001C13.0195 32.5075 16.1726 37.324 19.3023 40.2882C20.8792 41.7816 22.458 42.8101 23.6388 43.463C24.1642 43.7535 24.6078 43.9679 24.9332 44.1146Z" fill="white"/>
<path id="Vector (Stroke)_2" fill-rule="evenodd" clip-rule="evenodd" d="M31.3132 31.1869C31.9234 31.7971 31.9234 32.7864 31.3132 33.3966L26.1049 38.6049C25.4947 39.2151 24.5053 39.2151 23.8951 38.6049C23.285 37.9947 23.285 37.0054 23.8951 36.3952L29.1035 31.1869C29.7137 30.5767 30.703 30.5767 31.3132 31.1869Z" fill="white"/>
<path id="Vector (Stroke)_3" fill-rule="evenodd" clip-rule="evenodd" d="M18.6881 23.8951C19.2983 23.285 20.2876 23.285 20.8978 23.8951L26.1062 29.1035C26.7164 29.7137 26.7164 30.703 26.1062 31.3132C25.496 31.9234 24.5066 31.9234 23.8964 31.3132L18.6881 26.1049C18.0779 25.4947 18.0779 24.5053 18.6881 23.8951Z" fill="white"/>
<path id="Vector (Stroke)_4" fill-rule="evenodd" clip-rule="evenodd" d="M31.3132 17.6451C31.9234 18.2553 31.9234 19.2447 31.3132 19.8549L26.1049 25.0632C25.4947 25.6734 24.5053 25.6734 23.8951 25.0632C23.285 24.453 23.285 23.4637 23.8951 22.8535L29.1035 17.6451C29.7137 17.035 30.703 17.035 31.3132 17.6451Z" fill="white"/>
<path id="Vector (Stroke)_5" fill-rule="evenodd" clip-rule="evenodd" d="M25 13.0208C25.8629 13.0208 26.5625 13.7203 26.5625 14.5833V45.8333C26.5625 46.6962 25.8629 47.3958 25 47.3958C24.1371 47.3958 23.4375 46.6962 23.4375 45.8333V14.5833C23.4375 13.7203 24.1371 13.0208 25 13.0208Z" fill="white"/>
</g>
</svg>
