<svg width="50" height="50" viewBox="0 0 50 50" fill="none" xmlns="http://www.w3.org/2000/svg">
<path fill-rule="evenodd" clip-rule="evenodd" d="M18.4063 3.44149C18.6759 2.92662 19.2091 2.604 19.7904 2.604H38.5404C39.1385 2.604 39.6842 2.94549 39.9457 3.48348C40.2071 4.02146 40.1385 4.66151 39.769 5.13185L30.2968 17.1873H42.707C43.3276 17.1873 43.8894 17.5546 44.1384 18.1232C44.3873 18.6917 44.2761 19.3536 43.8552 19.8096L18.8552 46.893C18.3685 47.4202 17.5853 47.5482 16.956 47.2034C16.3268 46.8585 16.0134 46.1294 16.196 45.4355L20.8885 27.604H8.33203C7.78526 27.604 7.27826 27.3182 6.9952 26.8504C6.71214 26.3826 6.69421 25.8008 6.94792 25.3165L18.4063 3.44149ZM20.7358 5.729L10.9144 24.479H22.9154C23.3999 24.479 23.857 24.7038 24.1528 25.0875C24.4487 25.4713 24.5497 25.9706 24.4264 26.4391L20.815 40.1626L39.1383 20.3123H27.082C26.4839 20.3123 25.9382 19.9708 25.6767 19.4329C25.4152 18.8949 25.4839 18.2548 25.8534 17.7845L35.3256 5.729H20.7358Z" fill="white"/>
</svg>
