<svg width="38" height="37" viewBox="0 0 38 37" fill="none" xmlns="http://www.w3.org/2000/svg">
<path fill-rule="evenodd" clip-rule="evenodd" d="M13.3731 7.64545C11.1154 5.3877 7.45493 5.38773 5.19718 7.64545L6.01309 8.46136L5.19718 7.64545C2.93949 9.90314 2.93951 13.5636 5.19716 15.8214L5.19718 15.8214L18.8237 29.4479C21.9845 32.6087 27.1092 32.6087 30.27 29.4479L29.4524 28.6303L30.27 29.4479C33.4308 26.2871 33.4308 21.1624 30.27 18.0016L18.8238 6.55531C18.3722 6.10376 17.6401 6.10376 17.1886 6.55531C16.737 7.00685 16.737 7.73895 17.1886 8.19049L28.6348 19.6368L29.4524 18.8192L28.6348 19.6368C30.8926 21.8945 30.8926 25.555 28.6348 27.8127L29.4381 28.6159L28.6348 27.8127C26.3771 30.0704 22.7166 30.0704 20.4589 27.8127L19.6958 28.5758L20.4589 27.8127L6.83238 14.1862C6.83237 14.1862 6.83237 14.1862 6.83236 14.1862C5.47775 12.8315 5.47778 10.6352 6.83236 9.28064C8.18704 7.92597 10.3833 7.926 11.7379 9.28062L11.7379 9.28064L25.3645 22.9071C25.816 23.3587 25.816 24.0908 25.3645 24.5424C24.9129 24.9939 24.1808 24.9939 23.7293 24.5424L12.283 13.096C11.8315 12.6445 11.0994 12.6445 10.6478 13.096C10.1963 13.5476 10.1963 14.2796 10.6478 14.7312L22.0941 26.1775C23.4487 27.5322 25.645 27.5322 26.9997 26.1775L26.9997 26.1775C28.3542 24.8229 28.3542 22.6266 26.9997 21.272L26.9997 21.2719L13.3731 7.64546C13.3731 7.64546 13.3731 7.64545 13.3731 7.64545Z" fill="white" fill-opacity="0.72"/>
</svg>
