<svg width="38" height="32" viewBox="0 0 38 32" fill="none" xmlns="http://www.w3.org/2000/svg">
<path fill-rule="evenodd" clip-rule="evenodd" d="M1.97852 6C1.97852 5.44772 2.51018 5 3.16602 5H34.8327C35.4885 5 36.0202 5.44772 36.0202 6V26C36.0202 26.5523 35.4885 27 34.8327 27H3.16602C2.51018 27 1.97852 26.5523 1.97852 26V6ZM4.35352 7V25H33.6452V7H4.35352Z" fill="#FD8949"/>
<path fill-rule="evenodd" clip-rule="evenodd" d="M2.21609 5.40006C2.60959 4.95823 3.35392 4.86869 3.87859 5.20006L18.9994 14.7501L34.1203 5.20006C34.6449 4.86869 35.3892 4.95823 35.7828 5.40006C36.1763 5.84189 36.0699 6.46869 35.5453 6.80006L19.7119 16.8001C19.2897 17.0667 18.7091 17.0667 18.2869 16.8001L2.45359 6.80006C1.92891 6.46869 1.82258 5.84189 2.21609 5.40006Z" fill="#FD8949"/>
<path fill-rule="evenodd" clip-rule="evenodd" d="M1.97852 6C1.97852 5.44772 2.51018 5 3.16602 5H18.9993C19.6552 5 20.1868 5.44772 20.1868 6C20.1868 6.55228 19.6552 7 18.9993 7H4.35352V16C4.35352 16.5523 3.82185 17 3.16602 17C2.51018 17 1.97852 16.5523 1.97852 16V6Z" fill="#FD8949"/>
<path fill-rule="evenodd" clip-rule="evenodd" d="M17.8125 6C17.8125 5.44772 18.3442 5 19 5H34.8333C35.4892 5 36.0208 5.44772 36.0208 6V16C36.0208 16.5523 35.4892 17 34.8333 17C34.1775 17 33.6458 16.5523 33.6458 16V7H19C18.3442 7 17.8125 6.55228 17.8125 6Z" fill="#FD8949"/>
</svg>
