<svg width="50" height="50" viewBox="0 0 50 50" fill="none" xmlns="http://www.w3.org/2000/svg">
<g id="Base/mail-edit">
<path id="Vector (Stroke)" fill-rule="evenodd" clip-rule="evenodd" d="M2.60547 9.375C2.60547 8.51206 3.30502 7.8125 4.16797 7.8125H45.8346C46.6976 7.8125 47.3971 8.51206 47.3971 9.375V25C47.3971 25.8629 46.6976 26.5625 45.8346 26.5625C44.9717 26.5625 44.2721 25.8629 44.2721 25V10.9375H5.73047V39.0625H25.0013C25.8642 39.0625 26.5638 39.7621 26.5638 40.625C26.5638 41.4879 25.8642 42.1875 25.0013 42.1875H4.16797C3.30502 42.1875 2.60547 41.4879 2.60547 40.625V9.375Z" fill="white"/>
<path id="Vector (Stroke)_2" fill-rule="evenodd" clip-rule="evenodd" d="M39.5974 27.9909C40.2165 27.4492 41.1495 27.4802 41.7312 28.0619L45.8978 32.2286C46.2036 32.5344 46.369 32.9532 46.3546 33.3854C46.3402 33.8176 46.1473 34.2245 45.8219 34.5093L37.4885 41.801C37.2037 42.0502 36.8381 42.1876 36.4596 42.1876H32.293C31.43 42.1876 30.7305 41.488 30.7305 40.6251V36.4584C30.7305 36.0079 30.925 35.5792 31.2641 35.2825L39.5974 27.9909ZM33.8555 37.1674V39.0626H35.8725L42.5071 33.2573L40.5551 31.3053L33.8555 37.1674Z" fill="white"/>
<path id="Vector (Stroke)_3" fill-rule="evenodd" clip-rule="evenodd" d="M2.91806 8.43759C3.43583 7.74724 4.4152 7.60733 5.10556 8.12509L25.0014 23.047L44.8972 8.12509C45.5876 7.60733 46.567 7.74724 47.0847 8.43759C47.6025 9.12795 47.4626 10.1073 46.7722 10.6251L25.9389 26.2501C25.3833 26.6668 24.6194 26.6668 24.0639 26.2501L3.23056 10.6251C2.5402 10.1073 2.40029 9.12795 2.91806 8.43759Z" fill="white"/>
</g>
</svg>
