<svg width="38" height="37" viewBox="0 0 38 37" fill="none" xmlns="http://www.w3.org/2000/svg">
<path fill-rule="evenodd" clip-rule="evenodd" d="M33.3702 5.49995C33.6241 5.85943 33.6519 6.33188 33.442 6.71866L18.7961 33.6978C18.5545 34.143 18.0513 34.379 17.5545 34.2802C17.0577 34.1815 16.6831 33.7709 16.63 33.2672L15.1494 19.2012L2.54765 11.7845C2.12695 11.5369 1.90707 11.0518 1.99818 10.5722C2.08929 10.0926 2.47175 9.72196 2.95393 9.64589L32.2456 5.0249C32.6803 4.95632 33.1163 5.14048 33.3702 5.49995ZM30.292 7.6742L6.50031 11.4275L16.8247 17.5039C17.1407 17.6899 17.3498 18.0147 17.3882 18.3793L18.5401 29.3224L30.292 7.6742Z" fill="#C6BFCA"/>
</svg>
