<svg width="50" height="50" viewBox="0 0 50 50" fill="none" xmlns="http://www.w3.org/2000/svg">
<path fill-rule="evenodd" clip-rule="evenodd" d="M3.64453 19.7915C3.64453 18.9286 4.34409 18.229 5.20703 18.229H44.7904C45.6533 18.229 46.3529 18.9286 46.3529 19.7915V42.7082C46.3529 44.7217 44.7206 46.354 42.707 46.354H7.29036C5.27684 46.354 3.64453 44.7218 3.64453 42.7082V19.7915ZM6.76953 21.354V42.7082C6.76953 42.9958 7.0027 43.229 7.29036 43.229H42.707C42.9947 43.229 43.2279 42.9959 43.2279 42.7082V21.354H6.76953Z" fill="white"/>
<path fill-rule="evenodd" clip-rule="evenodd" d="M7.29036 9.896C7.00272 9.896 6.76953 10.1292 6.76953 10.4168V18.2293H43.2279V10.4168C43.2279 10.1292 42.9947 9.896 42.707 9.896H7.29036ZM3.64453 10.4168C3.64453 8.40329 5.27683 6.771 7.29036 6.771H42.707C44.7206 6.771 46.3529 8.40331 46.3529 10.4168V19.7918C46.3529 20.6548 45.6533 21.3543 44.7904 21.3543H5.20703C4.34409 21.3543 3.64453 20.6548 3.64453 19.7918V10.4168Z" fill="white"/>
<path fill-rule="evenodd" clip-rule="evenodd" d="M36.5228 24.9366C37.133 25.5468 37.133 26.5362 36.5228 27.1464L24.0228 39.6464C23.4126 40.2566 22.4233 40.2566 21.8131 39.6464L15.5631 33.3964C14.9529 32.7862 14.9529 31.7968 15.5631 31.1866C16.1733 30.5765 17.1626 30.5765 17.7728 31.1866L22.918 36.3318L34.3131 24.9366C34.9233 24.3265 35.9126 24.3265 36.5228 24.9366Z" fill="white"/>
<path fill-rule="evenodd" clip-rule="evenodd" d="M16.668 3.646C17.5309 3.646 18.2305 4.34555 18.2305 5.2085V13.5418C18.2305 14.4048 17.5309 15.1043 16.668 15.1043C15.805 15.1043 15.1055 14.4048 15.1055 13.5418V5.2085C15.1055 4.34555 15.805 3.646 16.668 3.646Z" fill="white"/>
<path fill-rule="evenodd" clip-rule="evenodd" d="M33.332 3.646C34.195 3.646 34.8945 4.34555 34.8945 5.2085V13.5418C34.8945 14.4048 34.195 15.1043 33.332 15.1043C32.4691 15.1043 31.7695 14.4048 31.7695 13.5418V5.2085C31.7695 4.34555 32.4691 3.646 33.332 3.646Z" fill="white"/>
</svg>
