<svg width="50" height="50" viewBox="0 0 50 50" fill="none" xmlns="http://www.w3.org/2000/svg">
<path fill-rule="evenodd" clip-rule="evenodd" d="M4.6875 30.2085C4.6875 29.3456 5.38706 28.646 6.25 28.646H20.8333C21.6963 28.646 22.3958 29.3456 22.3958 30.2085V44.7918C22.3958 45.6548 21.6963 46.3543 20.8333 46.3543H6.25C5.38706 46.3543 4.6875 45.6548 4.6875 44.7918V30.2085ZM7.8125 31.771V43.2293H19.2708V31.771H7.8125Z" fill="white"/>
<path fill-rule="evenodd" clip-rule="evenodd" d="M24.9987 2.604C25.5524 2.604 26.0647 2.89704 26.3455 3.37429L36.7621 21.0826C37.0463 21.5657 37.05 22.164 36.7717 22.6506C36.4934 23.1371 35.9759 23.4373 35.4154 23.4373H14.582C14.0215 23.4373 13.504 23.1371 13.2257 22.6506C12.9474 22.164 12.9511 21.5657 13.2353 21.0826L23.6519 3.37429C23.9327 2.89704 24.445 2.604 24.9987 2.604ZM17.3139 20.3123H32.6835L24.9987 7.24824L17.3139 20.3123Z" fill="white"/>
<path fill-rule="evenodd" clip-rule="evenodd" d="M37.5013 30.729C33.7619 30.729 30.7305 33.7604 30.7305 37.4998C30.7305 41.2393 33.7619 44.2707 37.5013 44.2707C41.2407 44.2707 44.2721 41.2393 44.2721 37.4998C44.2721 33.7604 41.2407 30.729 37.5013 30.729ZM27.6055 37.4998C27.6055 32.0345 32.036 27.604 37.5013 27.604C42.9666 27.604 47.3971 32.0345 47.3971 37.4998C47.3971 42.9652 42.9666 47.3957 37.5013 47.3957C32.036 47.3957 27.6055 42.9652 27.6055 37.4998Z" fill="white"/>
</svg>
