<svg width="39" height="39" viewBox="0 0 39 39" fill="none" xmlns="http://www.w3.org/2000/svg">
<path fill-rule="evenodd" clip-rule="evenodd" d="M2.03125 19.5C2.03125 9.85227 9.85227 2.03125 19.5 2.03125C29.1477 2.03125 36.9688 9.85227 36.9688 19.5C36.9688 29.1477 29.1477 36.9688 19.5 36.9688C9.85227 36.9688 2.03125 29.1477 2.03125 19.5ZM19.5 4.46875C11.1985 4.46875 4.46875 11.1985 4.46875 19.5C4.46875 27.8015 11.1985 34.5312 19.5 34.5312C27.8015 34.5312 34.5312 27.8015 34.5312 19.5C34.5312 11.1985 27.8015 4.46875 19.5 4.46875Z" fill="#FD8949"/>
<path fill-rule="evenodd" clip-rule="evenodd" d="M14.2188 14.625C14.2188 11.7083 16.5833 9.34375 19.5 9.34375C22.4167 9.34375 24.7812 11.7083 24.7812 14.625C24.7812 17.5417 22.4167 19.9062 19.5 19.9062C16.5833 19.9062 14.2188 17.5417 14.2188 14.625ZM19.5 11.7812C17.9295 11.7812 16.6562 13.0545 16.6562 14.625C16.6562 16.1955 17.9295 17.4688 19.5 17.4688C21.0705 17.4688 22.3438 16.1955 22.3438 14.625C22.3438 13.0545 21.0705 11.7812 19.5 11.7812Z" fill="#FD8949"/>
<path fill-rule="evenodd" clip-rule="evenodd" d="M16.2497 24.7812C12.591 24.7812 9.59602 27.627 9.35873 31.225C9.31444 31.8966 8.73406 32.4052 8.06242 32.3609C7.39078 32.3166 6.88222 31.7362 6.92652 31.0645C7.24774 26.194 11.2986 22.3438 16.2497 22.3438H22.7497C27.6944 22.3438 31.7411 26.1838 32.0718 31.0452C32.1174 31.7168 31.6101 32.2982 30.9385 32.3439C30.267 32.3895 29.6856 31.8822 29.6399 31.2106C29.3956 27.6195 26.4036 24.7812 22.7497 24.7812H16.2497Z" fill="#FD8949"/>
</svg>
