<svg width="50" height="50" viewBox="0 0 50 50" fill="none" xmlns="http://www.w3.org/2000/svg">
<g id="Music/voice">
<path id="Vector (Stroke)" fill-rule="evenodd" clip-rule="evenodd" d="M24.9987 5.729C21.8346 5.729 19.2695 8.29404 19.2695 11.4582V24.9998C19.2695 28.164 21.8346 30.729 24.9987 30.729C28.1628 30.729 30.7279 28.164 30.7279 24.9998V11.4582C30.7279 8.29404 28.1628 5.729 24.9987 5.729ZM16.1445 11.4582C16.1445 6.56815 20.1087 2.604 24.9987 2.604C29.8887 2.604 33.8529 6.56815 33.8529 11.4582V24.9998C33.8529 29.8899 29.8887 33.854 24.9987 33.854C20.1087 33.854 16.1445 29.8899 16.1445 24.9998V11.4582Z" fill="white"/>
<path id="Vector (Stroke)_2" fill-rule="evenodd" clip-rule="evenodd" d="M9.375 22.396C10.2379 22.396 10.9375 23.0956 10.9375 23.9585C10.9375 31.725 17.2335 38.021 25 38.021C32.7665 38.021 39.0625 31.725 39.0625 23.9585C39.0625 23.0956 39.7621 22.396 40.625 22.396C41.4879 22.396 42.1875 23.0956 42.1875 23.9585C42.1875 33.4509 34.4924 41.146 25 41.146C15.5076 41.146 7.8125 33.4509 7.8125 23.9585C7.8125 23.0956 8.51206 22.396 9.375 22.396Z" fill="white"/>
<path id="Vector (Stroke)_3" fill-rule="evenodd" clip-rule="evenodd" d="M25 38.021C25.8629 38.021 26.5625 38.7206 26.5625 39.5835V45.8335C26.5625 46.6964 25.8629 47.396 25 47.396C24.1371 47.396 23.4375 46.6964 23.4375 45.8335V39.5835C23.4375 38.7206 24.1371 38.021 25 38.021Z" fill="white"/>
</g>
</svg>
