<svg width="22" height="22" viewBox="0 0 22 22" fill="none" xmlns="http://www.w3.org/2000/svg">
<path d="M9.27666 1.08671L9 1H8.81556L8.51585 1.08671L8.26225 1.30347L8.10086 1.60694L7.98559 1.93208L7.82421 2.2789L7.61671 2.75578L7.38617 3.29769L7.13256 3.75289L6.90202 4.18642L6.64841 4.59827L6.37176 4.96676L6.02594 5.33526L5.49568 5.83382L5.03458 6.18064L4.50432 6.54913L3.99712 6.83092L3.25937 7.15607L2.54467 7.43786L1.99135 7.65462L1.5072 7.87139L1.16138 8.1315L1 8.5V8.91185L1.23055 9.23699L1.59942 9.4104L2.06052 9.60549L2.54467 9.7789L3.1902 10.0824L3.74352 10.3208L4.31988 10.6026L4.82709 10.9061L5.31124 11.2312L6.02594 11.8598L6.57925 12.5101L7.04035 13.1604L7.38617 13.8107L7.73199 14.5694L8.00865 15.1329L8.21614 15.5448L8.37752 15.8049L8.70029 16H9.04611L9.41499 15.8916L9.7147 15.6315L10.0144 14.9379L10.3602 14.1792L10.6369 13.5723L10.9366 13.0087L11.3516 12.4234L11.8127 11.9682L12.4352 11.3829L13.0807 10.8627L13.9568 10.4509L15.0173 9.99566L16.17 9.49711L16.6772 9.28035L16.9078 8.93353L17 8.58671L16.8386 8.19653L16.585 7.93642L15.9625 7.65462L15.2709 7.39451L14.5562 7.11272L13.7262 6.72254L13.0807 6.33237L12.4352 5.85549L11.8588 5.33526L11.2363 4.59827L10.7752 3.8396L10.4063 2.99422L10.1988 2.58237L9.9683 2.10549L9.80692 1.73699L9.59942 1.30347L9.27666 1.08671Z" stroke="white"/>
<path d="M17.7819 14.7861L17.6666 14.75H17.5897L17.4649 14.7861L17.3592 14.8764L17.2919 15.0029L17.2439 15.1384L17.1767 15.2829L17.0902 15.4816L16.9942 15.7074L16.8885 15.897L16.7924 16.0777L16.6868 16.2493L16.5715 16.4028L16.4274 16.5564L16.2065 16.7641L16.0143 16.9086L15.7934 17.0621L15.5821 17.1796L15.2747 17.315L14.9769 17.4324L14.7463 17.5228L14.5446 17.6131L14.4005 17.7215L14.3333 17.875V18.0466L14.4293 18.1821L14.583 18.2543L14.7751 18.3356L14.9769 18.4079L15.2458 18.5343L15.4764 18.6337L15.7165 18.7511L15.9279 18.8775L16.1296 19.013L16.4274 19.2749L16.6579 19.5459L16.8501 19.8168L16.9942 20.0878L17.1382 20.4039L17.2535 20.6387L17.34 20.8103L17.4072 20.9187L17.5417 21H17.6858L17.8395 20.9548L17.9644 20.8465L18.0893 20.5574L18.2333 20.2413L18.3486 19.9884L18.4735 19.7536L18.6464 19.5098L18.8385 19.3201L19.0979 19.0762L19.3669 18.8595L19.7319 18.6879L20.1738 18.4982L20.6541 18.2905L20.8654 18.2001L20.9615 18.0556L20.9999 17.9111L20.9327 17.7486L20.827 17.6402L20.5676 17.5228L20.2795 17.4144L19.9817 17.297L19.6358 17.1344L19.3669 16.9718L19.0979 16.7731L18.8577 16.5564L18.5984 16.2493L18.4063 15.9332L18.2526 15.5809L18.1661 15.4093L18.07 15.2106L18.0028 15.0571L17.9163 14.8764L17.7819 14.7861Z" stroke="white"/>
</svg>
