<svg width="128" height="128" viewBox="0 0 128 128" fill="none" xmlns="http://www.w3.org/2000/svg">
<rect width="128" height="128" fill="#2A2B44"/>
<path d="M20 31.7406C20 25.2565 25.606 20 32.5213 20H108V31.7406C108 38.2248 102.394 43.4813 95.4787 43.4813H20V31.7406Z" fill="#E5570B"/>
<path d="M45.0426 50.7232H81.3191V64.9875C81.3191 76.5015 71.3646 85.8354 59.0851 85.8354H45.0426V50.7232Z" fill="#E5570B"/>
<path d="M20 50.7232H45.0426V88.2494C45.0426 99.1573 35.612 108 23.9787 108H20V50.7232Z" fill="#E5570B"/>
<path d="M45.0426 61.0374H74.766C74.766 72.915 64.4971 82.5436 51.8298 82.5436H45.0426V61.0374Z" fill="white"/>
<path d="M54.6383 61.0374H71.7234V62.0249C71.7234 66.4487 67.8988 70.0349 63.1809 70.0349C58.4629 70.0349 54.6383 66.4487 54.6383 62.0249V61.0374Z" fill="black"/>
</svg>
