<svg width="175" height="38" viewBox="0 0 175 38" fill="none" xmlns="http://www.w3.org/2000/svg">
<path d="M0 5.06983C0 2.26984 2.42076 0 5.40692 0H38V5.06983C38 7.86981 35.5792 10.1397 32.5931 10.1397H0V5.06983Z" fill="#E5570B"/>
<path d="M10.8138 13.2668H26.4787V19.4264C26.4787 24.3984 22.1802 28.4289 16.8777 28.4289H10.8138V13.2668Z" fill="#E5570B"/>
<path d="M0 13.2668H10.8138V29.4713C10.8138 34.1816 6.74153 38 1.71809 38H0V13.2668Z" fill="#E5570B"/>
<path d="M10.8138 17.7207H23.6489C23.6489 22.8496 19.2147 27.0075 13.7447 27.0075H10.8138V17.7207Z" fill="white"/>
<path d="M14.9574 17.7207H22.3351V18.1471C22.3351 20.0574 20.6836 21.606 18.6463 21.606C16.609 21.606 14.9574 20.0574 14.9574 18.1471V17.7207Z" fill="black"/>
<path d="M51.0039 28H47.6406V11.1953H59.4062V14.5586H51.0039V17.9219H56.043V21.2852H51.0039V28ZM64.5742 12.0391C64.5742 12.3359 64.5156 12.6133 64.3984 12.8711C64.2891 13.1289 64.1367 13.3555 63.9414 13.5508C63.7461 13.7383 63.5156 13.8906 63.25 14.0078C62.9922 14.1172 62.7148 14.1719 62.418 14.1719C62.1211 14.1719 61.8398 14.1172 61.5742 14.0078C61.3164 13.8906 61.0898 13.7383 60.8945 13.5508C60.707 13.3555 60.5547 13.1289 60.4375 12.8711C60.3281 12.6133 60.2734 12.3359 60.2734 12.0391C60.2734 11.75 60.3281 11.4766 60.4375 11.2188C60.5547 10.9531 60.707 10.7266 60.8945 10.5391C61.0898 10.3438 61.3164 10.1914 61.5742 10.082C61.8398 9.96484 62.1211 9.90625 62.418 9.90625C62.7148 9.90625 62.9922 9.96484 63.25 10.082C63.5156 10.1914 63.7461 10.3438 63.9414 10.5391C64.1367 10.7266 64.2891 10.9531 64.3984 11.2188C64.5156 11.4766 64.5742 11.75 64.5742 12.0391ZM64.0234 28H60.8008V15.4492H64.0234V28ZM69.6719 28H66.4727V15.4492H67.2461L68.3008 16.668C68.8164 16.1992 69.3984 15.8398 70.0469 15.5898C70.7031 15.332 71.3867 15.2031 72.0977 15.2031C72.8633 15.2031 73.5859 15.3516 74.2656 15.6484C74.9453 15.9375 75.5391 16.3398 76.0469 16.8555C76.5547 17.3633 76.9531 17.9609 77.2422 18.6484C77.5391 19.3281 77.6875 20.0547 77.6875 20.8281V28H74.4883V20.8281C74.4883 20.5 74.4258 20.1914 74.3008 19.9023C74.1758 19.6055 74.0039 19.3477 73.7852 19.1289C73.5664 18.9102 73.3125 18.7383 73.0234 18.6133C72.7344 18.4883 72.4258 18.4258 72.0977 18.4258C71.7617 18.4258 71.4453 18.4883 71.1484 18.6133C70.8516 18.7383 70.5938 18.9102 70.375 19.1289C70.1562 19.3477 69.9844 19.6055 69.8594 19.9023C69.7344 20.1914 69.6719 20.5 69.6719 20.8281V28ZM92.1016 28H91.3281L90.0859 26.2773C89.7812 26.5508 89.457 26.8086 89.1133 27.0508C88.7773 27.2852 88.4219 27.4922 88.0469 27.6719C87.6719 27.8438 87.2852 27.9805 86.8867 28.082C86.4961 28.1836 86.0977 28.2344 85.6914 28.2344C84.8086 28.2344 83.9766 28.0703 83.1953 27.7422C82.4219 27.4062 81.7422 26.9453 81.1562 26.3594C80.5781 25.7656 80.1211 25.0664 79.7852 24.2617C79.4492 23.4492 79.2812 22.5664 79.2812 21.6133C79.2812 20.668 79.4492 19.7891 79.7852 18.9766C80.1211 18.1641 80.5781 17.4609 81.1562 16.8672C81.7422 16.2734 82.4219 15.8086 83.1953 15.4727C83.9766 15.1367 84.8086 14.9688 85.6914 14.9688C85.9727 14.9688 86.2617 14.9922 86.5586 15.0391C86.8633 15.0859 87.1562 15.1641 87.4375 15.2734C87.7266 15.375 87.9961 15.5117 88.2461 15.6836C88.4961 15.8555 88.707 16.0664 88.8789 16.3164V10.457H92.1016V28ZM88.8789 21.6133C88.8789 21.1758 88.793 20.7539 88.6211 20.3477C88.457 19.9336 88.2305 19.5703 87.9414 19.2578C87.6523 18.9375 87.3125 18.6836 86.9219 18.4961C86.5391 18.3008 86.1289 18.2031 85.6914 18.2031C85.2539 18.2031 84.8398 18.2812 84.4492 18.4375C84.0664 18.5938 83.7305 18.8203 83.4414 19.1172C83.1602 19.4062 82.9375 19.7617 82.7734 20.1836C82.6094 20.6055 82.5273 21.082 82.5273 21.6133C82.5273 22.0742 82.6094 22.5117 82.7734 22.9258C82.9375 23.3398 83.1602 23.7031 83.4414 24.0156C83.7305 24.3281 84.0664 24.5742 84.4492 24.7539C84.8398 24.9336 85.2539 25.0234 85.6914 25.0234C86.1289 25.0234 86.5391 24.9297 86.9219 24.7422C87.3125 24.5469 87.6523 24.293 87.9414 23.9805C88.2305 23.6602 88.457 23.2969 88.6211 22.8906C88.793 22.4766 88.8789 22.0508 88.8789 21.6133ZM97.7734 32.7812H94.5508V15.4492H95.3242L96.6016 16.9609C96.8906 16.6875 97.207 16.4297 97.5508 16.1875C97.8945 15.9453 98.25 15.7383 98.6172 15.5664C98.9922 15.3867 99.3789 15.2461 99.7773 15.1445C100.176 15.043 100.578 14.9922 100.984 14.9922C101.867 14.9922 102.695 15.1523 103.469 15.4727C104.25 15.7852 104.93 16.2305 105.508 16.8086C106.094 17.3867 106.555 18.0859 106.891 18.9062C107.227 19.7188 107.395 20.6211 107.395 21.6133C107.395 22.6445 107.227 23.5742 106.891 24.4023C106.555 25.2227 106.094 25.9219 105.508 26.5C104.93 27.0703 104.25 27.5078 103.469 27.8125C102.695 28.1172 101.867 28.2695 100.984 28.2695C100.703 28.2695 100.422 28.2383 100.141 28.1758C99.8672 28.1133 99.5938 28.0312 99.3203 27.9297C99.0547 27.8203 98.7891 27.6992 98.5234 27.5664C98.2656 27.4336 98.0156 27.2969 97.7734 27.1562V32.7812ZM104.184 21.6133C104.184 21.082 104.098 20.6055 103.926 20.1836C103.762 19.7617 103.535 19.4062 103.246 19.1172C102.957 18.8203 102.617 18.5938 102.227 18.4375C101.836 18.2812 101.422 18.2031 100.984 18.2031C100.547 18.2031 100.133 18.2812 99.7422 18.4375C99.3594 18.5938 99.0234 18.8203 98.7344 19.1172C98.4453 19.4062 98.2148 19.7617 98.043 20.1836C97.8789 20.6055 97.7969 21.082 97.7969 21.6133C97.7969 22.1211 97.8789 22.5859 98.043 23.0078C98.2148 23.4297 98.4453 23.7891 98.7344 24.0859C99.0234 24.3828 99.3594 24.6133 99.7422 24.7773C100.133 24.9414 100.547 25.0234 100.984 25.0234C101.422 25.0234 101.836 24.9414 102.227 24.7773C102.617 24.6133 102.957 24.3828 103.246 24.0859C103.535 23.7891 103.762 23.4297 103.926 23.0078C104.098 22.5859 104.184 22.1211 104.184 21.6133ZM112.375 28H109.176V15.4492H109.949L111.004 16.9375C111.52 16.4688 112.105 16.1094 112.762 15.8594C113.418 15.6016 114.098 15.4727 114.801 15.4727H117.625V18.6602H114.801C114.465 18.6602 114.148 18.7227 113.852 18.8477C113.555 18.9727 113.297 19.1445 113.078 19.3633C112.859 19.582 112.688 19.8398 112.562 20.1367C112.438 20.4336 112.375 20.75 112.375 21.0859V28ZM131.008 21.6133C131.008 22.5508 130.84 23.4258 130.504 24.2383C130.168 25.043 129.711 25.7422 129.133 26.3359C128.555 26.9219 127.875 27.3867 127.094 27.7305C126.32 28.0664 125.488 28.2344 124.598 28.2344C123.715 28.2344 122.883 28.0664 122.102 27.7305C121.328 27.3867 120.648 26.9219 120.062 26.3359C119.484 25.7422 119.027 25.043 118.691 24.2383C118.355 23.4258 118.188 22.5508 118.188 21.6133C118.188 20.6602 118.355 19.7773 118.691 18.9648C119.027 18.1523 119.484 17.4531 120.062 16.8672C120.648 16.2734 121.328 15.8086 122.102 15.4727C122.883 15.1367 123.715 14.9688 124.598 14.9688C125.488 14.9688 126.32 15.1289 127.094 15.4492C127.875 15.7617 128.555 16.2109 129.133 16.7969C129.711 17.375 130.168 18.0742 130.504 18.8945C130.84 19.707 131.008 20.6133 131.008 21.6133ZM127.785 21.6133C127.785 21.0977 127.699 20.6328 127.527 20.2188C127.363 19.7969 127.137 19.4375 126.848 19.1406C126.559 18.8359 126.219 18.6055 125.828 18.4492C125.445 18.2852 125.035 18.2031 124.598 18.2031C124.16 18.2031 123.746 18.2852 123.355 18.4492C122.973 18.6055 122.637 18.8359 122.348 19.1406C122.066 19.4375 121.844 19.7969 121.68 20.2188C121.516 20.6328 121.434 21.0977 121.434 21.6133C121.434 22.0977 121.516 22.5469 121.68 22.9609C121.844 23.375 122.066 23.7344 122.348 24.0391C122.637 24.3438 122.973 24.5859 123.355 24.7656C123.746 24.9375 124.16 25.0234 124.598 25.0234C125.035 25.0234 125.445 24.9414 125.828 24.7773C126.219 24.6133 126.559 24.3828 126.848 24.0859C127.137 23.7891 127.363 23.4297 127.527 23.0078C127.699 22.5859 127.785 22.1211 127.785 21.6133ZM148.738 28H145.551V20.0312C145.551 19.8125 145.508 19.6055 145.422 19.4102C145.344 19.2148 145.23 19.043 145.082 18.8945C144.934 18.7461 144.762 18.6328 144.566 18.5547C144.371 18.4688 144.164 18.4258 143.945 18.4258C143.727 18.4258 143.52 18.4688 143.324 18.5547C143.137 18.6328 142.969 18.7461 142.82 18.8945C142.68 19.043 142.566 19.2148 142.48 19.4102C142.402 19.6055 142.363 19.8125 142.363 20.0312V28H139.164V20.0312C139.164 19.8125 139.121 19.6055 139.035 19.4102C138.957 19.2148 138.844 19.043 138.695 18.8945C138.547 18.7461 138.375 18.6328 138.18 18.5547C137.984 18.4688 137.777 18.4258 137.559 18.4258C137.34 18.4258 137.133 18.4688 136.938 18.5547C136.75 18.6328 136.582 18.7461 136.434 18.8945C136.293 19.043 136.18 19.2148 136.094 19.4102C136.016 19.6055 135.977 19.8125 135.977 20.0312V28H132.777V15.4492H133.551L134.418 16.4102C134.863 16.0352 135.352 15.7461 135.883 15.543C136.422 15.332 136.98 15.2266 137.559 15.2266C138.145 15.2266 138.715 15.3359 139.27 15.5547C139.832 15.7734 140.324 16.1523 140.746 16.6914C140.941 16.4258 141.164 16.1992 141.414 16.0117C141.664 15.8242 141.926 15.6719 142.199 15.5547C142.48 15.4375 142.77 15.3555 143.066 15.3086C143.363 15.2539 143.656 15.2266 143.945 15.2266C144.609 15.2266 145.23 15.3516 145.809 15.6016C146.395 15.8516 146.902 16.1953 147.332 16.6328C147.77 17.0625 148.113 17.5703 148.363 18.1562C148.613 18.7422 148.738 19.3672 148.738 20.0312V28ZM154.305 32.7812H151.082V15.4492H151.855L153.133 16.9609C153.422 16.6875 153.738 16.4297 154.082 16.1875C154.426 15.9453 154.781 15.7383 155.148 15.5664C155.523 15.3867 155.91 15.2461 156.309 15.1445C156.707 15.043 157.109 14.9922 157.516 14.9922C158.398 14.9922 159.227 15.1523 160 15.4727C160.781 15.7852 161.461 16.2305 162.039 16.8086C162.625 17.3867 163.086 18.0859 163.422 18.9062C163.758 19.7188 163.926 20.6211 163.926 21.6133C163.926 22.6445 163.758 23.5742 163.422 24.4023C163.086 25.2227 162.625 25.9219 162.039 26.5C161.461 27.0703 160.781 27.5078 160 27.8125C159.227 28.1172 158.398 28.2695 157.516 28.2695C157.234 28.2695 156.953 28.2383 156.672 28.1758C156.398 28.1133 156.125 28.0312 155.852 27.9297C155.586 27.8203 155.32 27.6992 155.055 27.5664C154.797 27.4336 154.547 27.2969 154.305 27.1562V32.7812ZM160.715 21.6133C160.715 21.082 160.629 20.6055 160.457 20.1836C160.293 19.7617 160.066 19.4062 159.777 19.1172C159.488 18.8203 159.148 18.5938 158.758 18.4375C158.367 18.2812 157.953 18.2031 157.516 18.2031C157.078 18.2031 156.664 18.2812 156.273 18.4375C155.891 18.5938 155.555 18.8203 155.266 19.1172C154.977 19.4062 154.746 19.7617 154.574 20.1836C154.41 20.6055 154.328 21.082 154.328 21.6133C154.328 22.1211 154.41 22.5859 154.574 23.0078C154.746 23.4297 154.977 23.7891 155.266 24.0859C155.555 24.3828 155.891 24.6133 156.273 24.7773C156.664 24.9414 157.078 25.0234 157.516 25.0234C157.953 25.0234 158.367 24.9414 158.758 24.7773C159.148 24.6133 159.488 24.3828 159.777 24.0859C160.066 23.7891 160.293 23.4297 160.457 23.0078C160.629 22.5859 160.715 22.1211 160.715 21.6133ZM171.906 28C171.133 28 170.406 27.8555 169.727 27.5664C169.047 27.2695 168.449 26.8672 167.934 26.3594C167.426 25.8438 167.023 25.2461 166.727 24.5664C166.438 23.8867 166.293 23.1602 166.293 22.3867V18.6602H164.734V15.4727H166.293V10.457H169.48V15.4727H174.332V18.6602H169.48V22.3867C169.48 22.7227 169.543 23.0391 169.668 23.3359C169.793 23.625 169.965 23.8789 170.184 24.0977C170.402 24.3164 170.66 24.4922 170.957 24.625C171.254 24.75 171.57 24.8125 171.906 24.8125H174.332V28H171.906Z" fill="white"/>
</svg>
