<svg width="25" height="26" viewBox="0 0 25 26" fill="none" xmlns="http://www.w3.org/2000/svg">
<path d="M0 3.83541C0 1.99331 1.5926 0.5 3.55718 0.5H25V3.83541C25 5.67751 23.4074 7.17082 21.4428 7.17082H0V3.83541Z" fill="#E5570B"/>
<path d="M7.11436 9.22818H17.4202V13.2805C17.4202 16.5516 14.5922 19.2032 11.1037 19.2032H7.11436V9.22818Z" fill="#E5570B"/>
<path d="M0 9.22818H7.11436V19.889C7.11436 22.9879 4.43521 25.5 1.13032 25.5H0V9.22818Z" fill="#E5570B"/>
<path d="M7.11436 12.1584H15.5585C15.5585 15.5327 12.6412 18.2681 9.04255 18.2681H7.11436V12.1584Z" fill="white"/>
<path d="M9.84043 12.1584H14.6941V12.4389C14.6941 13.6957 13.6076 14.7145 12.2673 14.7145C10.927 14.7145 9.84043 13.6957 9.84043 12.4389V12.1584Z" fill="black"/>
</svg>
