<svg width="422" height="261" viewBox="0 0 422 261" fill="none" xmlns="http://www.w3.org/2000/svg">
<path d="M0 21.788C0 9.75484 9.75484 0 21.788 0H400.212C412.245 0 422 9.75484 422 21.788V239.212C422 251.245 412.245 261 400.212 261H21.788C9.75484 261 0 251.245 0 239.212V21.788Z" fill="#E5580A"/>
<path d="M41.9766 145.851H42.9441C42.8938 146.314 42.761 146.729 42.546 147.095C42.331 147.462 42.027 147.752 41.6339 147.967C41.2408 148.179 40.7503 148.285 40.1624 148.285C39.7324 148.285 39.341 148.204 38.9882 148.043C38.6388 147.881 38.3382 147.653 38.0862 147.357C37.8342 147.058 37.6394 146.701 37.5016 146.284C37.3672 145.864 37.3 145.397 37.3 144.883V144.152C37.3 143.638 37.3672 143.173 37.5016 142.756C37.6394 142.336 37.8359 141.977 38.0912 141.678C38.3499 141.379 38.6607 141.149 39.0235 140.988C39.3863 140.826 39.7945 140.746 40.2481 140.746C40.8024 140.746 41.2711 140.85 41.6541 141.058C42.0371 141.266 42.3344 141.555 42.546 141.925C42.761 142.291 42.8938 142.716 42.9441 143.2H41.9766C41.9295 142.857 41.8422 142.563 41.7145 142.318C41.5869 142.069 41.4055 141.878 41.1703 141.744C40.9351 141.609 40.6277 141.542 40.2481 141.542C39.9222 141.542 39.635 141.604 39.3863 141.728C39.1411 141.853 38.9345 142.029 38.7665 142.258C38.6019 142.486 38.4776 142.76 38.3936 143.079C38.3096 143.398 38.2676 143.753 38.2676 144.142V144.883C38.2676 145.243 38.3046 145.58 38.3785 145.896C38.4557 146.212 38.5716 146.489 38.7262 146.727C38.8807 146.966 39.0773 147.154 39.3158 147.292C39.5543 147.426 39.8365 147.493 40.1624 147.493C40.5756 147.493 40.9049 147.428 41.1501 147.297C41.3954 147.166 41.5802 146.978 41.7045 146.732C41.8321 146.487 41.9228 146.193 41.9766 145.851ZM47.3435 147.252V144.445C47.3435 144.23 47.2998 144.043 47.2125 143.885C47.1285 143.724 47.0008 143.6 46.8295 143.512C46.6582 143.425 46.4465 143.381 46.1945 143.381C45.9594 143.381 45.7528 143.422 45.5747 143.502C45.4 143.583 45.2623 143.689 45.1615 143.82C45.064 143.951 45.0153 144.092 45.0153 144.243H44.083C44.083 144.048 44.1334 143.855 44.2342 143.664C44.335 143.472 44.4795 143.299 44.6676 143.144C44.8591 142.987 45.0876 142.862 45.353 142.772C45.6217 142.677 45.9207 142.63 46.25 142.63C46.6464 142.63 46.9958 142.698 47.2982 142.832C47.6039 142.966 47.8424 143.17 48.0138 143.442C48.1885 143.711 48.2758 144.048 48.2758 144.455V146.995C48.2758 147.176 48.2909 147.369 48.3212 147.574C48.3548 147.779 48.4035 147.955 48.4673 148.103V148.184H47.4947C47.4477 148.076 47.4107 147.934 47.3838 147.755C47.357 147.574 47.3435 147.406 47.3435 147.252ZM47.5048 144.878L47.5149 145.533H46.5725C46.3071 145.533 46.0702 145.555 45.8619 145.599C45.6537 145.639 45.479 145.701 45.3379 145.785C45.1967 145.869 45.0892 145.975 45.0153 146.103C44.9414 146.227 44.9045 146.373 44.9045 146.541C44.9045 146.712 44.9431 146.869 45.0204 147.01C45.0976 147.151 45.2135 147.263 45.3681 147.347C45.526 147.428 45.7192 147.468 45.9476 147.468C46.2332 147.468 46.4851 147.408 46.7035 147.287C46.9219 147.166 47.0949 147.018 47.2226 146.843C47.3536 146.669 47.4242 146.499 47.4342 146.334L47.8323 146.783C47.8088 146.924 47.745 147.08 47.6408 147.252C47.5367 147.423 47.3973 147.588 47.2226 147.745C47.0512 147.9 46.8463 148.029 46.6078 148.133C46.3726 148.234 46.1072 148.285 45.8116 148.285C45.442 148.285 45.1178 148.212 44.839 148.068C44.5635 147.923 44.3485 147.73 44.1939 147.488C44.0427 147.243 43.9671 146.969 43.9671 146.667C43.9671 146.375 44.0243 146.118 44.1385 145.896C44.2527 145.671 44.4173 145.484 44.6323 145.337C44.8474 145.185 45.106 145.071 45.4084 144.994C45.7108 144.917 46.0484 144.878 46.4213 144.878H47.5048ZM50.6746 143.588V148.184H49.7423V142.731H50.6494L50.6746 143.588ZM52.3779 142.701L52.3728 143.568C52.2956 143.551 52.2216 143.541 52.1511 143.538C52.0839 143.531 52.0066 143.527 51.9193 143.527C51.7043 143.527 51.5145 143.561 51.3498 143.628C51.1852 143.695 51.0458 143.789 50.9316 143.91C50.8173 144.031 50.7266 144.176 50.6594 144.344C50.5956 144.508 50.5536 144.69 50.5335 144.888L50.2714 145.039C50.2714 144.71 50.3033 144.401 50.3672 144.112C50.4343 143.823 50.5368 143.568 50.6746 143.346C50.8123 143.121 50.987 142.946 51.1987 142.822C51.4137 142.694 51.669 142.63 51.9646 142.63C52.0318 142.63 52.1091 142.639 52.1964 142.656C52.2838 142.669 52.3443 142.684 52.3779 142.701ZM56.5757 147.126V140.443H57.513V148.184H56.6563L56.5757 147.126ZM52.907 145.518V145.412C52.907 144.996 52.9574 144.618 53.0582 144.278C53.1623 143.936 53.3085 143.642 53.4966 143.396C53.6881 143.151 53.9149 142.963 54.1769 142.832C54.4423 142.698 54.738 142.63 55.0639 142.63C55.4065 142.63 55.7055 142.691 55.9609 142.812C56.2196 142.929 56.4379 143.102 56.616 143.331C56.7974 143.556 56.9402 143.828 57.0443 144.147C57.1485 144.466 57.2207 144.828 57.261 145.231V145.694C57.2241 146.094 57.1518 146.454 57.0443 146.773C56.9402 147.092 56.7974 147.364 56.616 147.589C56.4379 147.814 56.2196 147.987 55.9609 148.108C55.7022 148.226 55.3998 148.285 55.0538 148.285C54.7346 148.285 54.4423 148.216 54.1769 148.078C53.9149 147.94 53.6881 147.747 53.4966 147.498C53.3085 147.25 53.1623 146.958 53.0582 146.622C52.9574 146.282 52.907 145.914 52.907 145.518ZM53.8443 145.412V145.518C53.8443 145.79 53.8712 146.045 53.925 146.284C53.9821 146.523 54.0694 146.732 54.187 146.914C54.3046 147.095 54.4541 147.238 54.6355 147.342C54.8169 147.443 55.0336 147.493 55.2856 147.493C55.5947 147.493 55.8483 147.428 56.0465 147.297C56.2481 147.166 56.4094 146.993 56.5303 146.778C56.6513 146.563 56.7453 146.329 56.8125 146.077V144.863C56.7722 144.678 56.7134 144.5 56.6361 144.329C56.5622 144.154 56.4648 143.999 56.3439 143.865C56.2263 143.727 56.0801 143.618 55.9054 143.538C55.7341 143.457 55.5308 143.417 55.2957 143.417C55.0403 143.417 54.8203 143.47 54.6355 143.578C54.4541 143.682 54.3046 143.826 54.187 144.011C54.0694 144.193 53.9821 144.404 53.925 144.646C53.8712 144.885 53.8443 145.14 53.8443 145.412ZM67.3096 140.846V148.184H66.3319L62.638 142.525V148.184H61.6654V140.846H62.638L66.347 146.521V140.846H67.3096ZM72.228 146.924V142.731H73.1653V148.184H72.2733L72.228 146.924ZM72.4044 145.775L72.7924 145.765C72.7924 146.128 72.7538 146.464 72.6765 146.773C72.6026 147.079 72.4816 147.344 72.3137 147.569C72.1457 147.794 71.9256 147.971 71.6535 148.098C71.3814 148.222 71.0505 148.285 70.6607 148.285C70.3953 148.285 70.1518 148.246 69.93 148.169C69.7117 148.091 69.5235 147.972 69.3656 147.811C69.2077 147.65 69.0851 147.44 68.9977 147.181C68.9138 146.922 68.8718 146.612 68.8718 146.249V142.731H69.804V146.259C69.804 146.504 69.8309 146.707 69.8847 146.869C69.9418 147.026 70.0174 147.152 70.1114 147.247C70.2089 147.337 70.3164 147.401 70.434 147.438C70.5549 147.475 70.6792 147.493 70.8069 147.493C71.2033 147.493 71.5174 147.418 71.7492 147.267C71.9811 147.112 72.1474 146.906 72.2481 146.647C72.3523 146.385 72.4044 146.094 72.4044 145.775ZM75.5137 143.815V148.184H74.5763V142.731H75.4633L75.5137 143.815ZM75.3222 145.251L74.8888 145.236C74.8921 144.863 74.9409 144.519 75.0349 144.203C75.129 143.884 75.2684 143.606 75.4532 143.371C75.638 143.136 75.8681 142.955 76.1436 142.827C76.4191 142.696 76.7382 142.63 77.1011 142.63C77.3564 142.63 77.5916 142.667 77.8066 142.741C78.0216 142.812 78.2081 142.924 78.366 143.079C78.5239 143.233 78.6465 143.432 78.7338 143.674C78.8212 143.915 78.8649 144.208 78.8649 144.55V148.184H77.9326V144.596C77.9326 144.31 77.8839 144.082 77.7864 143.91C77.6924 143.739 77.558 143.615 77.3833 143.538C77.2086 143.457 77.0036 143.417 76.7685 143.417C76.493 143.417 76.2629 143.465 76.0781 143.563C75.8933 143.66 75.7455 143.795 75.6346 143.966C75.5237 144.137 75.4431 144.334 75.3927 144.555C75.3457 144.774 75.3222 145.006 75.3222 145.251ZM78.8548 144.737L78.2299 144.928C78.2333 144.629 78.282 144.342 78.376 144.067C78.4735 143.791 78.6129 143.546 78.7943 143.331C78.9791 143.116 79.2059 142.946 79.4746 142.822C79.7434 142.694 80.0508 142.63 80.3968 142.63C80.6891 142.63 80.9478 142.669 81.1729 142.746C81.4013 142.824 81.5928 142.943 81.7474 143.104C81.9053 143.262 82.0245 143.465 82.1052 143.714C82.1858 143.963 82.2261 144.258 82.2261 144.601V148.184H81.2888V144.591C81.2888 144.285 81.2401 144.048 81.1427 143.88C81.0486 143.709 80.9142 143.59 80.7395 143.522C80.5682 143.452 80.3632 143.417 80.1247 143.417C79.9198 143.417 79.7383 143.452 79.5804 143.522C79.4225 143.593 79.2898 143.69 79.1823 143.815C79.0748 143.936 78.9925 144.075 78.9354 144.233C78.8817 144.391 78.8548 144.559 78.8548 144.737ZM83.6321 140.443H84.5694V147.126L84.4888 148.184H83.6321V140.443ZM88.2532 145.412V145.518C88.2532 145.914 88.2062 146.282 88.1121 146.622C88.018 146.958 87.8803 147.25 87.6989 147.498C87.5175 147.747 87.2957 147.94 87.0337 148.078C86.7716 148.216 86.471 148.285 86.1316 148.285C85.7856 148.285 85.4816 148.226 85.2195 148.108C84.9608 147.987 84.7425 147.814 84.5644 147.589C84.3863 147.364 84.2436 147.092 84.136 146.773C84.0319 146.454 83.9597 146.094 83.9194 145.694V145.231C83.9597 144.828 84.0319 144.466 84.136 144.147C84.2436 143.828 84.3863 143.556 84.5644 143.331C84.7425 143.102 84.9608 142.929 85.2195 142.812C85.4782 142.691 85.7789 142.63 86.1216 142.63C86.4642 142.63 86.7683 142.698 87.0337 142.832C87.2991 142.963 87.5208 143.151 87.6989 143.396C87.8803 143.642 88.018 143.936 88.1121 144.278C88.2062 144.618 88.2532 144.996 88.2532 145.412ZM87.3159 145.518V145.412C87.3159 145.14 87.2907 144.885 87.2403 144.646C87.1899 144.404 87.1093 144.193 86.9984 144.011C86.8875 143.826 86.7414 143.682 86.56 143.578C86.3786 143.47 86.1552 143.417 85.8897 143.417C85.6546 143.417 85.4496 143.457 85.2749 143.538C85.1036 143.618 84.9575 143.727 84.8365 143.865C84.7156 143.999 84.6165 144.154 84.5392 144.329C84.4653 144.5 84.4099 144.678 84.3729 144.863V146.077C84.4266 146.313 84.514 146.539 84.6349 146.758C84.7592 146.973 84.9239 147.149 85.1288 147.287C85.3371 147.425 85.5941 147.493 85.8998 147.493C86.1518 147.493 86.3668 147.443 86.5449 147.342C86.7263 147.238 86.8724 147.095 86.9833 146.914C87.0975 146.732 87.1815 146.523 87.2353 146.284C87.289 146.045 87.3159 145.79 87.3159 145.518ZM91.6951 148.285C91.3155 148.285 90.9711 148.221 90.662 148.093C90.3563 147.962 90.0926 147.779 89.8709 147.544C89.6525 147.309 89.4845 147.03 89.3669 146.707C89.2493 146.385 89.1905 146.032 89.1905 145.649V145.437C89.1905 144.994 89.2561 144.599 89.3871 144.253C89.5181 143.904 89.6962 143.608 89.9213 143.366C90.1463 143.124 90.4017 142.941 90.6872 142.817C90.9728 142.693 91.2684 142.63 91.5742 142.63C91.9639 142.63 92.2998 142.698 92.582 142.832C92.8676 142.966 93.1011 143.155 93.2825 143.396C93.4639 143.635 93.5983 143.917 93.6857 144.243C93.773 144.566 93.8167 144.918 93.8167 145.301V145.72H89.7449V144.959H92.8844V144.888C92.871 144.646 92.8206 144.411 92.7332 144.183C92.6492 143.954 92.5149 143.766 92.3301 143.618C92.1453 143.47 91.8933 143.396 91.5742 143.396C91.3625 143.396 91.1677 143.442 90.9896 143.532C90.8115 143.62 90.6587 143.751 90.531 143.926C90.4034 144.1 90.3042 144.314 90.2337 144.566C90.1631 144.818 90.1279 145.108 90.1279 145.437V145.649C90.1279 145.908 90.1631 146.151 90.2337 146.38C90.3076 146.605 90.4134 146.803 90.5512 146.974C90.6923 147.146 90.8619 147.28 91.0602 147.378C91.2617 147.475 91.4902 147.524 91.7455 147.524C92.0747 147.524 92.3536 147.456 92.582 147.322C92.8105 147.188 93.0104 147.008 93.1817 146.783L93.7461 147.231C93.6286 147.409 93.4791 147.579 93.2976 147.74C93.1162 147.902 92.8928 148.033 92.6274 148.133C92.3654 148.234 92.0546 148.285 91.6951 148.285ZM95.8375 143.588V148.184H94.9052V142.731H95.8123L95.8375 143.588ZM97.5408 142.701L97.5358 143.568C97.4585 143.551 97.3846 143.541 97.314 143.538C97.2468 143.531 97.1696 143.527 97.0822 143.527C96.8672 143.527 96.6774 143.561 96.5128 143.628C96.3481 143.695 96.2087 143.789 96.0945 143.91C95.9803 144.031 95.8896 144.176 95.8224 144.344C95.7585 144.508 95.7165 144.69 95.6964 144.888L95.4343 145.039C95.4343 144.71 95.4663 144.401 95.5301 144.112C95.5973 143.823 95.6997 143.568 95.8375 143.346C95.9752 143.121 96.1499 142.946 96.3616 142.822C96.5766 142.694 96.8319 142.63 97.1276 142.63C97.1948 142.63 97.272 142.639 97.3594 142.656C97.4467 142.669 97.5072 142.684 97.5408 142.701Z" fill="#ECECEC"/>
<path d="M40.8301 200.319H41.7977C41.7473 200.783 41.6146 201.198 41.3995 201.564C41.1845 201.93 40.8805 202.221 40.4874 202.436C40.0943 202.648 39.6038 202.753 39.0159 202.753C38.5859 202.753 38.1945 202.673 37.8417 202.511C37.4923 202.35 37.1917 202.122 36.9397 201.826C36.6877 201.527 36.4929 201.169 36.3551 200.753C36.2207 200.333 36.1536 199.866 36.1536 199.352V198.621C36.1536 198.107 36.2207 197.642 36.3551 197.225C36.4929 196.805 36.6894 196.446 36.9447 196.147C37.2034 195.848 37.5142 195.618 37.877 195.456C38.2399 195.295 38.648 195.214 39.1016 195.214C39.6559 195.214 40.1246 195.319 40.5076 195.527C40.8906 195.735 41.1879 196.024 41.3995 196.394C41.6146 196.76 41.7473 197.185 41.7977 197.669H40.8301C40.7831 197.326 40.6957 197.032 40.5681 196.787C40.4404 196.538 40.259 196.347 40.0238 196.212C39.7886 196.078 39.4812 196.011 39.1016 196.011C38.7757 196.011 38.4885 196.073 38.2399 196.197C37.9946 196.321 37.788 196.498 37.62 196.726C37.4554 196.955 37.3311 197.229 37.2471 197.548C37.1631 197.867 37.1211 198.221 37.1211 198.611V199.352C37.1211 199.711 37.1581 200.049 37.232 200.365C37.3093 200.681 37.4252 200.958 37.5797 201.196C37.7342 201.435 37.9308 201.623 38.1693 201.761C38.4078 201.895 38.69 201.962 39.0159 201.962C39.4292 201.962 39.7584 201.897 40.0036 201.766C40.2489 201.635 40.4337 201.446 40.558 201.201C40.6856 200.956 40.7763 200.662 40.8301 200.319ZM46.197 201.72V198.913C46.197 198.698 46.1534 198.512 46.066 198.354C45.982 198.193 45.8544 198.068 45.683 197.981C45.5117 197.894 45.3 197.85 45.0481 197.85C44.8129 197.85 44.6063 197.89 44.4282 197.971C44.2535 198.052 44.1158 198.157 44.015 198.288C43.9176 198.42 43.8688 198.561 43.8688 198.712H42.9366C42.9366 198.517 42.987 198.324 43.0877 198.132C43.1885 197.941 43.333 197.768 43.5211 197.613C43.7126 197.455 43.9411 197.331 44.2065 197.24C44.4753 197.146 44.7743 197.099 45.1035 197.099C45.4999 197.099 45.8493 197.166 46.1517 197.301C46.4574 197.435 46.6959 197.638 46.8673 197.911C47.042 198.179 47.1293 198.517 47.1293 198.923V201.463C47.1293 201.645 47.1444 201.838 47.1747 202.043C47.2083 202.248 47.257 202.424 47.3208 202.572V202.653H46.3482C46.3012 202.545 46.2642 202.402 46.2374 202.224C46.2105 202.043 46.197 201.875 46.197 201.72ZM46.3583 199.347L46.3684 200.002H45.426C45.1606 200.002 44.9238 200.024 44.7155 200.067C44.5072 200.108 44.3325 200.17 44.1914 200.254C44.0503 200.338 43.9428 200.444 43.8688 200.571C43.7949 200.696 43.758 200.842 43.758 201.01C43.758 201.181 43.7966 201.337 43.8739 201.478C43.9512 201.62 44.0671 201.732 44.2216 201.816C44.3795 201.897 44.5727 201.937 44.8011 201.937C45.0867 201.937 45.3387 201.877 45.557 201.756C45.7754 201.635 45.9484 201.487 46.0761 201.312C46.2071 201.137 46.2777 200.968 46.2877 200.803L46.6859 201.252C46.6623 201.393 46.5985 201.549 46.4944 201.72C46.3902 201.892 46.2508 202.056 46.0761 202.214C45.9048 202.369 45.6998 202.498 45.4613 202.602C45.2261 202.703 44.9607 202.753 44.6651 202.753C44.2955 202.753 43.9713 202.681 43.6925 202.537C43.417 202.392 43.202 202.199 43.0474 201.957C42.8962 201.712 42.8207 201.438 42.8207 201.136C42.8207 200.843 42.8778 200.586 42.992 200.365C43.1062 200.14 43.2708 199.953 43.4859 199.805C43.7009 199.654 43.9596 199.54 44.2619 199.463C44.5643 199.385 44.9019 199.347 45.2748 199.347H46.3583ZM49.5281 198.057V202.653H48.5958V197.2H49.5029L49.5281 198.057ZM51.2314 197.17L51.2263 198.037C51.1491 198.02 51.0752 198.01 51.0046 198.006C50.9374 198 50.8601 197.996 50.7728 197.996C50.5578 197.996 50.368 198.03 50.2033 198.097C50.0387 198.164 49.8993 198.258 49.7851 198.379C49.6709 198.5 49.5801 198.645 49.513 198.813C49.4491 198.977 49.4071 199.159 49.387 199.357L49.1249 199.508C49.1249 199.179 49.1568 198.87 49.2207 198.581C49.2879 198.292 49.3903 198.037 49.5281 197.815C49.6658 197.59 49.8405 197.415 50.0522 197.291C50.2672 197.163 50.5225 197.099 50.8182 197.099C50.8853 197.099 50.9626 197.108 51.05 197.124C51.1373 197.138 51.1978 197.153 51.2314 197.17ZM55.4292 201.594V194.912H56.3665V202.653H55.5098L55.4292 201.594ZM51.7605 199.987V199.881C51.7605 199.464 51.8109 199.086 51.9117 198.747C52.0158 198.404 52.162 198.11 52.3501 197.865C52.5416 197.62 52.7684 197.432 53.0304 197.301C53.2958 197.166 53.5915 197.099 53.9174 197.099C54.26 197.099 54.5591 197.16 54.8144 197.281C55.0731 197.398 55.2914 197.571 55.4695 197.8C55.6509 198.025 55.7937 198.297 55.8978 198.616C56.002 198.935 56.0742 199.296 56.1145 199.7V200.163C56.0776 200.563 56.0054 200.922 55.8978 201.242C55.7937 201.561 55.6509 201.833 55.4695 202.058C55.2914 202.283 55.0731 202.456 54.8144 202.577C54.5557 202.695 54.2533 202.753 53.9073 202.753C53.5881 202.753 53.2958 202.685 53.0304 202.547C52.7684 202.409 52.5416 202.216 52.3501 201.967C52.162 201.719 52.0158 201.426 51.9117 201.09C51.8109 200.751 51.7605 200.383 51.7605 199.987ZM52.6978 199.881V199.987C52.6978 200.259 52.7247 200.514 52.7785 200.753C52.8356 200.991 52.9229 201.201 53.0405 201.383C53.1581 201.564 53.3076 201.707 53.489 201.811C53.6704 201.912 53.8871 201.962 54.1391 201.962C54.4482 201.962 54.7018 201.897 54.9001 201.766C55.1016 201.635 55.2629 201.462 55.3838 201.247C55.5048 201.032 55.5988 200.798 55.666 200.546V199.332C55.6257 199.147 55.5669 198.969 55.4897 198.797C55.4157 198.623 55.3183 198.468 55.1974 198.334C55.0798 198.196 54.9336 198.087 54.7589 198.006C54.5876 197.926 54.3844 197.885 54.1492 197.885C53.8939 197.885 53.6738 197.939 53.489 198.047C53.3076 198.151 53.1581 198.295 53.0405 198.48C52.9229 198.661 52.8356 198.873 52.7785 199.115C52.7247 199.353 52.6978 199.609 52.6978 199.881ZM58.7501 194.912V202.653H57.8179V194.912H58.7501ZM58.5284 199.72L58.1404 199.705C58.1437 199.332 58.1992 198.987 58.3067 198.671C58.4142 198.352 58.5654 198.075 58.7602 197.84C58.9551 197.605 59.1869 197.423 59.4557 197.296C59.7278 197.165 60.0285 197.099 60.3577 197.099C60.6265 197.099 60.8684 197.136 61.0834 197.21C61.2984 197.281 61.4815 197.395 61.6327 197.553C61.7872 197.711 61.9048 197.916 61.9854 198.168C62.0661 198.416 62.1064 198.72 62.1064 199.08V202.653H61.169V199.07C61.169 198.784 61.127 198.556 61.0431 198.384C60.9591 198.21 60.8364 198.084 60.6752 198.006C60.5139 197.926 60.3157 197.885 60.0805 197.885C59.8487 197.885 59.6371 197.934 59.4456 198.031C59.2574 198.129 59.0945 198.263 58.9568 198.435C58.8224 198.606 58.7165 198.803 58.6393 199.024C58.5654 199.243 58.5284 199.474 58.5284 199.72ZM63.2553 199.987V199.871C63.2553 199.478 63.3125 199.113 63.4267 198.777C63.5409 198.438 63.7055 198.144 63.9205 197.895C64.1356 197.643 64.3959 197.449 64.7016 197.311C65.0074 197.17 65.35 197.099 65.7297 197.099C66.1127 197.099 66.457 197.17 66.7628 197.311C67.0718 197.449 67.3339 197.643 67.5489 197.895C67.7673 198.144 67.9336 198.438 68.0478 198.777C68.162 199.113 68.2191 199.478 68.2191 199.871V199.987C68.2191 200.38 68.162 200.744 68.0478 201.08C67.9336 201.416 67.7673 201.71 67.5489 201.962C67.3339 202.211 67.0735 202.406 66.7678 202.547C66.4654 202.685 66.1228 202.753 65.7398 202.753C65.3568 202.753 65.0124 202.685 64.7067 202.547C64.401 202.406 64.1389 202.211 63.9205 201.962C63.7055 201.71 63.5409 201.416 63.4267 201.08C63.3125 200.744 63.2553 200.38 63.2553 199.987ZM64.1876 199.871V199.987C64.1876 200.259 64.2195 200.516 64.2834 200.758C64.3472 200.996 64.443 201.208 64.5706 201.393C64.7016 201.578 64.8646 201.724 65.0594 201.831C65.2543 201.935 65.4811 201.987 65.7398 201.987C65.9951 201.987 66.2185 201.935 66.41 201.831C66.6049 201.724 66.7661 201.578 66.8938 201.393C67.0214 201.208 67.1172 200.996 67.181 200.758C67.2482 200.516 67.2818 200.259 67.2818 199.987V199.871C67.2818 199.602 67.2482 199.348 67.181 199.11C67.1172 198.868 67.0198 198.655 66.8887 198.47C66.7611 198.282 66.5998 198.134 66.405 198.026C66.2135 197.919 65.9884 197.865 65.7297 197.865C65.4744 197.865 65.2493 197.919 65.0544 198.026C64.8629 198.134 64.7016 198.282 64.5706 198.47C64.443 198.655 64.3472 198.868 64.2834 199.11C64.2195 199.348 64.1876 199.602 64.1876 199.871ZM70.4012 194.912V202.653H69.4639V194.912H70.4012ZM75.3347 201.594V194.912H76.2721V202.653H75.4154L75.3347 201.594ZM71.6661 199.987V199.881C71.6661 199.464 71.7165 199.086 71.8173 198.747C71.9214 198.404 72.0675 198.11 72.2557 197.865C72.4472 197.62 72.6739 197.432 72.936 197.301C73.2014 197.166 73.497 197.099 73.8229 197.099C74.1656 197.099 74.4646 197.16 74.7199 197.281C74.9786 197.398 75.197 197.571 75.3751 197.8C75.5565 198.025 75.6993 198.297 75.8034 198.616C75.9075 198.935 75.9798 199.296 76.0201 199.7V200.163C75.9831 200.563 75.9109 200.922 75.8034 201.242C75.6993 201.561 75.5565 201.833 75.3751 202.058C75.197 202.283 74.9786 202.456 74.7199 202.577C74.4612 202.695 74.1589 202.753 73.8128 202.753C73.4937 202.753 73.2014 202.685 72.936 202.547C72.6739 202.409 72.4472 202.216 72.2557 201.967C72.0675 201.719 71.9214 201.426 71.8173 201.09C71.7165 200.751 71.6661 200.383 71.6661 199.987ZM72.6034 199.881V199.987C72.6034 200.259 72.6303 200.514 72.684 200.753C72.7411 200.991 72.8285 201.201 72.9461 201.383C73.0637 201.564 73.2132 201.707 73.3946 201.811C73.576 201.912 73.7927 201.962 74.0447 201.962C74.3537 201.962 74.6074 201.897 74.8056 201.766C75.0072 201.635 75.1684 201.462 75.2894 201.247C75.4103 201.032 75.5044 200.798 75.5716 200.546V199.332C75.5313 199.147 75.4725 198.969 75.3952 198.797C75.3213 198.623 75.2239 198.468 75.1029 198.334C74.9853 198.196 74.8392 198.087 74.6645 198.006C74.4932 197.926 74.2899 197.885 74.0547 197.885C73.7994 197.885 73.5794 197.939 73.3946 198.047C73.2132 198.151 73.0637 198.295 72.9461 198.48C72.8285 198.661 72.7411 198.873 72.684 199.115C72.6303 199.353 72.6034 199.609 72.6034 199.881ZM79.9861 202.753C79.6065 202.753 79.2621 202.69 78.953 202.562C78.6473 202.431 78.3836 202.248 78.1618 202.013C77.9435 201.777 77.7755 201.499 77.6579 201.176C77.5403 200.854 77.4815 200.501 77.4815 200.118V199.906C77.4815 199.463 77.547 199.068 77.6781 198.722C77.8091 198.372 77.9871 198.077 78.2122 197.835C78.4373 197.593 78.6926 197.41 78.9782 197.286C79.2638 197.161 79.5594 197.099 79.8651 197.099C80.2549 197.099 80.5908 197.166 80.873 197.301C81.1586 197.435 81.3921 197.623 81.5735 197.865C81.7549 198.104 81.8893 198.386 81.9766 198.712C82.064 199.034 82.1077 199.387 82.1077 199.77V200.188H78.0358V199.427H81.1754V199.357C81.1619 199.115 81.1116 198.88 81.0242 198.651C80.9402 198.423 80.8058 198.235 80.6211 198.087C80.4363 197.939 80.1843 197.865 79.8651 197.865C79.6535 197.865 79.4586 197.911 79.2806 198.001C79.1025 198.089 78.9497 198.22 78.822 198.394C78.6943 198.569 78.5952 198.782 78.5247 199.034C78.4541 199.286 78.4188 199.577 78.4188 199.906V200.118C78.4188 200.376 78.4541 200.62 78.5247 200.848C78.5986 201.074 78.7044 201.272 78.8422 201.443C78.9833 201.614 79.1529 201.749 79.3511 201.846C79.5527 201.944 79.7812 201.992 80.0365 201.992C80.3657 201.992 80.6446 201.925 80.873 201.791C81.1015 201.656 81.3014 201.477 81.4727 201.252L82.0371 201.7C81.9195 201.878 81.77 202.048 81.5886 202.209C81.4072 202.37 81.1838 202.501 80.9184 202.602C80.6563 202.703 80.3456 202.753 79.9861 202.753ZM84.1285 198.057V202.653H83.1962V197.2H84.1033L84.1285 198.057ZM85.8318 197.17L85.8267 198.037C85.7495 198.02 85.6756 198.01 85.605 198.006C85.5378 198 85.4605 197.996 85.3732 197.996C85.1582 197.996 84.9684 198.03 84.8037 198.097C84.6391 198.164 84.4997 198.258 84.3855 198.379C84.2712 198.5 84.1805 198.645 84.1133 198.813C84.0495 198.977 84.0075 199.159 83.9874 199.357L83.7253 199.508C83.7253 199.179 83.7572 198.87 83.8211 198.581C83.8883 198.292 83.9907 198.037 84.1285 197.815C84.2662 197.59 84.4409 197.415 84.6526 197.291C84.8676 197.163 85.1229 197.099 85.4185 197.099C85.4857 197.099 85.563 197.108 85.6504 197.124C85.7377 197.138 85.7982 197.153 85.8318 197.17ZM95.0387 195.315V202.653H94.0611L90.3672 196.993V202.653H89.3946V195.315H90.3672L94.0762 200.99V195.315H95.0387ZM99.8362 201.72V198.913C99.8362 198.698 99.7925 198.512 99.7052 198.354C99.6212 198.193 99.4935 198.068 99.3222 197.981C99.1509 197.894 98.9392 197.85 98.6872 197.85C98.4521 197.85 98.2454 197.89 98.0674 197.971C97.8927 198.052 97.7549 198.157 97.6542 198.288C97.5567 198.42 97.508 198.561 97.508 198.712H96.5757C96.5757 198.517 96.6261 198.324 96.7269 198.132C96.8277 197.941 96.9722 197.768 97.1603 197.613C97.3518 197.455 97.5802 197.331 97.8457 197.24C98.1144 197.146 98.4134 197.099 98.7427 197.099C99.1391 197.099 99.4885 197.166 99.7909 197.301C100.097 197.435 100.335 197.638 100.506 197.911C100.681 198.179 100.768 198.517 100.768 198.923V201.463C100.768 201.645 100.784 201.838 100.814 202.043C100.847 202.248 100.896 202.424 100.96 202.572V202.653H99.9874C99.9404 202.545 99.9034 202.402 99.8765 202.224C99.8496 202.043 99.8362 201.875 99.8362 201.72ZM99.9975 199.347L100.008 200.002H99.0652C98.7998 200.002 98.5629 200.024 98.3546 200.067C98.1463 200.108 97.9716 200.17 97.8305 200.254C97.6894 200.338 97.5819 200.444 97.508 200.571C97.4341 200.696 97.3972 200.842 97.3972 201.01C97.3972 201.181 97.4358 201.337 97.5131 201.478C97.5903 201.62 97.7062 201.732 97.8608 201.816C98.0187 201.897 98.2119 201.937 98.4403 201.937C98.7259 201.937 98.9778 201.877 99.1962 201.756C99.4146 201.635 99.5876 201.487 99.7153 201.312C99.8463 201.137 99.9168 200.968 99.9269 200.803L100.325 201.252C100.302 201.393 100.238 201.549 100.134 201.72C100.029 201.892 99.89 202.056 99.7153 202.214C99.5439 202.369 99.339 202.498 99.1005 202.602C98.8653 202.703 98.5999 202.753 98.3042 202.753C97.9347 202.753 97.6105 202.681 97.3316 202.537C97.0562 202.392 96.8411 202.199 96.6866 201.957C96.5354 201.712 96.4598 201.438 96.4598 201.136C96.4598 200.843 96.5169 200.586 96.6312 200.365C96.7454 200.14 96.91 199.953 97.125 199.805C97.34 199.654 97.5987 199.54 97.9011 199.463C98.2035 199.385 98.5411 199.347 98.914 199.347H99.9975ZM103.162 198.283V202.653H102.225V197.2H103.112L103.162 198.283ZM102.971 199.72L102.537 199.705C102.541 199.332 102.589 198.987 102.683 198.671C102.778 198.352 102.917 198.075 103.102 197.84C103.287 197.605 103.517 197.423 103.792 197.296C104.068 197.165 104.387 197.099 104.75 197.099C105.005 197.099 105.24 197.136 105.455 197.21C105.67 197.281 105.857 197.393 106.014 197.548C106.172 197.702 106.295 197.9 106.382 198.142C106.47 198.384 106.513 198.677 106.513 199.019V202.653H105.581V199.065C105.581 198.779 105.532 198.551 105.435 198.379C105.341 198.208 105.207 198.084 105.032 198.006C104.857 197.926 104.652 197.885 104.417 197.885C104.142 197.885 103.911 197.934 103.727 198.031C103.542 198.129 103.394 198.263 103.283 198.435C103.172 198.606 103.092 198.803 103.041 199.024C102.994 199.243 102.971 199.474 102.971 199.72ZM106.503 199.206L105.878 199.397C105.882 199.098 105.93 198.811 106.025 198.535C106.122 198.26 106.261 198.015 106.443 197.8C106.628 197.585 106.854 197.415 107.123 197.291C107.392 197.163 107.699 197.099 108.045 197.099C108.338 197.099 108.596 197.138 108.821 197.215C109.05 197.292 109.241 197.412 109.396 197.573C109.554 197.731 109.673 197.934 109.754 198.183C109.834 198.431 109.875 198.727 109.875 199.07V202.653H108.937V199.06C108.937 198.754 108.889 198.517 108.791 198.349C108.697 198.178 108.563 198.058 108.388 197.991C108.217 197.921 108.012 197.885 107.773 197.885C107.568 197.885 107.387 197.921 107.229 197.991C107.071 198.062 106.938 198.159 106.831 198.283C106.723 198.404 106.641 198.544 106.584 198.702C106.53 198.86 106.503 199.028 106.503 199.206ZM113.548 202.753C113.169 202.753 112.824 202.69 112.515 202.562C112.21 202.431 111.946 202.248 111.724 202.013C111.506 201.777 111.338 201.499 111.22 201.176C111.103 200.854 111.044 200.501 111.044 200.118V199.906C111.044 199.463 111.109 199.068 111.24 198.722C111.371 198.372 111.549 198.077 111.774 197.835C112 197.593 112.255 197.41 112.54 197.286C112.826 197.161 113.122 197.099 113.427 197.099C113.817 197.099 114.153 197.166 114.435 197.301C114.721 197.435 114.954 197.623 115.136 197.865C115.317 198.104 115.452 198.386 115.539 198.712C115.626 199.034 115.67 199.387 115.67 199.77V200.188H111.598V199.427H114.738V199.357C114.724 199.115 114.674 198.88 114.586 198.651C114.502 198.423 114.368 198.235 114.183 198.087C113.999 197.939 113.747 197.865 113.427 197.865C113.216 197.865 113.021 197.911 112.843 198.001C112.665 198.089 112.512 198.22 112.384 198.394C112.257 198.569 112.157 198.782 112.087 199.034C112.016 199.286 111.981 199.577 111.981 199.906V200.118C111.981 200.376 112.016 200.62 112.087 200.848C112.161 201.074 112.267 201.272 112.404 201.443C112.546 201.614 112.715 201.749 112.913 201.846C113.115 201.944 113.343 201.992 113.599 201.992C113.928 201.992 114.207 201.925 114.435 201.791C114.664 201.656 114.864 201.477 115.035 201.252L115.599 201.7C115.482 201.878 115.332 202.048 115.151 202.209C114.969 202.37 114.746 202.501 114.481 202.602C114.219 202.703 113.908 202.753 113.548 202.753Z" fill="#ECECEC"/>
<path d="M314.559 201.861V202.653H310.674V201.861H314.559ZM310.87 195.315V202.653H309.898V195.315H310.87ZM314.045 198.47V199.261H310.674V198.47H314.045ZM314.509 195.315V196.111H310.674V195.315H314.509ZM316.252 197.2L317.447 199.185L318.656 197.2H319.75L317.966 199.891L319.805 202.653H318.727L317.467 200.607L316.207 202.653H315.123L316.958 199.891L315.179 197.2H316.252ZM321.675 198.248V204.749H320.737V197.2H321.594L321.675 198.248ZM325.348 199.881V199.987C325.348 200.383 325.301 200.751 325.207 201.09C325.113 201.426 324.975 201.719 324.794 201.967C324.616 202.216 324.396 202.409 324.134 202.547C323.872 202.685 323.571 202.753 323.232 202.753C322.886 202.753 322.58 202.696 322.315 202.582C322.049 202.468 321.824 202.302 321.639 202.083C321.455 201.865 321.307 201.603 321.196 201.297C321.088 200.991 321.014 200.647 320.974 200.264V199.7C321.014 199.296 321.09 198.935 321.201 198.616C321.312 198.297 321.458 198.025 321.639 197.8C321.824 197.571 322.048 197.398 322.31 197.281C322.572 197.16 322.874 197.099 323.217 197.099C323.559 197.099 323.863 197.166 324.129 197.301C324.394 197.432 324.618 197.62 324.799 197.865C324.98 198.11 325.116 198.404 325.207 198.747C325.301 199.086 325.348 199.464 325.348 199.881ZM324.411 199.987V199.881C324.411 199.609 324.382 199.353 324.325 199.115C324.268 198.873 324.179 198.661 324.058 198.48C323.941 198.295 323.789 198.151 323.605 198.047C323.42 197.939 323.2 197.885 322.945 197.885C322.709 197.885 322.504 197.926 322.33 198.006C322.158 198.087 322.012 198.196 321.891 198.334C321.77 198.468 321.671 198.623 321.594 198.797C321.52 198.969 321.465 199.147 321.428 199.332V200.637C321.495 200.872 321.589 201.094 321.71 201.302C321.831 201.507 321.992 201.673 322.194 201.801C322.395 201.925 322.649 201.987 322.955 201.987C323.207 201.987 323.423 201.935 323.605 201.831C323.789 201.724 323.941 201.578 324.058 201.393C324.179 201.208 324.268 200.996 324.325 200.758C324.382 200.516 324.411 200.259 324.411 199.987ZM327.551 197.2V202.653H326.613V197.2H327.551ZM326.543 195.754C326.543 195.602 326.588 195.475 326.679 195.371C326.773 195.267 326.911 195.214 327.092 195.214C327.27 195.214 327.406 195.267 327.5 195.371C327.598 195.475 327.646 195.602 327.646 195.754C327.646 195.898 327.598 196.022 327.5 196.127C327.406 196.227 327.27 196.278 327.092 196.278C326.911 196.278 326.773 196.227 326.679 196.127C326.588 196.022 326.543 195.898 326.543 195.754ZM329.979 198.057V202.653H329.047V197.2H329.954L329.979 198.057ZM331.683 197.17L331.678 198.037C331.6 198.02 331.527 198.01 331.456 198.006C331.389 198 331.312 197.996 331.224 197.996C331.009 197.996 330.819 198.03 330.655 198.097C330.49 198.164 330.351 198.258 330.236 198.379C330.122 198.5 330.032 198.645 329.964 198.813C329.901 198.977 329.859 199.159 329.838 199.357L329.576 199.508C329.576 199.179 329.608 198.87 329.672 198.581C329.739 198.292 329.842 198.037 329.979 197.815C330.117 197.59 330.292 197.415 330.504 197.291C330.719 197.163 330.974 197.099 331.27 197.099C331.337 197.099 331.414 197.108 331.501 197.124C331.589 197.138 331.649 197.153 331.683 197.17ZM335.558 201.72V198.913C335.558 198.698 335.514 198.512 335.427 198.354C335.343 198.193 335.215 198.068 335.044 197.981C334.873 197.894 334.661 197.85 334.409 197.85C334.174 197.85 333.967 197.89 333.789 197.971C333.615 198.052 333.477 198.157 333.376 198.288C333.279 198.42 333.23 198.561 333.23 198.712H332.298C332.298 198.517 332.348 198.324 332.449 198.132C332.55 197.941 332.694 197.768 332.882 197.613C333.074 197.455 333.302 197.331 333.568 197.24C333.836 197.146 334.135 197.099 334.465 197.099C334.861 197.099 335.21 197.166 335.513 197.301C335.818 197.435 336.057 197.638 336.228 197.911C336.403 198.179 336.49 198.517 336.49 198.923V201.463C336.49 201.645 336.505 201.838 336.536 202.043C336.569 202.248 336.618 202.424 336.682 202.572V202.653H335.709C335.662 202.545 335.625 202.402 335.598 202.224C335.572 202.043 335.558 201.875 335.558 201.72ZM335.719 199.347L335.729 200.002H334.787C334.522 200.002 334.285 200.024 334.077 200.067C333.868 200.108 333.694 200.17 333.552 200.254C333.411 200.338 333.304 200.444 333.23 200.571C333.156 200.696 333.119 200.842 333.119 201.01C333.119 201.181 333.158 201.337 333.235 201.478C333.312 201.62 333.428 201.732 333.583 201.816C333.741 201.897 333.934 201.937 334.162 201.937C334.448 201.937 334.7 201.877 334.918 201.756C335.136 201.635 335.309 201.487 335.437 201.312C335.568 201.137 335.639 200.968 335.649 200.803L336.047 201.252C336.023 201.393 335.96 201.549 335.855 201.72C335.751 201.892 335.612 202.056 335.437 202.214C335.266 202.369 335.061 202.498 334.822 202.602C334.587 202.703 334.322 202.753 334.026 202.753C333.657 202.753 333.332 202.681 333.054 202.537C332.778 202.392 332.563 202.199 332.408 201.957C332.257 201.712 332.182 201.438 332.182 201.136C332.182 200.843 332.239 200.586 332.353 200.365C332.467 200.14 332.632 199.953 332.847 199.805C333.062 199.654 333.321 199.54 333.623 199.463C333.925 199.385 334.263 199.347 334.636 199.347H335.719ZM340.24 197.2V197.916H337.292V197.2H340.24ZM338.289 195.875H339.222V201.302C339.222 201.487 339.25 201.626 339.307 201.72C339.364 201.814 339.438 201.877 339.529 201.907C339.62 201.937 339.717 201.952 339.821 201.952C339.899 201.952 339.979 201.945 340.063 201.932C340.151 201.915 340.216 201.902 340.26 201.892L340.265 202.653C340.191 202.676 340.094 202.698 339.973 202.718C339.855 202.742 339.712 202.753 339.544 202.753C339.316 202.753 339.106 202.708 338.914 202.617C338.723 202.527 338.57 202.375 338.456 202.164C338.345 201.949 338.289 201.66 338.289 201.297V195.875ZM342.346 197.2V202.653H341.409V197.2H342.346ZM341.338 195.754C341.338 195.602 341.384 195.475 341.474 195.371C341.568 195.267 341.706 195.214 341.888 195.214C342.066 195.214 342.202 195.267 342.296 195.371C342.393 195.475 342.442 195.602 342.442 195.754C342.442 195.898 342.393 196.022 342.296 196.127C342.202 196.227 342.066 196.278 341.888 196.278C341.706 196.278 341.568 196.227 341.474 196.127C341.384 196.022 341.338 195.898 341.338 195.754ZM343.596 199.987V199.871C343.596 199.478 343.653 199.113 343.767 198.777C343.881 198.438 344.046 198.144 344.261 197.895C344.476 197.643 344.736 197.449 345.042 197.311C345.348 197.17 345.691 197.099 346.07 197.099C346.453 197.099 346.798 197.17 347.103 197.311C347.412 197.449 347.674 197.643 347.889 197.895C348.108 198.144 348.274 198.438 348.388 198.777C348.503 199.113 348.56 199.478 348.56 199.871V199.987C348.56 200.38 348.503 200.744 348.388 201.08C348.274 201.416 348.108 201.71 347.889 201.962C347.674 202.211 347.414 202.406 347.108 202.547C346.806 202.685 346.463 202.753 346.08 202.753C345.697 202.753 345.353 202.685 345.047 202.547C344.742 202.406 344.479 202.211 344.261 201.962C344.046 201.71 343.881 201.416 343.767 201.08C343.653 200.744 343.596 200.38 343.596 199.987ZM344.528 199.871V199.987C344.528 200.259 344.56 200.516 344.624 200.758C344.688 200.996 344.784 201.208 344.911 201.393C345.042 201.578 345.205 201.724 345.4 201.831C345.595 201.935 345.822 201.987 346.08 201.987C346.336 201.987 346.559 201.935 346.751 201.831C346.945 201.724 347.107 201.578 347.234 201.393C347.362 201.208 347.458 200.996 347.522 200.758C347.589 200.516 347.622 200.259 347.622 199.987V199.871C347.622 199.602 347.589 199.348 347.522 199.11C347.458 198.868 347.36 198.655 347.229 198.47C347.102 198.282 346.94 198.134 346.746 198.026C346.554 197.919 346.329 197.865 346.07 197.865C345.815 197.865 345.59 197.919 345.395 198.026C345.203 198.134 345.042 198.282 344.911 198.47C344.784 198.655 344.688 198.868 344.624 199.11C344.56 199.348 344.528 199.602 344.528 199.871ZM350.661 198.364V202.653H349.729V197.2H350.611L350.661 198.364ZM350.439 199.72L350.051 199.705C350.055 199.332 350.11 198.987 350.218 198.671C350.325 198.352 350.476 198.075 350.671 197.84C350.866 197.605 351.098 197.423 351.367 197.296C351.639 197.165 351.939 197.099 352.269 197.099C352.537 197.099 352.779 197.136 352.994 197.21C353.209 197.281 353.392 197.395 353.544 197.553C353.698 197.711 353.816 197.916 353.896 198.168C353.977 198.416 354.017 198.72 354.017 199.08V202.653H353.08V199.07C353.08 198.784 353.038 198.556 352.954 198.384C352.87 198.21 352.747 198.084 352.586 198.006C352.425 197.926 352.227 197.885 351.992 197.885C351.76 197.885 351.548 197.934 351.357 198.031C351.168 198.129 351.005 198.263 350.868 198.435C350.733 198.606 350.628 198.803 350.55 199.024C350.476 199.243 350.439 199.474 350.439 199.72Z" fill="#ECECEC"/>
<path d="M320.911 223.938C319.892 223.938 319.001 223.69 318.238 223.195C317.481 222.7 316.889 221.953 316.463 220.955C316.043 219.958 315.833 218.709 315.833 217.209C315.833 215.709 316.043 214.464 316.463 213.473C316.889 212.475 317.481 211.732 318.238 211.244C319.001 210.748 319.892 210.501 320.911 210.501C321.922 210.501 322.81 210.748 323.573 211.244C324.337 211.732 324.929 212.475 325.349 213.473C325.775 214.464 325.989 215.709 325.989 217.209C325.989 218.709 325.775 219.958 325.349 220.955C324.929 221.953 324.337 222.7 323.573 223.195C322.81 223.69 321.922 223.938 320.911 223.938ZM320.911 222.452C322.025 222.452 322.872 221.998 323.45 221.09C324.028 220.175 324.317 218.881 324.317 217.209C324.317 215.537 324.028 214.247 323.45 213.339C322.872 212.424 322.025 211.966 320.911 211.966C319.81 211.966 318.967 212.424 318.382 213.339C317.797 214.247 317.505 215.537 317.505 217.209C317.505 218.881 317.797 220.175 318.382 221.09C318.967 221.998 319.81 222.452 320.911 222.452ZM333.249 223.938C332.21 223.938 331.302 223.653 330.524 223.082C329.754 222.51 329.155 221.736 328.729 220.759C328.302 219.775 328.089 218.668 328.089 217.436C328.089 215.984 328.305 214.742 328.739 213.71C329.172 212.671 329.792 211.877 330.597 211.326C331.402 210.776 332.362 210.501 333.476 210.501C334.247 210.501 334.924 210.649 335.509 210.944C336.101 211.233 336.572 211.639 336.923 212.162C337.281 212.685 337.494 213.294 337.563 213.989H335.809C335.705 213.37 335.471 212.878 335.107 212.513C334.742 212.149 334.212 211.966 333.517 211.966C332.334 211.966 331.405 212.479 330.731 213.504C330.057 214.522 329.719 215.916 329.719 217.684C329.719 217.938 329.726 218.234 329.74 218.571C329.754 218.902 329.781 219.211 329.823 219.5C329.885 218.585 330.094 217.866 330.452 217.343C330.817 216.813 331.271 216.438 331.815 216.218C332.358 215.998 332.933 215.888 333.538 215.888C334.322 215.888 335.024 216.06 335.643 216.404C336.27 216.748 336.762 217.226 337.119 217.839C337.484 218.444 337.666 219.142 337.666 219.934C337.666 220.732 337.481 221.434 337.109 222.039C336.737 222.638 336.218 223.106 335.551 223.443C334.89 223.773 334.123 223.938 333.249 223.938ZM333.249 222.452C334.033 222.452 334.684 222.221 335.2 221.76C335.716 221.299 335.974 220.677 335.974 219.892C335.974 219.087 335.716 218.458 335.2 218.004C334.684 217.543 334.033 217.312 333.249 217.312C332.733 217.312 332.272 217.426 331.866 217.653C331.46 217.873 331.137 218.179 330.896 218.571C330.662 218.957 330.545 219.397 330.545 219.892C330.545 220.677 330.803 221.299 331.319 221.76C331.835 222.221 332.478 222.452 333.249 222.452ZM340.025 225.177L345.206 208.602H346.857L341.635 225.177H340.025ZM349.079 223.69V221.771C349.079 221.021 349.199 220.395 349.44 219.892C349.688 219.39 350.032 218.974 350.472 218.644C350.92 218.313 351.446 218.028 352.051 217.787L354.611 216.776C355.271 216.507 355.767 216.163 356.097 215.744C356.427 215.324 356.592 214.801 356.592 214.175C356.592 213.514 356.362 212.974 355.901 212.554C355.447 212.135 354.81 211.925 353.992 211.925C353.18 211.925 352.512 212.1 351.989 212.451C351.473 212.795 351.178 213.315 351.102 214.01H349.306C349.354 213.26 349.574 212.623 349.967 212.1C350.366 211.577 350.906 211.182 351.587 210.913C352.268 210.638 353.063 210.501 353.971 210.501C354.804 210.501 355.55 210.662 356.211 210.986C356.871 211.309 357.391 211.756 357.769 212.327C358.154 212.892 358.347 213.542 358.347 214.278C358.347 214.945 358.223 215.527 357.975 216.022C357.728 216.518 357.373 216.944 356.912 217.302C356.458 217.66 355.918 217.966 355.292 218.22L352.671 219.273C352.01 219.528 351.515 219.834 351.184 220.192C350.854 220.55 350.689 221.014 350.689 221.585V222.204H358.223V223.69H349.079ZM361.032 223.69V221.771C361.032 221.021 361.153 220.395 361.394 219.892C361.641 219.39 361.985 218.974 362.426 218.644C362.873 218.313 363.399 218.028 364.005 217.787L366.564 216.776C367.225 216.507 367.72 216.163 368.05 215.744C368.381 215.324 368.546 214.801 368.546 214.175C368.546 213.514 368.315 212.974 367.854 212.554C367.4 212.135 366.764 211.925 365.945 211.925C365.133 211.925 364.466 212.1 363.943 212.451C363.427 212.795 363.131 213.315 363.055 214.01H361.259C361.308 213.26 361.528 212.623 361.92 212.1C362.319 211.577 362.859 211.182 363.54 210.913C364.222 210.638 365.016 210.501 365.924 210.501C366.757 210.501 367.503 210.662 368.164 210.986C368.825 211.309 369.344 211.756 369.722 212.327C370.108 212.892 370.3 213.542 370.3 214.278C370.3 214.945 370.177 215.527 369.929 216.022C369.681 216.518 369.327 216.944 368.866 217.302C368.412 217.66 367.872 217.966 367.245 218.22L364.624 219.273C363.964 219.528 363.468 219.834 363.138 220.192C362.808 220.55 362.642 221.014 362.642 221.585V222.204H370.177V223.69H361.032Z" fill="white"/>
<path d="M37.613 210.728H39.5326L46.1172 221.399H45.9727V210.728H47.5827V223.69H45.7869L38.9753 212.668H39.223V223.69H37.613V210.728ZM57.8537 223.69L57.6473 221.523V217.292C57.6473 216.404 57.4581 215.768 57.0796 215.382C56.7012 214.99 56.1336 214.794 55.3767 214.794C54.9501 214.794 54.5614 214.856 54.2105 214.98C53.8665 215.104 53.5913 215.296 53.3849 215.558C53.1853 215.812 53.0856 216.143 53.0856 216.549H51.2898C51.2898 215.833 51.4652 215.258 51.8161 214.825C52.167 214.385 52.6486 214.068 53.261 213.875C53.8802 213.676 54.5855 213.576 55.3767 213.576C56.1336 213.576 56.8044 213.703 57.3893 213.958C57.9741 214.213 58.4316 214.619 58.7619 215.176C59.0922 215.726 59.2573 216.445 59.2573 217.333V223.69H57.8537ZM54.4892 223.938C53.6773 223.938 53.0064 223.794 52.4766 223.505C51.9468 223.216 51.5512 222.841 51.2898 222.38C51.0283 221.919 50.8976 221.434 50.8976 220.924C50.8976 220.257 51.0627 219.714 51.393 219.294C51.7301 218.874 52.1877 218.568 52.7656 218.375C53.3436 218.176 53.9938 218.076 54.7162 218.076C55.2322 218.076 55.7483 218.128 56.2643 218.231C56.7872 218.334 57.2964 218.475 57.7918 218.654V219.665C57.3789 219.5 56.9111 219.37 56.3882 219.273C55.8721 219.177 55.3974 219.129 54.9639 219.129C54.3034 219.129 53.7461 219.266 53.292 219.542C52.8379 219.81 52.6108 220.271 52.6108 220.924C52.6108 221.406 52.7828 221.819 53.1268 222.163C53.4777 222.507 54.0351 222.679 54.7988 222.679C55.3355 222.679 55.8171 222.555 56.2437 222.307C56.6771 222.053 57.0177 221.736 57.2654 221.358C57.52 220.98 57.6473 220.601 57.6473 220.223H58.0395C58.0395 220.883 57.895 221.496 57.606 222.06C57.3239 222.624 56.918 223.078 56.3882 223.422C55.8584 223.766 55.2254 223.938 54.4892 223.938ZM76.9837 223.69V217.89C76.9837 216.948 76.7566 216.232 76.3025 215.744C75.8553 215.248 75.2498 215 74.4861 215C73.5916 215 72.907 215.348 72.4323 216.043C71.9575 216.731 71.7201 217.684 71.7201 218.902H70.977C70.977 218.014 71.0631 217.237 71.2351 216.569C71.414 215.902 71.672 215.348 72.0091 214.908C72.3463 214.46 72.7556 214.127 73.2373 213.906C73.7189 213.686 74.2659 213.576 74.8783 213.576C75.6557 213.576 76.3197 213.752 76.8701 214.103C77.4275 214.447 77.854 214.942 78.1499 215.589C78.4458 216.235 78.5937 217.003 78.5937 217.89V223.69H76.9837ZM63.1127 223.69V213.824H64.4957L64.6814 215.805C64.9911 215.09 65.4245 214.539 65.9819 214.154C66.546 213.769 67.2203 213.576 68.0047 213.576C68.7822 213.576 69.4462 213.752 69.9966 214.103C70.5539 214.447 70.9805 214.942 71.2763 215.589C71.5722 216.235 71.7201 217.003 71.7201 217.89V223.69H70.1308V217.89C70.1308 216.948 69.9037 216.232 69.4496 215.744C69.0024 215.248 68.39 215 67.6125 215C67.0208 215 66.5082 215.162 66.0747 215.486C65.6413 215.809 65.3076 216.273 65.0736 216.879C64.8397 217.477 64.7227 218.193 64.7227 219.025V223.69H63.1127ZM85.8501 223.938C84.9969 223.938 84.2332 223.721 83.5589 223.288C82.8915 222.848 82.3617 222.239 81.9695 221.461C81.5842 220.684 81.3916 219.789 81.3916 218.778C81.3916 217.698 81.5842 216.769 81.9695 215.991C82.3548 215.214 82.8812 214.619 83.5486 214.206C84.2228 213.786 84.99 213.576 85.8501 213.576C86.6 213.576 87.2399 213.728 87.7697 214.03C88.2995 214.333 88.7261 214.742 89.0495 215.258C89.3729 215.774 89.5965 216.359 89.7203 217.013C89.851 217.66 89.8889 218.331 89.8338 219.025H82.692V218.035H88.7708L88.2961 218.344C88.3167 217.938 88.2926 217.532 88.2238 217.126C88.1619 216.721 88.0415 216.349 87.8626 216.012C87.6837 215.668 87.4326 215.393 87.1092 215.186C86.7858 214.98 86.373 214.877 85.8707 214.877C85.2377 214.877 84.7079 215.038 84.2813 215.362C83.8547 215.685 83.5348 216.112 83.3215 216.641C83.1082 217.164 83.0016 217.732 83.0016 218.344V219.005C83.0016 219.693 83.1048 220.309 83.3112 220.852C83.5245 221.396 83.841 221.826 84.2607 222.142C84.6804 222.459 85.2102 222.617 85.8501 222.617C86.49 222.617 87.0163 222.462 87.4291 222.153C87.842 221.843 88.0931 221.385 88.1825 220.78H89.8545C89.7513 221.434 89.5173 221.998 89.1527 222.473C88.788 222.94 88.3236 223.302 87.7594 223.556C87.1952 223.811 86.5588 223.938 85.8501 223.938ZM99.5348 210.728V222.287H105.314V223.69H97.9248V210.728H99.5348ZM113.69 223.69L113.484 221.523V217.292C113.484 216.404 113.294 215.768 112.916 215.382C112.538 214.99 111.97 214.794 111.213 214.794C110.786 214.794 110.398 214.856 110.047 214.98C109.703 215.104 109.428 215.296 109.221 215.558C109.022 215.812 108.922 216.143 108.922 216.549H107.126C107.126 215.833 107.302 215.258 107.652 214.825C108.003 214.385 108.485 214.068 109.097 213.875C109.717 213.676 110.422 213.576 111.213 213.576C111.97 213.576 112.641 213.703 113.226 213.958C113.81 214.213 114.268 214.619 114.598 215.176C114.929 215.726 115.094 216.445 115.094 217.333V223.69H113.69ZM110.326 223.938C109.514 223.938 108.843 223.794 108.313 223.505C107.783 223.216 107.388 222.841 107.126 222.38C106.865 221.919 106.734 221.434 106.734 220.924C106.734 220.257 106.899 219.714 107.229 219.294C107.566 218.874 108.024 218.568 108.602 218.375C109.18 218.176 109.83 218.076 110.553 218.076C111.069 218.076 111.585 218.128 112.101 218.231C112.624 218.334 113.133 218.475 113.628 218.654V219.665C113.215 219.5 112.747 219.37 112.225 219.273C111.708 219.177 111.234 219.129 110.8 219.129C110.14 219.129 109.582 219.266 109.128 219.542C108.674 219.81 108.447 220.271 108.447 220.924C108.447 221.406 108.619 221.819 108.963 222.163C109.314 222.507 109.871 222.679 110.635 222.679C111.172 222.679 111.653 222.555 112.08 222.307C112.513 222.053 112.854 221.736 113.102 221.358C113.356 220.98 113.484 220.601 113.484 220.223H113.876C113.876 220.883 113.731 221.496 113.442 222.06C113.16 222.624 112.754 223.078 112.225 223.422C111.695 223.766 111.062 223.938 110.326 223.938ZM122.499 223.938C121.543 223.938 120.745 223.804 120.105 223.536C119.465 223.26 118.98 222.885 118.65 222.411C118.319 221.929 118.144 221.379 118.123 220.759H119.671C119.706 221.385 119.957 221.857 120.425 222.173C120.9 222.483 121.543 222.638 122.355 222.638C122.781 222.638 123.174 222.569 123.531 222.431C123.889 222.294 124.175 222.104 124.388 221.864C124.601 221.623 124.708 221.351 124.708 221.048C124.708 220.663 124.567 220.36 124.285 220.14C124.003 219.92 123.552 219.727 122.933 219.562L121.013 218.943C120.181 218.681 119.541 218.324 119.094 217.87C118.653 217.409 118.433 216.858 118.433 216.218C118.433 215.42 118.784 214.78 119.486 214.299C120.188 213.817 121.11 213.576 122.252 213.576C123.463 213.576 124.402 213.824 125.069 214.319C125.737 214.815 126.084 215.434 126.112 216.177H124.522C124.46 215.744 124.24 215.417 123.862 215.197C123.483 214.969 122.947 214.856 122.252 214.856C121.584 214.856 121.061 215.007 120.683 215.31C120.311 215.606 120.126 215.936 120.126 216.301C120.126 216.982 120.71 217.484 121.88 217.808L123.841 218.468C124.687 218.723 125.334 219.056 125.781 219.469C126.235 219.882 126.462 220.408 126.462 221.048C126.462 221.544 126.301 222.012 125.977 222.452C125.654 222.892 125.196 223.25 124.605 223.525C124.013 223.801 123.311 223.938 122.499 223.938ZM132.828 223.938C132.291 223.938 131.81 223.835 131.383 223.629C130.957 223.422 130.619 223.112 130.372 222.7C130.124 222.287 130 221.771 130 221.152V211.079H131.59V221.11C131.59 222.129 132.064 222.638 133.014 222.638C133.296 222.638 133.568 222.607 133.829 222.545C134.098 222.483 134.397 222.39 134.727 222.266L134.954 223.422C134.603 223.573 134.252 223.697 133.901 223.794C133.557 223.89 133.2 223.938 132.828 223.938ZM128.411 214.939V213.824H134.706V214.939H128.411ZM144.572 223.69V217.89C144.572 216.948 144.345 216.232 143.891 215.744C143.444 215.248 142.832 215 142.054 215C141.463 215 140.95 215.162 140.516 215.486C140.083 215.809 139.749 216.273 139.515 216.879C139.281 217.477 139.164 218.193 139.164 219.025H138.545C138.545 217.876 138.697 216.896 138.999 216.084C139.302 215.272 139.742 214.653 140.32 214.226C140.905 213.793 141.614 213.576 142.446 213.576C143.224 213.576 143.888 213.752 144.438 214.103C144.996 214.447 145.422 214.942 145.718 215.589C146.014 216.235 146.162 217.003 146.162 217.89V223.69H144.572ZM137.554 223.69V213.824H138.937L139.164 216.094V223.69H137.554ZM156.122 223.69L155.915 221.523V217.292C155.915 216.404 155.726 215.768 155.348 215.382C154.969 214.99 154.402 214.794 153.645 214.794C153.218 214.794 152.829 214.856 152.478 214.98C152.134 215.104 151.859 215.296 151.653 215.558C151.453 215.812 151.353 216.143 151.353 216.549H149.558C149.558 215.833 149.733 215.258 150.084 214.825C150.435 214.385 150.917 214.068 151.529 213.875C152.148 213.676 152.853 213.576 153.645 213.576C154.402 213.576 155.072 213.703 155.657 213.958C156.242 214.213 156.7 214.619 157.03 215.176C157.36 215.726 157.525 216.445 157.525 217.333V223.69H156.122ZM152.757 223.938C151.945 223.938 151.274 223.794 150.745 223.505C150.215 223.216 149.819 222.841 149.558 222.38C149.296 221.919 149.166 221.434 149.166 220.924C149.166 220.257 149.331 219.714 149.661 219.294C149.998 218.874 150.456 218.568 151.034 218.375C151.611 218.176 152.262 218.076 152.984 218.076C153.5 218.076 154.016 218.128 154.532 218.231C155.055 218.334 155.564 218.475 156.06 218.654V219.665C155.647 219.5 155.179 219.37 154.656 219.273C154.14 219.177 153.665 219.129 153.232 219.129C152.571 219.129 152.014 219.266 151.56 219.542C151.106 219.81 150.879 220.271 150.879 220.924C150.879 221.406 151.051 221.819 151.395 222.163C151.746 222.507 152.303 222.679 153.067 222.679C153.603 222.679 154.085 222.555 154.512 222.307C154.945 222.053 155.286 221.736 155.533 221.358C155.788 220.98 155.915 220.601 155.915 220.223H156.307C156.307 220.883 156.163 221.496 155.874 222.06C155.592 222.624 155.186 223.078 154.656 223.422C154.126 223.766 153.493 223.938 152.757 223.938ZM175.252 223.69V217.89C175.252 216.948 175.025 216.232 174.57 215.744C174.123 215.248 173.518 215 172.754 215C171.86 215 171.175 215.348 170.7 216.043C170.225 216.731 169.988 217.684 169.988 218.902H169.245C169.245 218.014 169.331 217.237 169.503 216.569C169.682 215.902 169.94 215.348 170.277 214.908C170.614 214.46 171.024 214.127 171.505 213.906C171.987 213.686 172.534 213.576 173.146 213.576C173.924 213.576 174.588 213.752 175.138 214.103C175.695 214.447 176.122 214.942 176.418 215.589C176.714 216.235 176.862 217.003 176.862 217.89V223.69H175.252ZM161.381 223.69V213.824H162.764L162.949 215.805C163.259 215.09 163.692 214.539 164.25 214.154C164.814 213.769 165.488 213.576 166.273 213.576C167.05 213.576 167.714 213.752 168.265 214.103C168.822 214.447 169.248 214.942 169.544 215.589C169.84 216.235 169.988 217.003 169.988 217.89V223.69H168.399V217.89C168.399 216.948 168.172 216.232 167.718 215.744C167.27 215.248 166.658 215 165.88 215C165.289 215 164.776 215.162 164.343 215.486C163.909 215.809 163.575 216.273 163.342 216.879C163.108 217.477 162.991 218.193 162.991 219.025V223.69H161.381ZM184.118 223.938C183.265 223.938 182.501 223.721 181.827 223.288C181.159 222.848 180.63 222.239 180.237 221.461C179.852 220.684 179.659 219.789 179.659 218.778C179.659 217.698 179.852 216.769 180.237 215.991C180.623 215.214 181.149 214.619 181.816 214.206C182.491 213.786 183.258 213.576 184.118 213.576C184.868 213.576 185.508 213.728 186.038 214.03C186.567 214.333 186.994 214.742 187.317 215.258C187.641 215.774 187.864 216.359 187.988 217.013C188.119 217.66 188.157 218.331 188.102 219.025H180.96V218.035H187.039L186.564 218.344C186.585 217.938 186.561 217.532 186.492 217.126C186.43 216.721 186.309 216.349 186.131 216.012C185.952 215.668 185.7 215.393 185.377 215.186C185.054 214.98 184.641 214.877 184.139 214.877C183.506 214.877 182.976 215.038 182.549 215.362C182.123 215.685 181.803 216.112 181.589 216.641C181.376 217.164 181.269 217.732 181.269 218.344V219.005C181.269 219.693 181.373 220.309 181.579 220.852C181.792 221.396 182.109 221.826 182.529 222.142C182.948 222.459 183.478 222.617 184.118 222.617C184.758 222.617 185.284 222.462 185.697 222.153C186.11 221.843 186.361 221.385 186.45 220.78H188.122C188.019 221.434 187.785 221.998 187.421 222.473C187.056 222.94 186.592 223.302 186.027 223.556C185.463 223.811 184.827 223.938 184.118 223.938Z" fill="white"/>
<path d="M38.6657 161.907C38.4907 161.928 38.3132 161.912 38.1449 161.86C37.9766 161.807 37.8213 161.72 37.6893 161.603C37.5573 161.486 37.4517 161.343 37.3793 161.182C37.3069 161.021 37.2695 160.847 37.2695 160.671C37.2695 160.494 37.3069 160.32 37.3793 160.159C37.4517 159.999 37.5573 159.855 37.6893 159.738C37.8213 159.621 37.9766 159.534 38.1449 159.481C38.3132 159.429 38.4907 159.413 38.6657 159.434H47.164C47.4907 159.427 47.8156 159.485 48.119 159.607C48.4224 159.729 48.6979 159.911 48.9291 160.142C49.1602 160.373 49.342 160.648 49.4636 160.952C49.5852 161.255 49.644 161.58 49.6365 161.907V166.651C49.0247 167.3 48.684 168.159 48.684 169.051C48.684 169.943 49.0247 170.801 49.6365 171.45V176.194C49.644 176.521 49.5852 176.846 49.4636 177.149C49.342 177.453 49.1602 177.728 48.9291 177.96C48.6979 178.191 48.4224 178.373 48.119 178.494C47.8156 178.616 47.4907 178.675 47.164 178.667H38.6657C38.4907 178.688 38.3132 178.672 38.1449 178.62C37.9766 178.568 37.8213 178.48 37.6893 178.363C37.5573 178.246 37.4517 178.103 37.3793 177.942C37.3069 177.781 37.2695 177.607 37.2695 177.431C37.2695 177.254 37.3069 177.08 37.3793 176.919C37.4517 176.759 37.5573 176.615 37.6893 176.498C37.8213 176.381 37.9766 176.294 38.1449 176.241C38.3132 176.189 38.4907 176.173 38.6657 176.194H47.164V172.091C47.164 170.699 46.6328 170.26 45.9368 170.26H41.0833C40.7813 170.223 40.5033 170.077 40.3016 169.849C40.1 169.621 39.9886 169.327 39.9886 169.023C39.9886 168.719 40.1 168.425 40.3016 168.197C40.5033 167.97 40.7813 167.824 41.0833 167.787H45.9368C46.6328 167.787 47.164 167.365 47.164 165.955V161.907H38.6657Z" fill="white"/>
<path d="M64.9667 176.194V171.194C64.9453 171.026 64.9628 170.855 65.0181 170.695C65.0734 170.535 65.1649 170.39 65.2855 170.272C65.406 170.153 65.5523 170.063 65.7131 170.011C65.8738 169.958 66.0446 169.943 66.2121 169.966C66.379 169.942 66.5493 169.957 66.7094 170.009C66.8696 170.062 67.0151 170.152 67.1344 170.271C67.2536 170.391 67.3433 170.536 67.3963 170.696C67.4492 170.856 67.4639 171.027 67.4392 171.194V177.421C67.456 177.588 67.436 177.755 67.3805 177.913C67.325 178.07 67.2355 178.214 67.1183 178.333C67.0011 178.452 66.8592 178.543 66.7025 178.601C66.5459 178.659 66.3785 178.681 66.2121 178.667H56.4685C56.2935 178.688 56.116 178.672 55.9476 178.62C55.7793 178.568 55.624 178.48 55.4921 178.363C55.3601 178.246 55.2544 178.103 55.182 177.942C55.1097 177.781 55.0723 177.607 55.0723 177.431C55.0723 177.254 55.1097 177.08 55.182 176.919C55.2544 176.759 55.3601 176.615 55.4921 176.498C55.624 176.381 55.7793 176.294 55.9476 176.241C56.116 176.189 56.2935 176.173 56.4685 176.194H60.1315V161.907H56.4685C56.2935 161.928 56.116 161.912 55.9476 161.86C55.7793 161.807 55.624 161.72 55.4921 161.603C55.3601 161.486 55.2544 161.343 55.182 161.182C55.1097 161.021 55.0723 160.847 55.0723 160.671C55.0723 160.494 55.1097 160.32 55.182 160.159C55.2544 159.999 55.3601 159.855 55.4921 159.738C55.624 159.621 55.7793 159.534 55.9476 159.481C56.116 159.429 56.2935 159.413 56.4685 159.434H62.5674V176.194H64.9667Z" fill="white"/>
<path d="M81.5235 169.967V162.823C81.5235 162.493 81.6547 162.176 81.8883 161.942C82.1219 161.709 82.4386 161.578 82.769 161.578C83.0993 161.578 83.416 161.709 83.6496 161.942C83.8832 162.176 84.0144 162.493 84.0144 162.823V169.967C84.3163 170.004 84.5944 170.15 84.796 170.377C84.9977 170.605 85.1091 170.899 85.1091 171.203C85.1091 171.507 84.9977 171.801 84.796 172.029C84.5944 172.257 84.3163 172.403 84.0144 172.44V177.477C84.0144 177.807 83.8832 178.124 83.6496 178.357C83.416 178.591 83.0993 178.722 82.769 178.722C82.4386 178.722 82.1219 178.591 81.8883 178.357C81.6547 178.124 81.5235 177.807 81.5235 177.477V172.44H74.1974V160.717C74.1802 160.551 74.2001 160.384 74.2556 160.227C74.3112 160.071 74.401 159.928 74.5186 159.811C74.6362 159.693 74.7786 159.603 74.9353 159.548C75.092 159.492 75.2592 159.472 75.4246 159.489C75.5907 159.473 75.7584 159.493 75.9159 159.548C76.0734 159.604 76.2167 159.693 76.3356 159.81C76.4545 159.928 76.5462 160.07 76.604 160.226C76.6618 160.383 76.6843 160.55 76.67 160.717V169.967H81.5235Z" fill="white"/>
<path d="M100.571 176.193V171.192C100.55 171.025 100.567 170.854 100.623 170.694C100.678 170.534 100.769 170.389 100.89 170.27C101.011 170.151 101.157 170.062 101.318 170.009C101.478 169.956 101.649 169.941 101.817 169.965C101.983 169.94 102.154 169.955 102.314 170.008C102.474 170.061 102.62 170.151 102.739 170.27C102.858 170.389 102.948 170.535 103.001 170.695C103.054 170.855 103.068 171.026 103.044 171.192V177.42C103.061 177.586 103.04 177.754 102.985 177.912C102.929 178.069 102.84 178.212 102.723 178.331C102.606 178.45 102.464 178.542 102.307 178.6C102.15 178.657 101.983 178.68 101.817 178.666H92.0546C91.7527 178.629 91.4746 178.483 91.273 178.255C91.0713 178.027 90.96 177.734 90.96 177.429C90.96 177.125 91.0713 176.831 91.273 176.604C91.4746 176.376 91.7527 176.23 92.0546 176.193H95.7177V161.906H92.0546C91.7527 161.869 91.4746 161.723 91.273 161.495C91.0713 161.267 90.96 160.973 90.96 160.669C90.96 160.365 91.0713 160.071 91.273 159.844C91.4746 159.616 91.7527 159.47 92.0546 159.433H98.1719V176.193H100.571Z" fill="white"/>
<path d="M131.358 167.805H135.901C136.261 167.774 136.624 167.82 136.965 167.94C137.306 168.06 137.617 168.251 137.879 168.501C138.166 168.765 138.386 169.094 138.52 169.461C138.654 169.827 138.698 170.221 138.648 170.608V175.901C138.712 176.594 138.502 177.285 138.062 177.824C137.802 178.136 137.468 178.377 137.09 178.524C136.712 178.672 136.303 178.721 135.901 178.667H130.406C129.836 178.649 129.278 178.499 128.776 178.227L127.842 177.806C127.164 177.513 126.432 177.275 126.432 176.414C126.436 176.096 126.562 175.792 126.783 175.564C127.004 175.336 127.305 175.201 127.622 175.187C127.894 175.193 128.163 175.255 128.41 175.37L129.142 175.7C129.551 175.937 129.997 176.104 130.461 176.194H136.175V170.278H128.849V159.434H137.329C137.504 159.413 137.682 159.429 137.85 159.481C138.018 159.534 138.174 159.621 138.306 159.738C138.438 159.855 138.543 159.999 138.616 160.159C138.688 160.32 138.725 160.494 138.725 160.671C138.725 160.847 138.688 161.021 138.616 161.182C138.543 161.343 138.438 161.486 138.306 161.603C138.174 161.72 138.018 161.807 137.85 161.86C137.682 161.912 137.504 161.928 137.329 161.907H131.285L131.358 167.805Z" fill="white"/>
<path d="M153.978 168.225H145.48C145.154 168.22 144.843 168.09 144.611 167.862C144.379 167.633 144.244 167.323 144.234 166.998V160.66C144.244 160.334 144.379 160.025 144.611 159.796C144.843 159.568 145.154 159.437 145.48 159.433H155.205C155.531 159.437 155.842 159.568 156.074 159.796C156.306 160.025 156.441 160.334 156.451 160.66V177.42C156.456 177.585 156.427 177.749 156.366 177.903C156.305 178.056 156.214 178.195 156.097 178.312C155.98 178.429 155.841 178.52 155.688 178.581C155.534 178.642 155.37 178.671 155.205 178.666H153.978C153.813 178.671 153.649 178.642 153.496 178.581C153.342 178.52 153.203 178.429 153.086 178.312C152.969 178.195 152.878 178.056 152.817 177.903C152.756 177.749 152.728 177.585 152.733 177.42C152.727 177.256 152.756 177.093 152.817 176.94C152.878 176.788 152.97 176.649 153.087 176.534C153.204 176.419 153.343 176.329 153.497 176.27C153.65 176.212 153.814 176.185 153.978 176.193V168.225ZM153.978 165.752V161.906H146.652V165.752H153.978Z" fill="white"/>
<path d="M164.509 176.194H173.008C173.183 176.173 173.36 176.189 173.528 176.241C173.697 176.293 173.852 176.381 173.984 176.498C174.116 176.615 174.222 176.758 174.294 176.919C174.366 177.08 174.404 177.254 174.404 177.43C174.404 177.607 174.366 177.781 174.294 177.942C174.222 178.102 174.116 178.246 173.984 178.363C173.852 178.48 173.697 178.567 173.528 178.62C173.36 178.672 173.183 178.688 173.008 178.667H162.018V170.607C161.964 170.228 161.998 169.842 162.118 169.478C162.239 169.114 162.442 168.784 162.712 168.512C162.982 168.24 163.311 168.035 163.674 167.912C164.037 167.789 164.423 167.753 164.802 167.805H171.762V161.907H163.246C162.944 161.87 162.666 161.724 162.464 161.496C162.262 161.268 162.151 160.975 162.151 160.67C162.151 160.366 162.262 160.072 162.464 159.845C162.666 159.617 162.944 159.471 163.246 159.434H171.451C171.815 159.404 172.181 159.449 172.528 159.566C172.874 159.682 173.193 159.868 173.465 160.112C173.756 160.397 173.977 160.745 174.11 161.13C174.243 161.514 174.286 161.924 174.235 162.328V167.384C174.29 167.767 174.257 168.158 174.138 168.526C174.019 168.895 173.818 169.231 173.549 169.51C173.281 169.789 172.952 170.004 172.589 170.137C172.225 170.27 171.836 170.318 171.451 170.278H164.491L164.509 176.194Z" fill="white"/>
<path d="M182.311 169.967H190.572C191.799 169.967 192.055 170.498 192.055 171.615V177.11C192.055 178.264 191.561 178.667 190.443 178.667H181.432C180.278 178.667 179.839 178.246 179.839 177.11V160.625C179.839 160.057 180.022 159.398 180.901 159.398H182.385C182.699 159.412 182.995 159.548 183.211 159.777C183.426 160.006 183.544 160.31 183.539 160.625C183.549 160.79 183.525 160.955 183.467 161.109C183.409 161.264 183.32 161.405 183.204 161.522C183.088 161.64 182.949 161.732 182.795 161.792C182.641 161.852 182.476 161.879 182.311 161.87V169.967ZM182.311 172.439V176.249H189.637V172.439H182.311Z" fill="white"/>
<path d="M220.352 167.804H224.912C225.272 167.774 225.635 167.82 225.976 167.94C226.317 168.06 226.628 168.251 226.89 168.5C227.172 168.767 227.387 169.097 227.518 169.463C227.648 169.829 227.69 170.221 227.641 170.606V175.9C227.705 176.593 227.495 177.284 227.055 177.823C226.798 178.133 226.467 178.373 226.092 178.521C225.718 178.668 225.312 178.718 224.912 178.666H219.418C218.848 178.648 218.289 178.498 217.788 178.226L216.854 177.805C216.176 177.512 215.443 177.274 215.443 176.413C215.443 176.097 215.565 175.792 215.783 175.564C216.002 175.335 216.3 175.2 216.616 175.185C216.894 175.19 217.168 175.252 217.421 175.369L218.154 175.698C218.563 175.935 219.009 176.103 219.473 176.193H225.242V170.277H217.916V159.433H226.451C226.753 159.47 227.031 159.616 227.232 159.844C227.434 160.071 227.545 160.365 227.545 160.669C227.545 160.973 227.434 161.267 227.232 161.495C227.031 161.723 226.753 161.869 226.451 161.906H220.388L220.352 167.804Z" fill="white"/>
<path d="M234.4 161.907C234.098 161.87 233.82 161.724 233.619 161.496C233.417 161.268 233.306 160.975 233.306 160.67C233.306 160.366 233.417 160.072 233.619 159.845C233.82 159.617 234.098 159.471 234.4 159.434H242.917C243.244 159.424 243.57 159.481 243.875 159.602C244.18 159.722 244.456 159.904 244.688 160.136C244.92 160.367 245.101 160.644 245.222 160.949C245.343 161.253 245.4 161.579 245.389 161.907V166.651C244.778 167.3 244.437 168.158 244.437 169.05C244.437 169.942 244.778 170.801 245.389 171.45V176.194C245.399 176.52 245.343 176.844 245.223 177.148C245.104 177.451 244.924 177.727 244.694 177.958C244.464 178.19 244.19 178.372 243.888 178.494C243.585 178.616 243.261 178.674 242.935 178.667H234.4C234.098 178.63 233.82 178.484 233.619 178.256C233.417 178.028 233.306 177.735 233.306 177.43C233.306 177.126 233.417 176.833 233.619 176.605C233.82 176.377 234.098 176.231 234.4 176.194H242.917V172.091C242.917 170.699 242.367 170.259 241.671 170.259H236.818C236.516 170.223 236.238 170.076 236.036 169.849C235.835 169.621 235.723 169.327 235.723 169.023C235.723 168.719 235.835 168.425 236.036 168.197C236.238 167.969 236.516 167.823 236.818 167.787H241.726C242.422 167.787 242.972 167.365 242.972 165.955V161.907H234.4Z" fill="white"/>
<path d="M255.957 167.805H260.518C260.878 167.775 261.24 167.822 261.581 167.942C261.922 168.062 262.234 168.252 262.496 168.501C262.78 168.768 262.997 169.097 263.131 169.463C263.264 169.829 263.31 170.221 263.265 170.608V175.901C263.322 176.597 263.105 177.287 262.661 177.824C262.404 178.135 262.073 178.375 261.698 178.522C261.323 178.669 260.917 178.719 260.518 178.667H255.023C254.453 178.649 253.895 178.499 253.393 178.227L252.441 177.806C251.781 177.513 251.049 177.275 251.049 176.414C251.049 176.098 251.17 175.794 251.389 175.565C251.607 175.337 251.905 175.201 252.221 175.187C252.499 175.191 252.774 175.253 253.027 175.37L253.759 175.7C254.168 175.937 254.614 176.104 255.078 176.194H260.774V170.278H253.448V159.434H261.983C262.158 159.413 262.335 159.429 262.504 159.481C262.672 159.534 262.827 159.621 262.959 159.738C263.091 159.855 263.197 159.999 263.269 160.159C263.342 160.32 263.379 160.494 263.379 160.671C263.379 160.847 263.342 161.021 263.269 161.182C263.197 161.343 263.091 161.486 262.959 161.603C262.827 161.72 262.672 161.807 262.504 161.86C262.335 161.912 262.158 161.928 261.983 161.907H255.921L255.957 167.805Z" fill="white"/>
<path d="M277.349 159.435C277.513 159.425 277.677 159.449 277.831 159.507C277.984 159.565 278.124 159.655 278.24 159.771C278.356 159.887 278.446 160.027 278.504 160.18C278.562 160.334 278.587 160.499 278.576 160.663V167.806C278.912 167.796 279.247 167.851 279.561 167.971C279.876 168.09 280.163 168.271 280.407 168.502C280.64 168.744 280.821 169.032 280.938 169.347C281.054 169.662 281.104 169.998 281.085 170.334V176.214C281.11 176.546 281.062 176.881 280.946 177.193C280.829 177.506 280.646 177.789 280.409 178.024C280.173 178.259 279.888 178.44 279.574 178.555C279.261 178.669 278.927 178.714 278.594 178.687H271.268C270.937 178.711 270.605 178.664 270.293 178.548C269.982 178.433 269.7 178.252 269.465 178.017C269.23 177.782 269.049 177.5 268.933 177.188C268.818 176.877 268.771 176.545 268.795 176.214V170.334C268.772 170 268.819 169.664 268.933 169.349C269.046 169.033 269.224 168.745 269.455 168.502C269.699 168.271 269.987 168.09 270.301 167.971C270.615 167.851 270.95 167.796 271.286 167.806V160.663C271.276 160.499 271.3 160.334 271.358 160.18C271.416 160.027 271.506 159.887 271.622 159.771C271.738 159.655 271.878 159.565 272.031 159.507C272.185 159.449 272.349 159.425 272.513 159.435H277.349ZM278.576 176.195V170.279H271.25V176.195H278.576ZM276.103 167.806V161.908H273.777V167.806H276.103Z" fill="white"/>
<path d="M314.181 168.225H305.683C305.357 168.22 305.046 168.09 304.814 167.862C304.582 167.633 304.447 167.323 304.438 166.998V160.66C304.447 160.334 304.582 160.025 304.814 159.796C305.046 159.568 305.357 159.437 305.683 159.433H315.427C315.751 159.438 316.06 159.568 316.289 159.798C316.518 160.027 316.649 160.336 316.654 160.66V177.42C316.659 177.584 316.631 177.746 316.571 177.898C316.511 178.051 316.421 178.189 316.307 178.305C316.192 178.422 316.055 178.514 315.903 178.576C315.752 178.638 315.59 178.668 315.427 178.666H314.181C314.018 178.668 313.856 178.638 313.704 178.576C313.553 178.514 313.416 178.422 313.301 178.305C313.187 178.189 313.097 178.051 313.037 177.898C312.977 177.746 312.949 177.584 312.954 177.42C312.946 177.257 312.973 177.094 313.031 176.941C313.09 176.789 313.18 176.65 313.296 176.535C313.412 176.419 313.55 176.329 313.702 176.27C313.855 176.211 314.018 176.185 314.181 176.193V168.225ZM314.181 165.752V161.906H306.855V165.752H314.181Z" fill="white"/>
<path d="M324.712 161.906C324.707 162.23 324.576 162.539 324.347 162.768C324.118 162.997 323.809 163.128 323.485 163.133C323.159 163.128 322.848 162.998 322.616 162.769C322.383 162.541 322.249 162.231 322.239 161.906V160.66C322.244 160.333 322.377 160.021 322.61 159.791C322.843 159.562 323.158 159.433 323.485 159.433H334.474V166.595C334.474 167.456 334.474 167.566 333.814 168.152L330.353 171.156C329.712 171.724 329.657 171.779 329.657 172.621V177.42C329.686 177.59 329.673 177.765 329.621 177.929C329.568 178.093 329.477 178.242 329.356 178.364C329.234 178.486 329.084 178.577 328.92 178.63C328.756 178.682 328.581 178.694 328.411 178.666C327.532 178.666 327.184 178.226 327.184 177.42V171.467C327.184 170.661 327.184 170.57 327.825 170.038L331.232 167.089C332.056 166.375 332.001 166.393 332.001 165.258V161.906H324.712Z" fill="white"/>
<path d="M349.786 168.225H341.287C340.962 168.22 340.65 168.09 340.418 167.862C340.186 167.633 340.051 167.323 340.042 166.998V160.66C340.051 160.334 340.186 160.025 340.418 159.796C340.65 159.568 340.962 159.437 341.287 159.433H351.031C351.355 159.438 351.664 159.568 351.894 159.798C352.123 160.027 352.253 160.336 352.258 160.66V177.42C352.263 177.584 352.235 177.746 352.175 177.898C352.116 178.051 352.026 178.189 351.911 178.305C351.796 178.422 351.659 178.514 351.508 178.576C351.357 178.638 351.194 178.668 351.031 178.666H349.786C349.622 178.668 349.46 178.638 349.309 178.576C349.158 178.514 349.02 178.422 348.906 178.305C348.791 178.189 348.701 178.051 348.641 177.898C348.582 177.746 348.554 177.584 348.559 177.42C348.551 177.257 348.577 177.094 348.636 176.941C348.695 176.789 348.785 176.65 348.901 176.535C349.016 176.419 349.155 176.329 349.307 176.27C349.459 176.211 349.622 176.185 349.786 176.193V168.225ZM349.786 165.752V161.906H342.46V165.752H349.786Z" fill="white"/>
<path d="M359.09 161.907C358.915 161.928 358.737 161.912 358.569 161.86C358.4 161.807 358.245 161.72 358.113 161.603C357.981 161.486 357.876 161.343 357.803 161.182C357.731 161.021 357.693 160.847 357.693 160.671C357.693 160.494 357.731 160.32 357.803 160.159C357.876 159.999 357.981 159.855 358.113 159.738C358.245 159.621 358.4 159.534 358.569 159.481C358.737 159.429 358.915 159.413 359.09 159.434H367.588C367.915 159.427 368.239 159.485 368.543 159.607C368.846 159.729 369.122 159.911 369.353 160.142C369.584 160.373 369.766 160.648 369.887 160.952C370.009 161.255 370.068 161.58 370.06 161.907V166.651C369.436 167.294 369.087 168.155 369.087 169.051C369.087 169.947 369.436 170.807 370.06 171.45V176.194C370.068 176.521 370.009 176.846 369.887 177.149C369.766 177.453 369.584 177.728 369.353 177.96C369.122 178.191 368.846 178.373 368.543 178.494C368.239 178.616 367.915 178.675 367.588 178.667H359.09C358.915 178.688 358.737 178.672 358.569 178.62C358.4 178.568 358.245 178.48 358.113 178.363C357.981 178.246 357.876 178.103 357.803 177.942C357.731 177.781 357.693 177.607 357.693 177.431C357.693 177.254 357.731 177.08 357.803 176.919C357.876 176.759 357.981 176.615 358.113 176.498C358.245 176.381 358.4 176.294 358.569 176.241C358.737 176.189 358.915 176.173 359.09 176.194H367.588V172.091C367.588 170.699 367.038 170.26 366.342 170.26H361.507C361.332 170.281 361.155 170.265 360.986 170.212C360.818 170.16 360.663 170.073 360.531 169.956C360.399 169.839 360.293 169.695 360.221 169.534C360.148 169.374 360.111 169.199 360.111 169.023C360.111 168.847 360.148 168.673 360.221 168.512C360.293 168.351 360.399 168.207 360.531 168.091C360.663 167.974 360.818 167.886 360.986 167.834C361.155 167.781 361.332 167.765 361.507 167.787H366.269C366.965 167.787 367.515 167.365 367.515 165.955V161.907H359.09Z" fill="white"/>
<path d="M38.021 77.5291C37.5369 76.3556 37.2885 75.0984 37.2898 73.829L37.403 72.8103H57.2781V83.5138H46.9634C45.6916 83.5138 44.4322 83.263 43.2574 82.7757C42.0825 82.2884 41.0153 81.5742 40.1168 80.6739C39.2183 79.7736 38.5061 78.7049 38.021 77.5291Z" fill="white" stroke="black" stroke-width="0.286685"/>
<path d="M37.2713 68.9133V57.99H57.2045V68.9133H37.2713Z" fill="white" stroke="black" stroke-width="0.286685"/>
<path d="M57.1498 39.5165H37.2898V38.4875C37.2898 35.9341 38.299 33.4843 40.0976 31.672C41.896 29.8599 44.3378 28.8322 46.8907 28.813H57.1498V39.5165Z" fill="white" stroke="black" stroke-width="0.286685"/>
<path d="M74.7843 39.5165H74.6409V39.6599V83.4773H60.9715V28.813H88.3006C90.8599 28.8226 93.311 29.8461 95.1173 31.6594C96.9237 33.4727 97.9379 35.9279 97.9378 38.4876V39.5165H74.7843Z" fill="white" stroke="black" stroke-width="0.286685"/>
<path d="M37.2713 54.2061V43.2827H57.2045V54.2061H37.2713Z" fill="white" stroke="black" stroke-width="0.286685"/>
<path d="M78.4441 54.2061V43.2827H97.9745V54.2061H78.4441Z" fill="white" stroke="black" stroke-width="0.286685"/>
<path d="M78.4441 68.9133V57.99H97.9745V68.9133H78.4441Z" fill="white" stroke="black" stroke-width="0.286685"/>
<path d="M97.9745 73.7302V73.7304C97.9769 75.0024 97.7284 76.2624 97.2433 77.4382C96.7582 78.6141 96.046 79.6827 95.1475 80.583C94.249 81.4833 93.1818 82.1976 92.007 82.6849C90.8321 83.1722 89.5728 83.423 88.3009 83.423H78.4441V72.7012H97.9745V73.7302Z" fill="white" stroke="black" stroke-width="0.286685"/>
<path d="M26.2855 47.0012L17.2012 56.1048L26.2855 65.2083V47.0012Z" fill="white"/>
<path d="M323.381 35.1687C323.381 31.5777 326.486 28.6665 330.315 28.6665H372.117V35.1687C372.117 38.7598 369.013 41.671 365.183 41.671H323.381V35.1687Z" fill="white"/>
<path d="M337.25 45.6817H357.341V53.5816C357.341 59.9583 351.828 65.1277 345.027 65.1277H337.25V45.6817Z" fill="white"/>
<path d="M323.381 45.6817H337.25V66.4646C337.25 72.5056 332.027 77.4029 325.584 77.4029H323.381V45.6817Z" fill="white"/>
<path d="M337.25 51.394H353.711C353.711 57.972 348.024 63.3046 341.009 63.3046H337.25V51.394Z" fill="#E5580A"/>
<path d="M342.564 51.394H352.026V51.9409C352.026 54.3909 349.908 56.377 347.295 56.377C344.683 56.377 342.564 54.3909 342.564 51.9409V51.394Z" fill="white"/>
</svg>
