<svg width="100" height="36" viewBox="0 0 100 36" fill="none" xmlns="http://www.w3.org/2000/svg">
<g clip-path="url(#clip0_647_15755)">
<path fill-rule="evenodd" clip-rule="evenodd" d="M70.4263 0.805112L69.8397 4.25559C68.6664 3.68051 67.8451 3.45048 66.9065 3.45048C64.4426 3.45048 62.8 5.86581 62.8 9.31629C62.8 11.7316 63.9733 13.1118 65.8505 13.1118C66.6718 13.1118 67.4931 12.8818 68.6664 12.3067L68.0798 15.8722C66.9065 16.2173 66.0852 16.3323 65.1466 16.3323C61.6267 16.3323 59.3975 13.6869 59.3975 9.54632C59.3975 3.91054 62.448 0 66.7892 0C67.3758 0 67.8451 0 68.3144 0.115016L69.605 0.460064C70.0744 0.690096 70.1917 0.690096 70.4263 0.805112Z" fill="#929292"/>
<path fill-rule="evenodd" clip-rule="evenodd" d="M59.6324 3.10547C59.515 3.10547 59.3977 3.10547 59.2804 3.10547C58.2244 3.10547 57.6378 3.68055 56.5818 5.17576L56.8165 3.22048H53.8833L51.8887 15.9873H55.1739C56.3472 8.16617 56.6991 6.901 58.2244 6.901C58.3417 6.901 58.3417 6.901 58.4591 6.901C58.8111 5.29077 59.163 4.14061 59.6324 3.10547Z" fill="#929292"/>
<path fill-rule="evenodd" clip-rule="evenodd" d="M40.0382 15.7571C39.0995 15.9872 38.3956 16.2172 37.6916 16.2172C36.049 16.2172 35.1104 15.182 35.1104 13.4568C35.1104 13.1118 35.1103 12.7667 35.2277 12.3066L35.4623 11.0415L35.5797 10.0063L36.9876 1.38013H40.2728L39.9208 3.22038H41.5634L41.0941 6.32581H39.4515L38.6302 11.6166C38.6302 11.8466 38.6302 12.0766 38.6302 12.1916C38.6302 12.8817 38.9822 13.1118 39.6862 13.1118C40.0382 13.1118 40.3901 13.1118 40.6248 12.9967L40.0382 15.7571Z" fill="#929292"/>
<path fill-rule="evenodd" clip-rule="evenodd" d="M27.1324 7.2461C27.1324 8.85632 27.8364 10.0065 29.5963 10.8116C30.8869 11.5017 31.1216 11.6167 31.1216 12.1918C31.1216 12.9969 30.5349 13.3419 29.2443 13.3419C28.3057 13.3419 27.3671 13.2269 26.3111 12.8819L25.8418 15.7573L26.5458 15.8723C26.7804 15.8723 27.0151 15.9873 27.3671 15.9873C28.1884 16.1023 28.775 16.1023 29.127 16.1023C32.5295 16.1023 34.1721 14.7221 34.1721 11.8467C34.1721 10.1215 33.4682 9.08635 31.8256 8.28124C30.4176 7.59114 30.3003 7.47613 30.3003 6.90105C30.3003 6.21095 30.8869 5.8659 31.9429 5.8659C32.6469 5.8659 33.4682 5.98092 34.2895 6.09594L34.7588 3.10552C33.9375 2.9905 32.6469 2.87549 31.8256 2.87549C28.423 2.9905 27.1324 4.94578 27.1324 7.2461Z" fill="#929292"/>
<path fill-rule="evenodd" clip-rule="evenodd" d="M96.4728 15.9872H93.4223L93.5396 14.722C92.7183 15.6421 91.7796 16.1022 90.6064 16.1022C88.2598 16.1022 86.6172 14.0319 86.6172 10.8114C86.6172 6.55586 89.0811 2.99036 91.897 2.99036C93.1876 2.99036 94.1262 3.56544 95.0649 4.7156L95.7688 0.22998H98.9367L96.4728 15.9872ZM91.6623 12.9968C93.1876 12.9968 94.2435 11.2715 94.2435 8.74116C94.2435 7.13094 93.6569 6.21081 92.4836 6.21081C90.9583 6.21081 89.9024 7.93605 89.9024 10.4664C90.0197 12.0766 90.6064 12.9968 91.6623 12.9968Z" fill="#929292"/>
<path fill-rule="evenodd" clip-rule="evenodd" d="M50.3633 15.6423C49.19 15.9873 48.134 16.2173 46.9607 16.1023C43.3235 16.1023 41.4463 14.1471 41.4463 10.4665C41.4463 6.09594 43.9102 2.87549 47.1954 2.87549C49.894 2.87549 51.6539 4.71574 51.6539 7.47613C51.6539 8.39626 51.5366 9.31638 51.3019 10.5816H44.8488C44.8488 10.8116 44.8488 10.8116 44.8488 10.9266C44.8488 12.4218 45.7875 13.1119 47.6647 13.1119C48.838 13.1119 49.8939 12.8819 51.0672 12.3068L50.3633 15.6423ZM48.6033 8.16622C48.6033 7.93619 48.6033 7.70616 48.6033 7.47613C48.6033 6.44098 48.0167 5.8659 47.0781 5.8659C46.0221 5.8659 45.3181 6.67102 44.9661 8.16622H48.6033Z" fill="#929292"/>
<path fill-rule="evenodd" clip-rule="evenodd" d="M13.9914 15.9871H10.7062L12.5834 4.02548L8.47695 15.9871H6.2477L5.89572 4.02548L4.01846 15.9871H0.850586L3.43182 0.344971H8.12496L8.24229 10.0063L11.4102 0.344971H16.4553L13.9914 15.9871Z" fill="#929292"/>
<path fill-rule="evenodd" clip-rule="evenodd" d="M22.4386 10.3515C22.0866 10.3515 21.9693 10.3515 21.7346 10.3515C19.8573 10.3515 18.9187 11.0416 18.9187 12.3068C18.9187 13.1119 19.388 13.5719 20.092 13.5719C21.3826 13.4569 22.3212 12.1918 22.4386 10.3515ZM24.7851 15.9873H22.0866L22.2039 14.7221C21.3826 15.7573 20.3267 16.2173 18.8014 16.2173C17.0415 16.2173 15.8682 14.8371 15.8682 12.7668C15.8682 9.66141 17.9801 7.82115 21.6173 7.82115C21.9693 7.82115 22.4386 7.82115 22.9079 7.93617C23.0252 7.4761 23.0252 7.36109 23.0252 7.13105C23.0252 6.32594 22.4386 5.98089 20.9133 5.98089C19.9747 5.98089 18.9187 6.09591 18.2147 6.32594L17.7454 6.44096L17.3934 6.55597L17.8628 3.68057C19.5054 3.22051 20.5613 2.99048 21.7346 2.99048C24.5505 2.99048 26.0758 4.25565 26.0758 6.67099C26.0758 7.24607 26.0758 7.82115 25.8411 9.20134L25.1371 13.687L25.0198 14.4921L24.9025 15.1822V15.6422L24.7851 15.9873Z" fill="#929292"/>
<path fill-rule="evenodd" clip-rule="evenodd" d="M76.0577 10.3515C75.7057 10.3515 75.5884 10.3515 75.3537 10.3515C73.4765 10.3515 72.5378 11.0416 72.5378 12.3068C72.5378 13.1119 73.0072 13.5719 73.7111 13.5719C75.1191 13.4569 76.0577 12.1918 76.0577 10.3515ZM78.5216 15.9873H75.8231L75.9404 14.7221C75.1191 15.7573 74.0631 16.2173 72.5378 16.2173C70.7779 16.2173 69.4873 14.8371 69.4873 12.7668C69.4873 9.66141 71.5992 7.82115 75.2364 7.82115C75.5884 7.82115 76.0577 7.82115 76.527 7.93617C76.6444 7.4761 76.6443 7.36109 76.6443 7.13105C76.6443 6.32594 76.0577 5.98089 74.5324 5.98089C73.5938 5.98089 72.5378 6.09591 71.8339 6.32594L71.3646 6.44096L71.0126 6.55597L71.4819 3.68057C73.1245 3.22051 74.1804 2.99048 75.3537 2.99048C78.1696 2.99048 79.6949 4.25565 79.6949 6.67099C79.6949 7.24607 79.6949 7.82115 79.4602 9.20134L78.7563 13.687L78.6389 14.4921L78.5216 15.1822V15.6422V15.9873Z" fill="#929292"/>
<path fill-rule="evenodd" clip-rule="evenodd" d="M87.6732 3.10547C87.5559 3.10547 87.4386 3.10547 87.3212 3.10547C86.2653 3.10547 85.6787 3.68055 84.6227 5.17576L84.9747 3.22048H82.0415L80.0469 15.9873H83.3321C84.5054 8.16617 84.8574 6.901 86.3826 6.901C86.5 6.901 86.4999 6.901 86.6173 6.901C86.7346 5.29077 87.2039 4.14061 87.6732 3.10547Z" fill="#929292"/>
<path fill-rule="evenodd" clip-rule="evenodd" d="M73.9463 28.294C73.9463 31.1694 73.0076 32.8946 71.5997 32.8946C70.5437 32.8946 69.9571 31.7445 69.9571 30.0192C69.9571 27.9489 70.8957 25.6486 72.421 25.6486C73.4769 25.7636 73.9463 27.0288 73.9463 28.294ZM77.1141 28.294C77.1141 25.0735 75.4715 22.6582 72.421 22.6582C68.9011 22.6582 66.6719 25.6486 66.6719 30.1342C66.6719 33.3547 67.9625 36.0001 71.365 36.0001C74.6502 36.0001 77.1141 33.6997 77.1141 28.294Z" fill="#929292"/>
<path fill-rule="evenodd" clip-rule="evenodd" d="M67.728 20.3578L67.2586 23.8083C66.2027 23.2332 65.3814 23.0032 64.5601 23.0032C62.3308 23.0032 60.6882 25.4185 60.6882 28.869C60.6882 31.2844 61.7442 32.6646 63.5041 32.6646C64.3254 32.6646 65.1467 32.4345 66.0854 31.8594L65.616 35.4249C64.4428 35.77 63.7388 35.885 62.9175 35.885C59.6323 35.885 57.6377 33.2396 57.6377 29.0991C57.6377 23.4633 60.4536 19.5527 64.5601 19.5527C65.0294 19.5527 65.4987 19.6678 65.968 19.6678L67.2586 20.0128C67.376 20.2428 67.376 20.2428 67.728 20.3578Z" fill="#929292"/>
<path fill-rule="evenodd" clip-rule="evenodd" d="M47.4296 22.7732C47.3123 22.7732 47.195 22.7732 47.0777 22.7732C46.139 22.7732 45.5524 23.3483 44.6138 24.8435L44.8484 22.8882H42.0325L40.1553 35.655H43.2058C44.2618 27.8339 44.6138 26.5687 46.0217 26.5687C46.139 26.5687 46.139 26.5687 46.2564 26.5687C46.7257 24.9585 47.0777 23.8083 47.4296 22.7732Z" fill="#929292"/>
<path fill-rule="evenodd" clip-rule="evenodd" d="M87.3217 35.4249H84.3885L84.5058 34.1597C83.6845 35.1949 82.8632 35.5399 81.6899 35.5399C79.4607 35.5399 78.0527 33.4696 78.0527 30.2492C78.0527 25.9936 80.282 22.4281 82.9805 22.4281C84.1538 22.4281 85.0924 23.0032 85.9137 24.1533L86.6177 19.6677H89.6683L87.3217 35.4249ZM82.8632 32.4345C84.2711 32.4345 85.3271 30.7093 85.3271 28.1789C85.3271 26.5687 84.7405 25.6486 83.6845 25.6486C82.2766 25.6486 81.3379 27.3738 81.3379 29.9041C81.2206 31.6294 81.8072 32.4345 82.8632 32.4345Z" fill="#929292"/>
<path fill-rule="evenodd" clip-rule="evenodd" d="M18.802 35.425C17.7461 35.77 16.8074 35.885 15.6341 35.885C12.2316 35.885 10.4717 33.9298 10.4717 30.2493C10.4717 25.8786 12.7009 22.6582 15.7515 22.6582C18.2154 22.6582 19.858 24.4985 19.858 27.2588C19.858 28.179 19.7406 29.0991 19.506 30.3643H13.4049C13.4049 30.5943 13.4049 30.5943 13.4049 30.7093C13.4049 32.2045 14.3435 32.8946 16.1035 32.8946C17.1594 32.8946 18.2154 32.6646 19.2713 32.0895L18.802 35.425ZM17.1594 27.8339C17.1594 27.6039 17.1594 27.3739 17.1594 27.1438C17.1594 26.1087 16.5728 25.5336 15.7515 25.5336C14.8128 25.5336 14.1089 26.3387 13.7569 27.8339H17.1594Z" fill="#929292"/>
<path fill-rule="evenodd" clip-rule="evenodd" d="M55.1731 35.425C54.1171 35.77 53.0612 35.885 52.0052 35.885C48.6027 35.885 46.8428 33.9298 46.8428 30.2493C46.8428 25.8786 49.072 22.6582 52.1226 22.6582C54.5865 22.6582 56.2291 24.4985 56.2291 27.2588C56.2291 28.179 56.1117 29.0991 55.8771 30.3643H49.776C49.776 30.5943 49.776 30.5943 49.776 30.7093C49.776 32.2045 50.7146 32.8946 52.4745 32.8946C53.5305 32.8946 54.5865 32.6646 55.6424 32.0895L55.1731 35.425ZM53.4132 27.8339C53.4132 27.6039 53.4132 27.3739 53.4132 27.1438C53.4132 26.1087 52.8265 25.5336 52.0052 25.5336C51.0666 25.5336 50.3626 26.3387 50.0106 27.8339H53.4132Z" fill="#929292"/>
<path fill-rule="evenodd" clip-rule="evenodd" d="M97.7639 35.425C96.708 35.77 95.652 35.885 94.5961 35.885C91.1935 35.885 89.4336 33.9298 89.4336 30.2493C89.4336 25.8786 91.6628 22.6582 94.7134 22.6582C97.1773 22.6582 98.8199 24.4985 98.8199 27.2588C98.8199 28.179 98.7026 29.0991 98.4679 30.3643H92.3668C92.3668 30.5943 92.3668 30.5943 92.3668 30.7093C92.3668 32.2045 93.3054 32.8946 95.0654 32.8946C96.1213 32.8946 97.1773 32.6646 98.2332 32.0895L97.7639 35.425ZM96.004 27.8339C96.004 27.6039 96.004 27.3739 96.004 27.1438C96.004 26.1087 95.4174 25.5336 94.5961 25.5336C93.6574 25.5336 92.9534 26.3387 92.6015 27.8339H96.004Z" fill="#929292"/>
<path fill-rule="evenodd" clip-rule="evenodd" d="M9.76743 23.3483C9.18079 23.0032 8.35949 22.6582 7.1862 22.6582C5.89559 22.6582 4.95696 22.8882 4.95696 24.1534C4.95696 26.4537 9.41544 25.5336 9.41544 30.3642C9.41544 34.7348 6.48223 35.885 3.78367 35.885C2.61038 35.885 1.20244 35.54 0.146484 35.0799L0.850456 31.8594C1.4371 32.4345 2.72771 32.7796 3.66634 32.7796C4.60497 32.7796 6.13024 32.5495 6.13024 30.9393C6.13024 28.409 1.67176 29.3291 1.67176 24.8435C1.67176 20.7029 4.25299 19.5527 6.83421 19.5527C8.24216 19.5527 9.6501 19.7828 10.3541 20.2428L9.76743 23.3483Z" fill="#929292"/>
<path fill-rule="evenodd" clip-rule="evenodd" d="M27.7184 35.425C27.1318 35.655 26.1932 35.885 25.0199 35.885C22.3213 35.885 20.6787 33.2397 20.6787 30.1342C20.6787 25.9937 23.0253 22.6582 26.5451 22.6582C27.3664 22.6582 28.5397 23.0032 29.4784 23.4633L28.7744 26.4537C28.0704 25.9937 27.4838 25.7636 26.7798 25.7636C25.1372 25.7636 23.9639 27.2588 23.9639 29.7892C23.9639 31.2844 24.7852 32.5496 26.1932 32.5496C27.0145 32.5496 27.6011 32.3195 28.1877 31.9745L27.7184 35.425Z" fill="#929292"/>
<path fill-rule="evenodd" clip-rule="evenodd" d="M39.2164 32.2045C39.099 33.2396 38.8644 34.3898 38.8644 35.5399H35.9312L36.1658 33.4697C35.2272 34.8498 34.2886 35.77 32.646 35.77C30.7687 35.77 29.8301 33.9297 29.8301 31.3994C29.8301 30.5943 29.8301 30.1342 30.0647 28.754L30.886 22.8882H34.1712L33.1153 28.754C32.998 29.4441 32.8806 30.0192 32.8806 30.7093C32.8806 31.3994 33.2326 32.2045 34.0539 32.2045C35.3445 32.2045 36.1658 30.5943 36.4005 28.754L37.3391 23.0032H40.507L39.2164 32.2045Z" fill="#929292"/>
</g>
<defs>
<clipPath id="clip0_647_15755">
<rect width="98.7907" height="36" fill="white" transform="translate(0.263672)"/>
</clipPath>
</defs>
</svg>
