<svg width="85" height="36" viewBox="0 0 85 36" fill="none" xmlns="http://www.w3.org/2000/svg">
<path d="M31.6278 28.8568C27.8265 33.3071 21.9279 35.4197 16.1418 34.38C6.43369 32.6345 0.430928 22.8245 3.2008 13.3828C5.8333 4.41001 15.4893 -0.549465 24.288 2.38027C28.4517 3.76698 31.7912 6.69198 33.8268 10.5869C33.8307 10.5942 33.8326 10.6025 33.8324 10.6108C33.8321 10.6191 33.8297 10.6272 33.8255 10.6343C33.8212 10.6415 33.8151 10.6474 33.8079 10.6515C33.8007 10.6556 33.7925 10.6578 33.7842 10.6579H29.5175C29.4995 10.6579 29.4818 10.6537 29.4658 10.6457C29.4497 10.6376 29.4358 10.626 29.4251 10.6117C27.1972 7.61646 24.2758 5.87606 20.6608 5.39053C15.2288 4.66106 9.76132 7.74948 7.48527 12.6924C5.21988 17.6104 6.25251 23.3905 10.0503 27.1362C16.0305 33.0347 25.5172 31.7511 29.9687 24.7713C29.99 24.7374 30.0204 24.7204 30.0599 24.7204C46.2196 24.7196 62.379 24.7196 78.5379 24.7204C79.0511 24.7204 79.4434 24.7737 79.715 24.8803C81.1858 25.457 81.7767 27.2653 81.5434 28.7195C81.5371 28.7574 81.515 28.7763 81.4771 28.7763H31.803C31.7696 28.7763 31.7366 28.7835 31.7063 28.7974C31.6761 28.8113 31.6493 28.8316 31.6278 28.8568Z" fill="#929292"/>
<path d="M12.9924 16.541C12.9865 16.5224 12.9752 16.5064 12.9597 16.4947C12.9442 16.4831 12.9253 16.4765 12.9053 16.4756C12.8852 16.4747 12.8648 16.4797 12.8467 16.4898C12.8285 16.4999 12.8133 16.5149 12.8029 16.5327C12.7911 16.5525 12.7848 16.5876 12.784 16.6381C12.7682 18.8013 12.7591 20.9629 12.7567 23.1229C12.7567 23.1382 12.7506 23.153 12.7397 23.1639C12.7288 23.1748 12.7141 23.1809 12.6987 23.1809H9.23725C9.17804 23.1809 9.14844 23.1513 9.14844 23.0921V11.9321C9.14844 11.9164 9.15468 11.9013 9.16578 11.8902C9.17688 11.8791 9.19194 11.8729 9.20765 11.8729C10.2434 11.8705 11.2851 11.8705 12.3328 11.8729C13.8782 11.8752 14.4454 12.3761 14.8587 13.8043C15.3095 15.3604 15.7551 16.9042 16.1957 18.4357C16.2046 18.4669 16.2234 18.4942 16.2493 18.5136C16.2751 18.533 16.3067 18.5434 16.3391 18.5433C16.3716 18.5431 16.4032 18.5325 16.4292 18.5129C16.4553 18.4933 16.4743 18.4658 16.4834 18.4346C16.9098 16.9519 17.3404 15.4594 17.7754 13.9571C18.21 12.4567 18.7038 11.8776 20.2694 11.8705C21.332 11.865 22.3942 11.8669 23.4561 11.8764C23.5098 11.8772 23.5366 11.9044 23.5366 11.9581V23.1217C23.5366 23.1374 23.5304 23.1524 23.5193 23.1635C23.5081 23.1746 23.4931 23.1809 23.4774 23.1809H20.0136C19.9544 23.1809 19.9248 23.1513 19.9248 23.0921V16.644C19.925 16.6122 19.9138 16.5814 19.8931 16.5573C19.8725 16.5332 19.8438 16.5173 19.8123 16.5126C19.7808 16.5079 19.7485 16.5146 19.7213 16.5315C19.6942 16.5485 19.6739 16.5745 19.6642 16.605L17.6629 23.1086C17.6479 23.1568 17.6151 23.1809 17.5646 23.1809H15.0944C15.0573 23.1809 15.0332 23.1631 15.0221 23.1276L12.9924 16.541Z" fill="#929292"/>
<path d="M28.6563 11.8718H25.0777C25.0607 11.8718 25.0469 11.8856 25.0469 11.9026V23.1502C25.0469 23.1673 25.0607 23.181 25.0777 23.181H28.6563C28.6734 23.181 28.6871 23.1673 28.6871 23.1502V11.9026C28.6871 11.8856 28.6734 11.8718 28.6563 11.8718Z" fill="#929292"/>
<path d="M41.4537 16.4604C41.4514 16.4769 41.4432 16.492 41.4308 16.5029C41.4184 16.5138 41.4025 16.5197 41.3862 16.5196C39.7267 16.5204 38.0601 16.5204 36.3864 16.5196C35.2401 16.5188 34.4542 16.473 34.0287 16.3823C31.8568 15.9169 30.0971 14.1571 29.6968 11.9379C29.6897 11.8945 29.7079 11.8728 29.7513 11.8728C32.2192 11.8704 34.6823 11.8696 37.1408 11.8704C37.8458 11.8704 38.3822 11.9253 38.7501 12.035C40.7325 12.6224 41.7225 14.4698 41.4537 16.4604Z" fill="#929292"/>
<path d="M78.8109 17.4078H76.5905C76.5748 17.4078 76.5597 17.4016 76.5486 17.3905C76.5375 17.3794 76.5312 17.3643 76.5312 17.3486V15.8388C76.5312 15.823 76.5375 15.808 76.5486 15.7969C76.5597 15.7858 76.5748 15.7795 76.5905 15.7795H83.0444C83.0601 15.7795 83.0752 15.7858 83.0863 15.7969C83.0974 15.808 83.1036 15.823 83.1036 15.8388V17.3486C83.1036 17.3643 83.0974 17.3794 83.0863 17.3905C83.0752 17.4016 83.0601 17.4078 83.0444 17.4078H80.824C80.8083 17.4078 80.7932 17.4141 80.7821 17.4252C80.771 17.4363 80.7648 17.4513 80.7648 17.467V23.4177C80.7648 23.4334 80.7586 23.4485 80.7475 23.4596C80.7364 23.4707 80.7213 23.4769 80.7056 23.4769H78.9293C78.9136 23.4769 78.8985 23.4707 78.8874 23.4596C78.8763 23.4485 78.8701 23.4334 78.8701 23.4177V17.467C78.8701 17.4513 78.8638 17.4363 78.8527 17.4252C78.8416 17.4141 78.8266 17.4078 78.8109 17.4078Z" fill="#929292"/>
<path d="M49.3487 20.4276C48.4179 16.7399 52.6988 14.4674 55.4344 16.8205C55.466 16.8473 55.4711 16.8789 55.4498 16.9152L54.7096 18.1195C54.6867 18.1574 54.6579 18.1626 54.6232 18.1349C53.4911 17.2243 51.7231 17.1094 51.1286 18.6524C50.8906 19.2706 51.0042 20.0794 51.3666 20.6384C52.1813 21.8913 53.722 21.5869 54.7144 20.6585C54.7538 20.6222 54.7886 20.6257 54.8186 20.6691L55.6392 21.8285C55.6598 21.8577 55.657 21.8849 55.631 21.9102C53.6119 23.8191 50.0782 23.317 49.3487 20.4276Z" fill="#929292"/>
<path d="M56.8796 17.0018C58.1479 15.5748 60.7851 15.5275 62.1754 16.8348C62.2014 16.8593 62.205 16.8869 62.186 16.9177L61.4554 18.1114C61.4507 18.1191 61.4445 18.1257 61.4371 18.1308C61.4298 18.136 61.4214 18.1395 61.4126 18.1412C61.4037 18.1428 61.3946 18.1426 61.3859 18.1406C61.3772 18.1385 61.369 18.1346 61.3618 18.1292C60.566 17.5228 59.6009 17.2256 58.6867 17.6815C57.6197 18.2132 57.5226 19.8072 58.1325 20.6752C59.01 21.9246 60.5044 21.5361 61.4767 20.6504C61.4821 20.6453 61.4885 20.6415 61.4956 20.6392C61.5027 20.6369 61.5102 20.6362 61.5177 20.6371C61.5252 20.638 61.5325 20.6405 61.5391 20.6444C61.5457 20.6483 61.5515 20.6536 61.556 20.6598L62.3518 21.7931C62.3802 21.8334 62.3794 21.8732 62.3494 21.9127C62.2571 22.0359 62.1777 22.1219 62.1114 22.1709C60.7156 23.198 59.2571 23.3456 57.7358 22.6138C55.7155 21.6415 55.4609 18.6005 56.8796 17.0018Z" fill="#929292"/>
<path d="M75.942 18.9071C75.9365 18.9932 75.8903 19.0362 75.8035 19.0362C74.8711 19.0354 73.9257 19.0354 72.9673 19.0362C71.9497 19.037 71.2301 18.9778 70.8085 18.8586C69.4687 18.4788 68.5908 17.5421 68.1748 16.0484C68.1716 16.0378 68.171 16.0266 68.173 16.0156C68.175 16.0047 68.1795 15.9944 68.1862 15.9855C68.1929 15.9767 68.2015 15.9695 68.2115 15.9646C68.2214 15.9597 68.2324 15.9572 68.2435 15.9572C69.6756 15.958 71.1144 15.9576 72.5599 15.9561C73.3999 15.9553 73.9849 16.0161 74.3149 16.1384C75.492 16.573 76.0261 17.6495 75.942 18.9071Z" fill="#929292"/>
<path d="M44.7599 21.5348L44.381 22.873C44.3776 22.8849 44.3705 22.8954 44.3607 22.9028C44.3508 22.9103 44.3388 22.9144 44.3265 22.9144H42.6733C42.6644 22.9143 42.6556 22.9121 42.6477 22.908C42.6398 22.9039 42.633 22.8979 42.6278 22.8906C42.6226 22.8834 42.6192 22.875 42.6178 22.8662C42.6165 22.8573 42.6172 22.8483 42.62 22.8398L44.9352 16.0259C44.9389 16.0146 44.946 16.0048 44.9556 15.9978C44.9651 15.9908 44.9766 15.987 44.9885 15.9868H46.7032C46.715 15.987 46.7265 15.9908 46.7361 15.9978C46.7457 16.0048 46.7528 16.0146 46.7565 16.0259L49.0716 22.8398C49.0744 22.8483 49.0752 22.8573 49.0738 22.8662C49.0725 22.875 49.0691 22.8834 49.0639 22.8906C49.0587 22.8979 49.0519 22.9039 49.0439 22.908C49.036 22.9121 49.0273 22.9143 49.0183 22.9144H47.3675C47.3553 22.9145 47.3435 22.9106 47.3336 22.9033C47.3238 22.8961 47.3166 22.8859 47.3131 22.8742L46.9164 21.5337C46.9128 21.522 46.9056 21.5118 46.8958 21.5045C46.886 21.4973 46.8741 21.4934 46.8619 21.4934H44.8144C44.802 21.4934 44.79 21.4975 44.7802 21.505C44.7704 21.5125 44.7633 21.523 44.7599 21.5348ZM45.8316 17.7738L45.2206 20.0155C45.2048 20.0731 45.2241 20.1019 45.2786 20.1019H46.4119C46.4209 20.1019 46.4299 20.0997 46.438 20.0957C46.4461 20.0917 46.4531 20.0859 46.4586 20.0788C46.4641 20.0718 46.4679 20.0635 46.4696 20.0548C46.4714 20.0461 46.4711 20.0371 46.4687 20.0285L45.8648 17.7738C45.8635 17.7704 45.8612 17.7676 45.8582 17.7655C45.8553 17.7635 45.8518 17.7624 45.8482 17.7624C45.8446 17.7624 45.8411 17.7635 45.8381 17.7655C45.8352 17.7676 45.8329 17.7704 45.8316 17.7738Z" fill="#929292"/>
<path d="M65.0071 21.4638H67.6491C67.6639 21.4638 67.678 21.4697 67.6885 21.4801C67.6989 21.4905 67.7048 21.5047 67.7048 21.5194V22.8588C67.7048 22.8736 67.6989 22.8877 67.6885 22.8981C67.678 22.9086 67.6639 22.9144 67.6491 22.9144H63.29C63.2753 22.9144 63.2611 22.9086 63.2507 22.8981C63.2402 22.8877 63.2344 22.8736 63.2344 22.8588V16.0425C63.2344 16.0277 63.2402 16.0136 63.2507 16.0031C63.2611 15.9927 63.2753 15.9868 63.29 15.9868H67.5307C67.5455 15.9868 67.5596 15.9927 67.5701 16.0031C67.5805 16.0136 67.5863 16.0277 67.5863 16.0425V17.4114C67.5863 17.4262 67.5805 17.4403 67.5701 17.4508C67.5596 17.4612 67.5455 17.4671 67.5307 17.4671H65.0071C64.9924 17.4671 64.9782 17.4729 64.9678 17.4834C64.9573 17.4938 64.9515 17.508 64.9515 17.5227V18.6548C64.9515 18.6696 64.9573 18.6838 64.9678 18.6942C64.9782 18.7046 64.9924 18.7105 65.0071 18.7105H66.9978C67.0126 18.7105 67.0267 18.7164 67.0372 18.7268C67.0476 18.7372 67.0535 18.7514 67.0535 18.7662V20.1351C67.0535 20.1499 67.0476 20.164 67.0372 20.1745C67.0267 20.1849 67.0126 20.1908 66.9978 20.1908H65.0071C64.9924 20.1908 64.9782 20.1966 64.9678 20.2071C64.9573 20.2175 64.9515 20.2317 64.9515 20.2464V21.4081C64.9515 21.4229 64.9573 21.437 64.9678 21.4475C64.9782 21.4579 64.9924 21.4638 65.0071 21.4638Z" fill="#929292"/>
<path d="M33.8072 19.6579V23.1217C33.8072 23.1374 33.8009 23.1525 33.7898 23.1636C33.7787 23.1747 33.7636 23.1809 33.7479 23.1809H30.2699C30.2202 23.1809 30.1953 23.156 30.1953 23.1063V17.0526C30.1953 17.0369 30.2016 17.0219 30.2127 17.0108C30.2238 16.9996 30.2388 16.9934 30.2545 16.9934H41.2073C41.217 16.9935 41.2265 16.996 41.235 17.0006C41.2436 17.0052 41.2509 17.0118 41.2564 17.0198C41.2618 17.0278 41.2653 17.037 41.2664 17.0467C41.2676 17.0563 41.2664 17.066 41.2629 17.0751C40.8429 18.1512 40.0985 18.9024 39.0295 19.3287C39.0226 19.3313 39.0163 19.3354 39.0112 19.3408C39.0061 19.3462 39.0023 19.3527 39 19.3599C38.9977 19.3671 38.9971 19.3747 38.9981 19.3822C38.9991 19.3897 39.0017 19.3969 39.0058 19.4033L41.4808 23.1158C41.4851 23.122 41.4876 23.1292 41.4879 23.1367C41.4883 23.1443 41.4866 23.1518 41.4829 23.1585C41.4793 23.1651 41.4738 23.1708 41.4672 23.1747C41.4606 23.1787 41.453 23.1808 41.4453 23.1809H37.4261C37.385 23.1809 37.355 23.1627 37.3361 23.1264L35.5172 19.6531C35.4982 19.6168 35.4682 19.5987 35.4272 19.5987H33.8664C33.8269 19.5987 33.8072 19.6184 33.8072 19.6579Z" fill="#929292"/>
<path d="M70.5765 20.873V22.885C70.5765 22.9007 70.5702 22.9157 70.5591 22.9268C70.548 22.9379 70.533 22.9442 70.5173 22.9442H68.9482C68.889 22.9442 68.8594 22.9146 68.8594 22.8554V19.3619C68.8594 19.3225 68.8791 19.3027 68.9186 19.3027H75.8746C75.883 19.3028 75.8912 19.3049 75.8985 19.3088C75.9059 19.3127 75.9122 19.3183 75.917 19.3251C75.9217 19.3319 75.9248 19.3398 75.9259 19.3481C75.927 19.3564 75.926 19.3648 75.9232 19.3726C75.446 20.6065 74.5708 20.8173 73.2812 20.8126C72.3994 20.8094 71.5171 20.8102 70.6345 20.815C70.5958 20.815 70.5765 20.8343 70.5765 20.873Z" fill="#929292"/>
</svg>
