<svg width="95" height="36" viewBox="0 0 95 36" fill="none" xmlns="http://www.w3.org/2000/svg">
<path d="M64.2389 20.4484L65.1797 20.7306C65.117 20.9972 65.0229 21.2167 64.8818 21.3892C64.7407 21.5616 64.5839 21.7028 64.38 21.7812C64.1762 21.8752 63.9253 21.9223 63.6117 21.9223C63.2354 21.9223 62.9375 21.8752 62.6866 21.7655C62.4515 21.6557 62.2476 21.4676 62.0751 21.1853C61.9027 20.9188 61.8086 20.5582 61.8086 20.1348C61.8086 19.5704 61.9654 19.1313 62.2633 18.8177C62.5612 18.5042 63.0002 18.363 63.549 18.363C63.988 18.363 64.3173 18.4571 64.5682 18.6296C64.819 18.8021 65.0072 19.0686 65.117 19.4449L64.1762 19.6488C64.1448 19.539 64.1135 19.4606 64.0664 19.4136C64.0037 19.3352 63.941 19.2724 63.8469 19.2254C63.7528 19.1784 63.6588 19.1627 63.5647 19.1627C63.3295 19.1627 63.1413 19.2568 63.0159 19.4606C62.9218 19.6017 62.8748 19.8369 62.8748 20.1348C62.8748 20.5111 62.9375 20.7777 63.0473 20.9188C63.157 21.0599 63.3295 21.1383 63.5333 21.1383C63.7372 21.1383 63.894 21.0756 63.988 20.9658C64.1135 20.8247 64.1919 20.6679 64.2389 20.4484Z" fill="#929292"/>
<path d="M65.5557 20.1319C65.5557 19.5675 65.7125 19.1285 66.026 18.8149C66.3396 18.5013 66.7787 18.3445 67.3431 18.3445C67.9233 18.3445 68.3623 18.5013 68.6759 18.7992C68.9895 19.1128 69.1463 19.5361 69.1463 20.1006C69.1463 20.5082 69.0835 20.8375 68.9424 21.0884C68.8013 21.3393 68.6132 21.5431 68.3466 21.6842C68.0957 21.8253 67.7665 21.9037 67.3902 21.9037C66.9982 21.9037 66.6846 21.841 66.418 21.7156C66.1672 21.5901 65.9633 21.402 65.7909 21.1197C65.6184 20.8375 65.5557 20.5396 65.5557 20.1319ZM66.6219 20.1319C66.6219 20.4769 66.6846 20.7278 66.81 20.8846C66.9355 21.0413 67.1079 21.1197 67.3431 21.1197C67.5783 21.1197 67.7508 21.0413 67.8762 20.9002C68.0017 20.7434 68.0644 20.4769 68.0644 20.1006C68.0644 19.7713 68.0017 19.5361 67.8605 19.395C67.7351 19.2382 67.547 19.1755 67.3274 19.1755C67.1079 19.1755 66.9355 19.2539 66.81 19.4107C66.6846 19.5361 66.6219 19.787 66.6219 20.1319Z" fill="#929292"/>
<path d="M69.6954 18.4038H71.0909L71.624 20.5049L72.1571 18.4038H73.5526V21.8533H72.6745V19.2191L72.0003 21.8533H71.2163L70.5421 19.2191V21.8533H69.6641V18.4038H69.6954Z" fill="#929292"/>
<path d="M74.2422 18.4038H76.014C76.406 18.4038 76.6882 18.4979 76.8763 18.686C77.0645 18.8742 77.1586 19.1251 77.1586 19.47C77.1586 19.815 77.0488 20.0972 76.845 20.2853C76.6411 20.4892 76.3119 20.5833 75.8885 20.5833H75.3084V21.869H74.2422V18.4038ZM75.3084 19.8777H75.5749C75.7788 19.8777 75.9199 19.8463 76.014 19.7679C76.0924 19.6895 76.1394 19.6111 76.1394 19.5014C76.1394 19.3916 76.108 19.2975 76.0296 19.2191C75.9513 19.1407 75.8258 19.1094 75.622 19.1094H75.3241V19.8777H75.3084Z" fill="#929292"/>
<path d="M77.7236 18.4038H78.7898V21.0066H80.4519V21.8533H77.7236V18.4038Z" fill="#929292"/>
<path d="M80.9844 18.4038H82.0506V21.8533H80.9844V18.4038Z" fill="#929292"/>
<path d="M84.9353 21.2776H83.728L83.5555 21.8421H82.4736L83.775 18.3926H84.9353L86.2367 21.8421H85.1235L84.9353 21.2776ZM84.7158 20.5407L84.3395 19.302L83.9632 20.5407H84.7158Z" fill="#929292"/>
<path d="M86.5664 18.4038H87.5542L88.8556 20.3167V18.4038H89.8591V21.8533H88.8556L87.5699 19.9561V21.8533H86.5664V18.4038Z" fill="#929292"/>
<path d="M90.3291 18.4038H93.5747V19.2505H92.4929V21.8533H91.4267V19.2505H90.3448V18.4038H90.3291Z" fill="#929292"/>
<path d="M51.4129 23.6603L54.5018 22.6882L53.4983 20.4617C52.7613 21.3868 52.0244 22.5784 51.4129 23.6603ZM50.3624 13.4843L44.3101 0L0 2.50871L12.277 36L35.9059 28.5523C34.4007 26.3885 33.8519 23.8171 35.5923 22.5627C37.5366 21.1516 40.4686 22.7822 42.3345 25.0871C44.1376 22.0767 49.2021 15.0679 50.3624 13.4843Z" fill="#929292"/>
<path d="M42.9296 9.74099C44.7798 9.74099 46.285 8.32984 46.285 6.57374C46.285 4.81764 44.7798 3.40649 42.9296 3.40649C41.0794 3.40649 39.5742 4.81764 39.5742 6.57374C39.5742 8.31416 41.0794 9.74099 42.9296 9.74099ZM40.1857 11.1051H45.6735V25.4518H40.1857V11.1051Z" fill="#FEFEFE"/>
<path d="M37.4726 15.2927C37.5196 15.3084 37.551 15.2927 37.551 15.2457V11.6081C37.551 11.561 37.5196 11.514 37.4726 11.4826C37.4726 11.4826 36.7514 11.0123 34.5562 10.8868C34.4465 10.8241 32.5179 10.8084 32.0005 10.8868C24.004 11.5297 23.7061 17.3154 23.7061 17.5663V18.9774C23.7061 19.1499 23.7061 25.061 32.0005 25.5785C32.8158 25.6412 34.3994 25.5785 34.5562 25.5785C36.4691 25.5785 37.7862 24.9983 37.7862 24.9983C37.8332 24.9826 37.8646 24.9356 37.8646 24.8886V21.4861C37.8646 21.4391 37.8332 21.4234 37.8019 21.4548C37.8019 21.4548 37.2061 21.9252 34.6033 22.1917C33.8663 22.2701 33.5057 22.2387 33.2392 22.1917C29.5388 21.5645 29.3663 18.8677 29.3663 18.8677C29.3663 18.8206 29.3507 18.7422 29.3507 18.7109V17.676C29.3507 17.629 29.3507 17.5506 29.3663 17.5192C29.3663 17.5192 29.6172 14.6185 33.2392 14.3049H34.6033C36.1869 14.5088 37.4726 15.2927 37.4726 15.2927Z" fill="#FEFEFE"/>
<path d="M8.46582 25.407C8.46582 25.4541 8.49718 25.4854 8.54422 25.4854H13.8909C13.9379 25.4854 13.9693 25.4541 13.9693 25.407V21.2363C13.9693 21.1892 14.0007 21.1579 14.0477 21.1579C14.0477 21.1579 22.593 21.7694 22.593 16.0464C22.593 11.515 17.2306 11.029 15.4745 11.1074C15.4432 11.1074 8.54422 11.1074 8.54422 11.1074C8.49718 11.1074 8.46582 11.1387 8.46582 11.1858V25.407ZM13.8752 17.975V14.2276H15.1923C15.1923 14.2276 17.0895 14.306 17.2463 15.6074C17.2777 15.7014 17.2777 16.3443 17.2463 16.3757C16.9954 17.8966 15.3491 17.975 15.3491 17.975H13.8752Z" fill="#FEFEFE"/>
<path d="M43.0867 32.3786C43.5258 32.3786 43.8707 32.3786 44.4352 32.1277C46.3794 31.1085 52.9491 15.0685 59.8794 10.1295C59.9265 10.0981 59.9735 10.0511 60.0048 10.004C60.0519 9.9413 60.0519 9.87858 60.0519 9.87858C60.0519 9.87858 60.0519 9.54932 59.0327 9.54932C52.8707 9.37684 46.4578 22.3124 43.0867 27.4239C43.0397 27.4866 42.8202 27.4239 42.8202 27.4239C42.8202 27.4239 40.5623 24.7584 38.6024 23.7392C38.5554 23.7235 38.3359 23.6451 38.1007 23.6608C37.9439 23.6608 37.0345 23.849 36.6111 24.288C36.1094 24.8211 36.1251 25.119 36.1251 25.7619C36.1251 25.8089 36.1564 26.0284 36.2191 26.1382C36.7052 26.9849 38.8846 29.9953 40.6878 31.6573C40.9543 31.8612 41.3777 32.3786 43.0867 32.3786Z" fill="#929292"/>
<path d="M61.6982 5.27637H66.8254C67.8446 5.27637 68.6599 5.41748 69.2714 5.68403C69.8986 5.96626 70.416 6.35825 70.808 6.85999C71.2157 7.37741 71.5136 7.97323 71.6861 8.64745C71.8742 9.32166 71.9683 10.0429 71.9683 10.8112C71.9683 12.0028 71.8272 12.9279 71.5606 13.5865C71.2941 14.245 70.9178 14.7938 70.4317 15.2485C69.9456 15.6875 69.4282 15.9854 68.8794 16.1422C68.1268 16.3461 67.4369 16.4401 66.8254 16.4401H61.6982V5.27637ZM65.1477 7.80076V13.9001H65.9944C66.7157 13.9001 67.2331 13.8217 67.531 13.6649C67.8289 13.5081 68.0798 13.2258 68.2523 12.8339C68.4247 12.4419 68.5188 11.7833 68.5188 10.8896C68.5188 9.69797 68.3307 8.89832 67.9387 8.45929C67.5467 8.02027 66.9195 7.80076 66.0101 7.80076H65.1477Z" fill="#929292"/>
<path d="M72.9248 12.7593L76.2175 12.5555C76.2959 13.0886 76.437 13.4963 76.6565 13.7785C77.0171 14.2332 77.5189 14.4527 78.1774 14.4527C78.6635 14.4527 79.0555 14.343 79.322 14.1078C79.5886 13.8726 79.7297 13.606 79.7297 13.3081C79.7297 13.0259 79.6043 12.7593 79.3534 12.5242C79.1025 12.289 78.5067 12.0851 77.5816 11.8813C76.0607 11.5363 74.9945 11.0816 74.336 10.5172C73.6774 9.95272 73.3638 9.23147 73.3638 8.35342C73.3638 7.77328 73.5363 7.24018 73.8656 6.72276C74.1948 6.20534 74.6966 5.81335 75.3708 5.51544C76.045 5.21753 76.9544 5.07642 78.1147 5.07642C79.5415 5.07642 80.6391 5.34297 81.376 5.87607C82.1286 6.40917 82.5677 7.25586 82.7088 8.41614L79.4475 8.60429C79.3534 8.10255 79.1809 7.74192 78.8987 7.50673C78.6164 7.27154 78.2401 7.16178 77.7541 7.16178C77.3464 7.16178 77.0485 7.24018 76.8447 7.41265C76.6408 7.58513 76.5468 7.78896 76.5468 8.03983C76.5468 8.21231 76.6252 8.38478 76.7976 8.5259C76.9544 8.66701 77.3464 8.80812 77.9579 8.93356C79.4631 9.26283 80.545 9.5921 81.2036 9.92137C81.8621 10.2506 82.3325 10.674 82.6304 11.16C82.9283 11.6461 83.0694 12.2106 83.0694 12.8221C83.0694 13.5433 82.8656 14.2019 82.4736 14.7977C82.0816 15.4092 81.5171 15.8639 80.8116 16.1775C80.106 16.4911 79.1966 16.6478 78.1147 16.6478C76.2175 16.6478 74.9004 16.2872 74.1635 15.5503C73.4422 14.8134 73.0346 13.8883 72.9248 12.7593Z" fill="#929292"/>
<path d="M83.9482 12.7593L87.2409 12.5555C87.3193 13.0886 87.4604 13.4963 87.6799 13.7785C88.0406 14.2332 88.5423 14.4527 89.2009 14.4527C89.6869 14.4527 90.0789 14.343 90.3455 14.1078C90.612 13.8726 90.7531 13.606 90.7531 13.3081C90.7531 13.0259 90.6277 12.7593 90.3768 12.5242C90.1259 12.289 89.5301 12.0851 88.605 11.8813C87.0841 11.5363 86.0179 11.0816 85.3594 10.5172C84.7165 9.95272 84.3873 9.23147 84.3873 8.35342C84.3873 7.77328 84.5597 7.24018 84.889 6.72276C85.2183 6.20534 85.72 5.81335 86.3942 5.51544C87.0684 5.21753 87.9779 5.07642 89.1381 5.07642C90.565 5.07642 91.6625 5.34297 92.3995 5.87607C93.1521 6.40917 93.5911 7.25586 93.7322 8.41614L90.4709 8.60429C90.3768 8.10255 90.2043 7.74192 89.9221 7.50673C89.6399 7.27154 89.2636 7.16178 88.7775 7.16178C88.3698 7.16178 88.0719 7.24018 87.8681 7.41265C87.6643 7.58513 87.5702 7.78896 87.5702 8.03983C87.5702 8.21231 87.6486 8.38478 87.8211 8.5259C87.9779 8.66701 88.3698 8.80812 88.9813 8.93356C90.4866 9.26283 91.5684 9.5921 92.227 9.92137C92.8855 10.2506 93.3559 10.674 93.6538 11.16C93.9517 11.6461 94.0928 12.2106 94.0928 12.8221C94.0928 13.5433 93.889 14.2019 93.497 14.7977C93.105 15.4092 92.5406 15.8639 91.835 16.1775C91.1294 16.4911 90.22 16.6478 89.1381 16.6478C87.2409 16.6478 85.9238 16.2872 85.1869 15.5503C84.45 14.8134 84.0423 13.8883 83.9482 12.7593Z" fill="#929292"/>
</svg>
