<svg width="85" height="36" viewBox="0 0 85 36" fill="none" xmlns="http://www.w3.org/2000/svg">
<path d="M34.148 19.2212L29.9482 30.494L29.4983 28.2005C28.4483 25.3908 26.1754 22.4436 23.5332 21.2395L27.3868 35.7233H31.9443L38.717 19.1982H34.148V19.2212Z" fill="#929292"/>
<path d="M37.7598 35.7577L40.4481 19.1982H44.7517L42.0634 35.7577H37.7598Z" fill="#929292"/>
<path d="M57.662 19.6126C56.8082 19.2801 55.4698 18.9131 53.8083 18.9131C49.5509 18.9131 46.5626 21.1608 46.5395 24.3718C46.5164 26.7571 48.674 28.0758 50.3008 28.8671C51.9854 29.6813 52.5392 30.1974 52.5392 30.9199C52.5276 32.0322 51.2008 32.5368 49.9662 32.5368C48.2471 32.5368 47.3356 32.2845 45.9165 31.6767L45.3627 31.413L44.7627 35.1171C45.7665 35.5758 47.6241 35.9772 49.5624 36.0001C54.0737 36.0001 57.0159 33.7753 57.0505 30.3465C57.0735 28.4543 55.9198 27.0323 53.4391 25.8511C51.9392 25.0828 51.0162 24.5782 51.0277 23.7984C51.0277 23.1103 51.8008 22.3764 53.4968 22.3764C54.9044 22.3534 55.9198 22.6745 56.7159 23.0186L57.0966 23.2135L57.662 19.6126Z" fill="#929292"/>
<path d="M68.6923 19.2202H65.3694C64.3425 19.2202 63.5695 19.5069 63.108 20.5963L56.7275 35.7682H61.2388C61.2388 35.7682 61.9772 33.727 62.1503 33.2797C62.6464 33.2797 67.0308 33.2912 67.6538 33.2912C67.7923 33.8646 68.173 35.7682 68.173 35.7682H72.1767L68.6923 19.2202ZM63.3849 29.8853C63.7425 28.9334 65.0925 25.2523 65.0925 25.2523C65.0694 25.2981 65.4501 24.3004 65.6693 23.6697L65.9578 25.0917C65.9578 25.0917 66.7885 29.0481 66.9616 29.8738C66.2924 29.8853 64.2271 29.8853 63.3849 29.8853Z" fill="#929292"/>
<path d="M26.037 19.2092H19.1028L19.0566 19.4959C24.4448 20.8721 28.01 24.2321 29.4868 28.2114L27.9869 20.5968C27.7331 19.5533 26.9716 19.2436 26.037 19.2092Z" fill="#929292"/>
<path d="M6.08802 15.2078H3.35356L0.180664 1.03363L3.21511 0.529053L5.38422 11.6184L10.8993 0.678133H13.8068L6.08802 15.2078Z" fill="#929292"/>
<path d="M20.3598 10.5715H13.8179C13.6333 12.544 14.5563 13.4041 16.1255 13.4041C17.4292 13.4041 18.583 12.9224 19.8176 12.1426L19.806 14.1151C18.5946 14.8719 17.187 15.3536 15.537 15.3536C12.6872 15.3536 10.8065 13.7366 11.3719 10.0899C11.8796 6.79862 14.1756 4.80322 16.8293 4.80322C19.8868 4.80322 20.9021 7.08531 20.4637 9.96373C20.4406 10.1701 20.3714 10.4224 20.3598 10.5715ZM16.5062 6.54633C15.4909 6.54633 14.5448 7.3376 14.1064 9.00043H18.1561C18.2254 7.42935 17.7292 6.54633 16.5062 6.54633Z" fill="#929292"/>
<path d="M24.6172 9.33348L23.7172 15.1362H21.1904L22.7596 5.01013H24.9171V7.03992C25.7709 5.87021 26.9363 4.88398 28.54 4.79224L28.5516 7.29222C26.9363 7.40689 25.5056 8.24404 24.6172 9.33348Z" fill="#929292"/>
<path d="M28.5059 15.1387L30.075 5.01265H32.6018L31.0442 15.1387H28.5059ZM31.6211 3.31542C30.7788 3.31542 30.1904 2.73056 30.3288 1.89341C30.4673 1.03333 31.2288 0.425537 32.071 0.425537C32.8902 0.425537 33.4787 1.03333 33.3402 1.89341C33.2133 2.73056 32.4518 3.31542 31.6211 3.31542Z" fill="#929292"/>
<path d="M39.6167 2.24926C38.7514 2.24926 38.2322 2.62769 38.0937 3.53365L37.863 5.02446H39.8013V7.0772H37.5399L36.2938 15.139H33.7786L35.0247 7.06573H33.5479L33.8709 5.013H35.3477L35.6131 3.26989C35.9593 1.02221 37.5284 0.185059 39.6167 0.185059C40.0552 0.185059 40.3898 0.230929 40.6436 0.265333L40.6667 2.31807C40.4128 2.29513 40.0436 2.24926 39.6167 2.24926Z" fill="#929292"/>
<path d="M39.6396 15.1387L41.2088 5.01265H43.7356L42.178 15.1387H39.6396ZM42.7664 3.31542C41.9241 3.31542 41.3357 2.73056 41.4626 1.89341C41.6011 1.03333 42.3626 0.425537 43.2048 0.425537C44.024 0.425537 44.6124 1.03333 44.474 1.89341C44.3471 2.73056 43.5856 3.31542 42.7664 3.31542Z" fill="#929292"/>
<path d="M53.5659 10.5715H47.024C46.8509 12.544 47.7624 13.4041 49.3315 13.4041C50.6353 13.4041 51.7891 12.9224 53.0236 12.1426L53.0121 14.1151C51.8006 14.8719 50.393 15.3536 48.7431 15.3536C45.8933 15.3536 44.0126 13.7366 44.578 10.0899C45.0856 6.79862 47.3816 4.80322 50.0353 4.80322C53.0929 4.80322 54.1082 7.08531 53.6697 9.96373C53.6467 10.1701 53.5774 10.4224 53.5659 10.5715ZM49.7123 6.54633C48.6969 6.54633 47.7509 7.3376 47.3124 9.00043H51.3622C51.4314 7.42935 50.9353 6.54633 49.7123 6.54633Z" fill="#929292"/>
<path d="M61.0543 15.1375L61.0658 13.7269C60.212 14.587 59.1044 15.3439 57.6968 15.3439C55.5623 15.3439 54.097 13.7728 54.6277 10.3554C55.2162 6.58251 57.5583 4.90821 59.9236 4.90821C60.8928 4.90821 61.6543 5.08023 62.2312 5.28665L62.9927 0.401372L65.5887 0L63.2465 15.1375H61.0543ZM61.9081 7.36232C61.3197 7.06416 60.8582 6.92654 59.9928 6.92654C58.666 6.92654 57.5237 7.99305 57.1891 10.2178C56.8891 12.1903 57.5814 13.1077 58.7006 13.1077C59.6236 13.1077 60.4313 12.5572 61.2389 11.7201L61.9081 7.36232Z" fill="#929292"/>
<path d="M70.9878 15.2377C69.7879 15.2377 68.8072 15.0428 67.9072 14.7332L69.5687 3.97639L71.5301 3.67822L70.8148 8.33414C71.3916 7.82956 72.1878 7.31351 73.1569 7.31351C74.7838 7.31351 75.8799 8.51763 75.476 11.0979C75.0376 13.919 73.2838 15.2377 70.9878 15.2377ZM72.407 8.98781C71.7724 8.98781 71.1263 9.41212 70.5609 9.9855L70.0186 13.4602C70.3994 13.5979 70.6532 13.6667 71.1955 13.6667C72.407 13.6667 73.2608 12.9327 73.5261 11.1896C73.7569 9.72175 73.2608 8.98781 72.407 8.98781Z" fill="#929292"/>
<path d="M79.9995 15.563C79.0188 17.4552 78.0496 18.04 76.5612 18.04C76.2266 18.04 76.042 18.0056 75.869 17.9598L75.8574 16.3887C76.0997 16.4575 76.3651 16.5034 76.7343 16.5034C77.2881 16.5034 77.7842 16.2511 78.1073 15.6891L78.3611 15.1846L76.7343 7.62729L78.7765 7.375L79.7226 12.8337L82.2724 7.47821H84.1762L79.9995 15.563Z" fill="#929292"/>
</svg>
